%TF.GenerationSoftware,Altium Limited,Altium Designer,25.5.2 (35)*%
G04 Layer_Color=8388736*
%FSLAX45Y45*%
%MOMM*%
%TF.SameCoordinates,71E00EFA-37BE-4E02-AFE8-A08B7019828F*%
%TF.FilePolarity,Negative*%
%TF.FileFunction,Soldermask,Top*%
%TF.Part,Single*%
G01*
G75*
%TA.AperFunction,SMDPad,CuDef*%
%ADD28R,1.20000X1.20000*%
%ADD29R,1.50000X1.60000*%
G04:AMPARAMS|DCode=30|XSize=1.68435mm|YSize=0.62684mm|CornerRadius=0.31342mm|HoleSize=0mm|Usage=FLASHONLY|Rotation=0.000|XOffset=0mm|YOffset=0mm|HoleType=Round|Shape=RoundedRectangle|*
%AMROUNDEDRECTD30*
21,1,1.68435,0.00000,0,0,0.0*
21,1,1.05751,0.62684,0,0,0.0*
1,1,0.62684,0.52875,0.00000*
1,1,0.62684,-0.52875,0.00000*
1,1,0.62684,-0.52875,0.00000*
1,1,0.62684,0.52875,0.00000*
%
%ADD30ROUNDEDRECTD30*%
%ADD31R,1.68435X0.62684*%
%ADD32R,0.80000X1.00000*%
%ADD35R,0.75000X0.28000*%
%ADD36C,0.25200*%
%ADD37R,0.60000X1.10000*%
%TA.AperFunction,FiducialPad,Global*%
%ADD91C,2.00000*%
%TA.AperFunction,SMDPad,CuDef*%
%ADD92C,0.80320*%
%ADD93R,1.00320X1.10320*%
%ADD94R,2.30320X1.60320*%
%ADD95R,0.82000X0.40000*%
G04:AMPARAMS|DCode=96|XSize=0.9632mm|YSize=0.8636mm|CornerRadius=0.18415mm|HoleSize=0mm|Usage=FLASHONLY|Rotation=0.000|XOffset=0mm|YOffset=0mm|HoleType=Round|Shape=RoundedRectangle|*
%AMROUNDEDRECTD96*
21,1,0.96320,0.49530,0,0,0.0*
21,1,0.59490,0.86360,0,0,0.0*
1,1,0.36830,0.29745,-0.24765*
1,1,0.36830,-0.29745,-0.24765*
1,1,0.36830,-0.29745,0.24765*
1,1,0.36830,0.29745,0.24765*
%
%ADD96ROUNDEDRECTD96*%
%ADD97R,0.40000X0.70000*%
%ADD98O,0.29000X0.99000*%
%ADD99O,0.99000X0.29000*%
%ADD100O,0.95000X0.30000*%
%ADD101O,0.30000X0.95000*%
%ADD102R,2.75000X2.75000*%
%ADD103C,1.77800*%
%ADD104R,1.77800X1.77800*%
%ADD105O,1.65320X1.25320*%
%ADD106O,2.00320X1.30320*%
G04:AMPARAMS|DCode=107|XSize=1.7032mm|YSize=1.7032mm|CornerRadius=0.4016mm|HoleSize=0mm|Usage=FLASHONLY|Rotation=270.000|XOffset=0mm|YOffset=0mm|HoleType=Round|Shape=RoundedRectangle|*
%AMROUNDEDRECTD107*
21,1,1.70320,0.90000,0,0,270.0*
21,1,0.90000,1.70320,0,0,270.0*
1,1,0.80320,-0.45000,-0.45000*
1,1,0.80320,-0.45000,0.45000*
1,1,0.80320,0.45000,0.45000*
1,1,0.80320,0.45000,-0.45000*
%
%ADD107ROUNDEDRECTD107*%
%ADD108R,1.70000X0.60000*%
%ADD109R,1.00254X1.00254*%
%ADD110R,1.00320X1.00320*%
G04:AMPARAMS|DCode=111|XSize=0.9632mm|YSize=0.8636mm|CornerRadius=0.18415mm|HoleSize=0mm|Usage=FLASHONLY|Rotation=90.000|XOffset=0mm|YOffset=0mm|HoleType=Round|Shape=RoundedRectangle|*
%AMROUNDEDRECTD111*
21,1,0.96320,0.49530,0,0,90.0*
21,1,0.59490,0.86360,0,0,90.0*
1,1,0.36830,0.24765,0.29745*
1,1,0.36830,0.24765,-0.29745*
1,1,0.36830,-0.24765,-0.29745*
1,1,0.36830,-0.24765,0.29745*
%
%ADD111ROUNDEDRECTD111*%
G04:AMPARAMS|DCode=112|XSize=0.9632mm|YSize=0.8636mm|CornerRadius=0.18415mm|HoleSize=0mm|Usage=FLASHONLY|Rotation=225.000|XOffset=0mm|YOffset=0mm|HoleType=Round|Shape=RoundedRectangle|*
%AMROUNDEDRECTD112*
21,1,0.96320,0.49530,0,0,225.0*
21,1,0.59490,0.86360,0,0,225.0*
1,1,0.36830,-0.38544,-0.03521*
1,1,0.36830,0.03521,0.38544*
1,1,0.36830,0.38544,0.03521*
1,1,0.36830,-0.03521,-0.38544*
%
%ADD112ROUNDEDRECTD112*%
%TA.AperFunction,ComponentPad*%
%ADD113C,1.70320*%
%ADD114C,2.00320*%
%ADD115R,2.00320X2.00320*%
%ADD116C,1.80320*%
%ADD117C,1.85420*%
%ADD118R,1.85420X1.85420*%
%ADD119R,1.75320X1.75320*%
%ADD120C,1.75320*%
%ADD121C,1.10320*%
%TA.AperFunction,ViaPad*%
%ADD122C,3.40000*%
%ADD123C,5.40000*%
G36*
X12393005Y4139183D02*
X12393666Y4139139D01*
X12394324Y4139097D01*
X12394329Y4139096D01*
X12394334Y4139096D01*
X12394967Y4138970D01*
X12395631Y4138838D01*
X12395635Y4138837D01*
X12395640Y4138836D01*
X12396235Y4138634D01*
X12396892Y4138412D01*
X12396896Y4138409D01*
X12396901Y4138408D01*
X12397494Y4138115D01*
X12398087Y4137823D01*
X12398091Y4137821D01*
X12398096Y4137818D01*
X12398720Y4137401D01*
X12399195Y4137084D01*
X12399198Y4137082D01*
X12399203Y4137079D01*
X12399754Y4136595D01*
X12400197Y4136207D01*
X12400201Y4136204D01*
X12400204Y4136201D01*
X12400646Y4135697D01*
X12401076Y4135207D01*
X12401079Y4135203D01*
X12401082Y4135199D01*
X12401461Y4134633D01*
X12401817Y4134100D01*
X12401820Y4134096D01*
X12401822Y4134092D01*
X12402111Y4133507D01*
X12402408Y4132906D01*
X12402409Y4132902D01*
X12402412Y4132897D01*
X12402632Y4132249D01*
X12402837Y4131646D01*
X12402838Y4131641D01*
X12402840Y4131636D01*
X12402970Y4130982D01*
X12403098Y4130339D01*
X12403098Y4130335D01*
X12403099Y4130330D01*
X12403142Y4129681D01*
X12403187Y4129011D01*
X12403417Y3889266D01*
X12403417Y3889262D01*
X12403417Y3889258D01*
X12403418Y3884015D01*
Y3884014D01*
D01*
X12403331Y3882685D01*
X12401964Y3872288D01*
X12401790Y3871415D01*
X12401704Y3870981D01*
X12398990Y3860851D01*
X12398562Y3859590D01*
X12398562Y3859589D01*
X12394550Y3849902D01*
X12394549Y3849900D01*
X12393960Y3848706D01*
X12388717Y3839624D01*
X12387977Y3838516D01*
X12387976Y3838516D01*
X12381592Y3830196D01*
X12380714Y3829195D01*
X12380714Y3829195D01*
X12380714Y3829194D01*
X12373298Y3821779D01*
X12372297Y3820901D01*
X12363976Y3814518D01*
X12362869Y3813778D01*
D01*
X12362868Y3813777D01*
X12353785Y3808535D01*
X12352591Y3807946D01*
X12342901Y3803934D01*
X12342045Y3803644D01*
X12341640Y3803506D01*
X12331509Y3800794D01*
X12330203Y3800534D01*
X12330202D01*
X12319805Y3799168D01*
X12318476Y3799081D01*
D01*
X12318476D01*
X12313233Y3799082D01*
X12307993Y3799082D01*
X12307992D01*
D01*
X12306663Y3799168D01*
X12296267Y3800536D01*
X12296266D01*
X12294960Y3800796D01*
X12284831Y3803510D01*
X12283570Y3803938D01*
X12283566Y3803939D01*
X12273883Y3807950D01*
X12273881Y3807950D01*
X12273487Y3808145D01*
X12272687Y3808539D01*
X12272684Y3808541D01*
X12263605Y3813782D01*
X12262498Y3814522D01*
X12262497Y3814522D01*
X12254178Y3820905D01*
X12253176Y3821784D01*
X12245762Y3829198D01*
Y3829199D01*
X12245761D01*
X12244883Y3830200D01*
X12238500Y3838519D01*
X12238499Y3838519D01*
X12237759Y3839627D01*
X12232516Y3848708D01*
X12231927Y3849903D01*
X12227914Y3859591D01*
X12227486Y3860852D01*
X12227486Y3860853D01*
X12224773Y3870979D01*
X12224772Y3870982D01*
X12224564Y3872028D01*
X12224513Y3872287D01*
Y3872288D01*
X12223145Y3882683D01*
X12223144Y3882685D01*
X12223070Y3883828D01*
X12223057Y3884014D01*
Y3884014D01*
Y3884014D01*
X12223058Y3889243D01*
X12223058Y3889246D01*
X12222823Y4128992D01*
X12222823Y4128997D01*
X12222823Y4129002D01*
X12222867Y4129680D01*
X12222908Y4130321D01*
X12222910Y4130326D01*
X12222910Y4130331D01*
X12223046Y4131014D01*
X12223167Y4131628D01*
X12223169Y4131632D01*
X12223170Y4131637D01*
X12223398Y4132312D01*
X12223594Y4132889D01*
X12223596Y4132893D01*
X12223598Y4132899D01*
X12223889Y4133489D01*
X12224182Y4134084D01*
X12224185Y4134089D01*
X12224187Y4134093D01*
X12224558Y4134648D01*
X12224921Y4135192D01*
X12224923Y4135196D01*
X12224927Y4135201D01*
X12225395Y4135735D01*
X12225798Y4136195D01*
X12225802Y4136198D01*
X12225805Y4136202D01*
X12226317Y4136651D01*
X12226798Y4137074D01*
X12226802Y4137076D01*
X12226806Y4137080D01*
X12227404Y4137480D01*
X12227905Y4137815D01*
X12227909Y4137817D01*
X12227914Y4137820D01*
X12228678Y4138197D01*
X12229099Y4138405D01*
X12229102Y4138406D01*
X12229108Y4138409D01*
X12229939Y4138691D01*
X12230360Y4138834D01*
X12230363Y4138835D01*
X12230369Y4138837D01*
X12231224Y4139007D01*
X12231666Y4139095D01*
X12231669Y4139096D01*
X12231676Y4139097D01*
X12232428Y4139146D01*
X12232995Y4139184D01*
X12233000Y4139184D01*
X12233004Y4139184D01*
X12393005Y4139183D01*
D02*
G37*
G36*
X12139005D02*
X12139666Y4139139D01*
X12140324Y4139097D01*
X12140329Y4139096D01*
X12140334Y4139096D01*
X12140967Y4138970D01*
X12141631Y4138838D01*
X12141635Y4138837D01*
X12141640Y4138836D01*
X12142235Y4138634D01*
X12142892Y4138412D01*
X12142896Y4138409D01*
X12142901Y4138408D01*
X12143494Y4138115D01*
X12144087Y4137823D01*
X12144091Y4137821D01*
X12144096Y4137818D01*
X12144720Y4137401D01*
X12145195Y4137084D01*
X12145198Y4137082D01*
X12145203Y4137079D01*
X12145754Y4136595D01*
X12146197Y4136207D01*
X12146201Y4136204D01*
X12146204Y4136201D01*
X12146646Y4135697D01*
X12147076Y4135207D01*
X12147079Y4135203D01*
X12147082Y4135199D01*
X12147461Y4134633D01*
X12147817Y4134100D01*
X12147820Y4134096D01*
X12147822Y4134092D01*
X12148111Y4133507D01*
X12148408Y4132906D01*
X12148409Y4132902D01*
X12148412Y4132897D01*
X12148632Y4132249D01*
X12148837Y4131646D01*
X12148838Y4131641D01*
X12148840Y4131636D01*
X12148970Y4130982D01*
X12149098Y4130339D01*
X12149098Y4130335D01*
X12149099Y4130330D01*
X12149142Y4129681D01*
X12149187Y4129011D01*
X12149417Y3889266D01*
X12149417Y3889262D01*
X12149417Y3889258D01*
X12149418Y3884015D01*
Y3884014D01*
D01*
X12149331Y3882685D01*
X12147964Y3872288D01*
X12147790Y3871415D01*
X12147704Y3870981D01*
X12144990Y3860851D01*
X12144562Y3859590D01*
X12144562Y3859589D01*
X12140550Y3849902D01*
X12140549Y3849900D01*
X12139960Y3848706D01*
X12134717Y3839624D01*
X12133977Y3838516D01*
X12133976Y3838516D01*
X12127592Y3830196D01*
X12126714Y3829195D01*
X12126714Y3829195D01*
X12126714Y3829194D01*
X12119298Y3821779D01*
X12118297Y3820901D01*
X12109976Y3814518D01*
X12108869Y3813778D01*
D01*
X12108868Y3813777D01*
X12099785Y3808535D01*
X12098591Y3807946D01*
X12088901Y3803934D01*
X12088045Y3803644D01*
X12087640Y3803506D01*
X12077509Y3800794D01*
X12076203Y3800534D01*
X12076202D01*
X12065805Y3799168D01*
X12064476Y3799081D01*
D01*
X12064476D01*
X12059233Y3799082D01*
X12053993Y3799082D01*
X12053992D01*
D01*
X12052663Y3799168D01*
X12042267Y3800536D01*
X12042266D01*
X12040960Y3800796D01*
X12030831Y3803510D01*
X12029570Y3803938D01*
X12029566Y3803939D01*
X12019883Y3807950D01*
X12019881Y3807950D01*
X12019487Y3808145D01*
X12018687Y3808539D01*
X12018684Y3808541D01*
X12009605Y3813782D01*
X12008498Y3814522D01*
X12008497Y3814522D01*
X12000178Y3820905D01*
X11999176Y3821784D01*
X11991762Y3829198D01*
Y3829199D01*
X11991761D01*
X11990883Y3830200D01*
X11984500Y3838519D01*
X11984499Y3838519D01*
X11983759Y3839627D01*
X11978516Y3848708D01*
X11977927Y3849903D01*
X11973914Y3859591D01*
X11973486Y3860852D01*
X11973486Y3860853D01*
X11970773Y3870979D01*
X11970772Y3870982D01*
X11970564Y3872028D01*
X11970513Y3872287D01*
Y3872288D01*
X11969145Y3882683D01*
X11969144Y3882685D01*
X11969070Y3883828D01*
X11969057Y3884014D01*
Y3884014D01*
Y3884014D01*
X11969058Y3889243D01*
X11969058Y3889246D01*
X11968823Y4128992D01*
X11968823Y4128997D01*
X11968823Y4129002D01*
X11968867Y4129680D01*
X11968908Y4130321D01*
X11968910Y4130326D01*
X11968910Y4130331D01*
X11969046Y4131014D01*
X11969167Y4131628D01*
X11969169Y4131632D01*
X11969170Y4131637D01*
X11969398Y4132312D01*
X11969594Y4132889D01*
X11969596Y4132893D01*
X11969598Y4132899D01*
X11969889Y4133489D01*
X11970182Y4134084D01*
X11970185Y4134089D01*
X11970187Y4134093D01*
X11970558Y4134648D01*
X11970921Y4135192D01*
X11970923Y4135196D01*
X11970927Y4135201D01*
X11971395Y4135735D01*
X11971798Y4136195D01*
X11971802Y4136198D01*
X11971805Y4136202D01*
X11972317Y4136651D01*
X11972798Y4137074D01*
X11972802Y4137076D01*
X11972806Y4137080D01*
X11973404Y4137480D01*
X11973905Y4137815D01*
X11973909Y4137817D01*
X11973914Y4137820D01*
X11974678Y4138197D01*
X11975099Y4138405D01*
X11975102Y4138406D01*
X11975108Y4138409D01*
X11975939Y4138691D01*
X11976360Y4138834D01*
X11976363Y4138835D01*
X11976369Y4138837D01*
X11977224Y4139007D01*
X11977666Y4139095D01*
X11977669Y4139096D01*
X11977676Y4139097D01*
X11978428Y4139146D01*
X11978995Y4139184D01*
X11979000Y4139184D01*
X11979004Y4139184D01*
X12139005Y4139183D01*
D02*
G37*
G36*
X11885005D02*
X11885666Y4139139D01*
X11886324Y4139097D01*
X11886329Y4139096D01*
X11886334Y4139096D01*
X11886967Y4138970D01*
X11887631Y4138838D01*
X11887635Y4138837D01*
X11887640Y4138836D01*
X11888235Y4138634D01*
X11888892Y4138412D01*
X11888896Y4138409D01*
X11888901Y4138408D01*
X11889494Y4138115D01*
X11890087Y4137823D01*
X11890091Y4137821D01*
X11890096Y4137818D01*
X11890720Y4137401D01*
X11891195Y4137084D01*
X11891198Y4137082D01*
X11891203Y4137079D01*
X11891754Y4136595D01*
X11892197Y4136207D01*
X11892201Y4136204D01*
X11892204Y4136201D01*
X11892646Y4135697D01*
X11893076Y4135207D01*
X11893079Y4135203D01*
X11893082Y4135199D01*
X11893461Y4134633D01*
X11893817Y4134100D01*
X11893820Y4134096D01*
X11893822Y4134092D01*
X11894111Y4133507D01*
X11894408Y4132906D01*
X11894409Y4132902D01*
X11894412Y4132897D01*
X11894632Y4132249D01*
X11894837Y4131646D01*
X11894838Y4131641D01*
X11894840Y4131636D01*
X11894970Y4130982D01*
X11895098Y4130339D01*
X11895098Y4130335D01*
X11895099Y4130330D01*
X11895142Y4129681D01*
X11895187Y4129011D01*
X11895417Y3889266D01*
X11895417Y3889262D01*
X11895417Y3889258D01*
X11895418Y3884015D01*
Y3884014D01*
D01*
X11895331Y3882685D01*
X11893964Y3872288D01*
X11893790Y3871415D01*
X11893704Y3870981D01*
X11890990Y3860851D01*
X11890562Y3859590D01*
X11890562Y3859589D01*
X11886550Y3849902D01*
X11886549Y3849900D01*
X11885960Y3848706D01*
X11880717Y3839624D01*
X11879977Y3838516D01*
X11879976Y3838516D01*
X11873592Y3830196D01*
X11872714Y3829195D01*
X11872714Y3829195D01*
X11872714Y3829194D01*
X11865298Y3821779D01*
X11864297Y3820901D01*
X11855976Y3814518D01*
X11854869Y3813778D01*
D01*
X11854868Y3813777D01*
X11845785Y3808535D01*
X11844591Y3807946D01*
X11834901Y3803934D01*
X11834045Y3803644D01*
X11833640Y3803506D01*
X11823510Y3800794D01*
X11822203Y3800534D01*
X11822202D01*
X11811805Y3799168D01*
X11810476Y3799081D01*
D01*
X11810476D01*
X11805233Y3799082D01*
X11799993Y3799082D01*
X11799992D01*
D01*
X11798663Y3799168D01*
X11788267Y3800536D01*
X11788266D01*
X11786960Y3800796D01*
X11776831Y3803510D01*
X11775570Y3803938D01*
X11775566Y3803939D01*
X11765883Y3807950D01*
X11765881Y3807950D01*
X11765487Y3808145D01*
X11764687Y3808539D01*
X11764684Y3808541D01*
X11755605Y3813782D01*
X11754498Y3814522D01*
X11754497Y3814522D01*
X11746178Y3820905D01*
X11745176Y3821784D01*
X11737762Y3829198D01*
Y3829199D01*
X11737761D01*
X11736883Y3830200D01*
X11730500Y3838519D01*
X11730499Y3838519D01*
X11729759Y3839627D01*
X11724516Y3848708D01*
X11723927Y3849903D01*
X11719914Y3859591D01*
X11719486Y3860852D01*
X11719486Y3860853D01*
X11716773Y3870979D01*
X11716772Y3870982D01*
X11716564Y3872028D01*
X11716513Y3872287D01*
Y3872288D01*
X11715145Y3882683D01*
X11715144Y3882685D01*
X11715070Y3883828D01*
X11715057Y3884014D01*
Y3884014D01*
Y3884014D01*
X11715058Y3889243D01*
X11715058Y3889246D01*
X11714823Y4128992D01*
X11714823Y4128997D01*
X11714823Y4129002D01*
X11714867Y4129680D01*
X11714908Y4130321D01*
X11714910Y4130326D01*
X11714910Y4130331D01*
X11715046Y4131014D01*
X11715167Y4131628D01*
X11715169Y4131632D01*
X11715170Y4131637D01*
X11715398Y4132312D01*
X11715594Y4132889D01*
X11715596Y4132893D01*
X11715598Y4132899D01*
X11715889Y4133489D01*
X11716182Y4134084D01*
X11716185Y4134089D01*
X11716187Y4134093D01*
X11716558Y4134648D01*
X11716921Y4135192D01*
X11716923Y4135196D01*
X11716927Y4135201D01*
X11717395Y4135735D01*
X11717798Y4136195D01*
X11717802Y4136198D01*
X11717805Y4136202D01*
X11718317Y4136651D01*
X11718798Y4137074D01*
X11718802Y4137076D01*
X11718806Y4137080D01*
X11719404Y4137480D01*
X11719905Y4137815D01*
X11719909Y4137817D01*
X11719914Y4137820D01*
X11720678Y4138197D01*
X11721099Y4138405D01*
X11721102Y4138406D01*
X11721108Y4138409D01*
X11721939Y4138691D01*
X11722360Y4138834D01*
X11722363Y4138835D01*
X11722369Y4138837D01*
X11723224Y4139007D01*
X11723666Y4139095D01*
X11723669Y4139096D01*
X11723676Y4139097D01*
X11724428Y4139146D01*
X11724995Y4139184D01*
X11725000Y4139184D01*
X11725004Y4139184D01*
X11885005Y4139183D01*
D02*
G37*
G36*
X11631005D02*
X11631666Y4139139D01*
X11632324Y4139097D01*
X11632329Y4139096D01*
X11632334Y4139096D01*
X11632967Y4138970D01*
X11633631Y4138838D01*
X11633635Y4138837D01*
X11633640Y4138836D01*
X11634235Y4138634D01*
X11634892Y4138412D01*
X11634896Y4138409D01*
X11634901Y4138408D01*
X11635494Y4138115D01*
X11636087Y4137823D01*
X11636091Y4137821D01*
X11636096Y4137818D01*
X11636720Y4137401D01*
X11637195Y4137084D01*
X11637198Y4137082D01*
X11637203Y4137079D01*
X11637754Y4136595D01*
X11638197Y4136207D01*
X11638201Y4136204D01*
X11638204Y4136201D01*
X11638646Y4135697D01*
X11639076Y4135207D01*
X11639079Y4135203D01*
X11639082Y4135199D01*
X11639461Y4134633D01*
X11639817Y4134100D01*
X11639820Y4134096D01*
X11639822Y4134092D01*
X11640111Y4133507D01*
X11640408Y4132906D01*
X11640409Y4132902D01*
X11640412Y4132897D01*
X11640632Y4132249D01*
X11640837Y4131646D01*
X11640838Y4131641D01*
X11640840Y4131636D01*
X11640970Y4130982D01*
X11641098Y4130339D01*
X11641098Y4130335D01*
X11641099Y4130330D01*
X11641142Y4129681D01*
X11641187Y4129011D01*
X11641417Y3889266D01*
X11641417Y3889262D01*
X11641417Y3889258D01*
X11641418Y3884015D01*
Y3884014D01*
D01*
X11641331Y3882685D01*
X11639964Y3872288D01*
X11639790Y3871415D01*
X11639704Y3870981D01*
X11636990Y3860851D01*
X11636562Y3859590D01*
X11636562Y3859589D01*
X11632550Y3849902D01*
X11632549Y3849900D01*
X11631960Y3848706D01*
X11626717Y3839624D01*
X11625977Y3838516D01*
X11625976Y3838516D01*
X11619592Y3830196D01*
X11618714Y3829195D01*
X11618714Y3829195D01*
X11618714Y3829194D01*
X11611298Y3821779D01*
X11610297Y3820901D01*
X11601976Y3814518D01*
X11600869Y3813778D01*
D01*
X11600868Y3813777D01*
X11591785Y3808535D01*
X11590591Y3807946D01*
X11580901Y3803934D01*
X11580045Y3803644D01*
X11579640Y3803506D01*
X11569509Y3800794D01*
X11568203Y3800534D01*
X11568202D01*
X11557805Y3799168D01*
X11556476Y3799081D01*
D01*
X11556476D01*
X11551233Y3799082D01*
X11545993Y3799082D01*
X11545992D01*
D01*
X11544663Y3799168D01*
X11534267Y3800536D01*
X11534266D01*
X11532960Y3800796D01*
X11522831Y3803510D01*
X11521570Y3803938D01*
X11521566Y3803939D01*
X11511883Y3807950D01*
X11511881Y3807950D01*
X11511487Y3808145D01*
X11510687Y3808539D01*
X11510684Y3808541D01*
X11501605Y3813782D01*
X11500498Y3814522D01*
X11500497Y3814522D01*
X11492178Y3820905D01*
X11491176Y3821784D01*
X11483762Y3829198D01*
Y3829199D01*
X11483761D01*
X11482883Y3830200D01*
X11476500Y3838519D01*
X11476499Y3838519D01*
X11475759Y3839627D01*
X11470516Y3848708D01*
X11469927Y3849903D01*
X11465914Y3859591D01*
X11465486Y3860852D01*
X11465486Y3860853D01*
X11462773Y3870979D01*
X11462772Y3870982D01*
X11462564Y3872028D01*
X11462513Y3872287D01*
Y3872288D01*
X11461145Y3882683D01*
X11461144Y3882685D01*
X11461070Y3883828D01*
X11461057Y3884014D01*
Y3884014D01*
Y3884014D01*
X11461058Y3889243D01*
X11461058Y3889246D01*
X11460823Y4128992D01*
X11460823Y4128997D01*
X11460823Y4129002D01*
X11460867Y4129680D01*
X11460908Y4130321D01*
X11460910Y4130326D01*
X11460910Y4130331D01*
X11461046Y4131014D01*
X11461167Y4131628D01*
X11461169Y4131632D01*
X11461170Y4131637D01*
X11461398Y4132312D01*
X11461594Y4132889D01*
X11461596Y4132893D01*
X11461598Y4132899D01*
X11461889Y4133489D01*
X11462182Y4134084D01*
X11462185Y4134089D01*
X11462187Y4134093D01*
X11462558Y4134648D01*
X11462921Y4135192D01*
X11462923Y4135196D01*
X11462927Y4135201D01*
X11463395Y4135735D01*
X11463798Y4136195D01*
X11463802Y4136198D01*
X11463805Y4136202D01*
X11464317Y4136651D01*
X11464798Y4137074D01*
X11464802Y4137076D01*
X11464806Y4137080D01*
X11465404Y4137480D01*
X11465905Y4137815D01*
X11465909Y4137817D01*
X11465914Y4137820D01*
X11466678Y4138197D01*
X11467099Y4138405D01*
X11467102Y4138406D01*
X11467108Y4138409D01*
X11467939Y4138691D01*
X11468360Y4138834D01*
X11468363Y4138835D01*
X11468369Y4138837D01*
X11469224Y4139007D01*
X11469666Y4139095D01*
X11469669Y4139096D01*
X11469676Y4139097D01*
X11470428Y4139146D01*
X11470995Y4139184D01*
X11471000Y4139184D01*
X11471004Y4139184D01*
X11631005Y4139183D01*
D02*
G37*
G36*
X11377005D02*
X11377666Y4139139D01*
X11378324Y4139097D01*
X11378329Y4139096D01*
X11378334Y4139096D01*
X11378967Y4138970D01*
X11379631Y4138838D01*
X11379635Y4138837D01*
X11379640Y4138836D01*
X11380235Y4138634D01*
X11380892Y4138412D01*
X11380896Y4138409D01*
X11380901Y4138408D01*
X11381494Y4138115D01*
X11382087Y4137823D01*
X11382091Y4137821D01*
X11382096Y4137818D01*
X11382720Y4137401D01*
X11383195Y4137084D01*
X11383198Y4137082D01*
X11383203Y4137079D01*
X11383754Y4136595D01*
X11384197Y4136207D01*
X11384201Y4136204D01*
X11384204Y4136201D01*
X11384646Y4135697D01*
X11385076Y4135207D01*
X11385079Y4135203D01*
X11385082Y4135199D01*
X11385461Y4134633D01*
X11385817Y4134100D01*
X11385820Y4134096D01*
X11385822Y4134092D01*
X11386111Y4133507D01*
X11386408Y4132906D01*
X11386409Y4132902D01*
X11386412Y4132897D01*
X11386632Y4132249D01*
X11386837Y4131646D01*
X11386838Y4131641D01*
X11386840Y4131636D01*
X11386970Y4130982D01*
X11387098Y4130339D01*
X11387098Y4130335D01*
X11387099Y4130330D01*
X11387142Y4129681D01*
X11387187Y4129011D01*
X11387417Y3889266D01*
X11387417Y3889262D01*
X11387417Y3889258D01*
X11387418Y3884015D01*
Y3884014D01*
D01*
X11387331Y3882685D01*
X11385964Y3872288D01*
X11385790Y3871415D01*
X11385704Y3870981D01*
X11382990Y3860851D01*
X11382562Y3859590D01*
X11382562Y3859589D01*
X11378550Y3849902D01*
X11378549Y3849900D01*
X11377960Y3848706D01*
X11372717Y3839624D01*
X11371977Y3838516D01*
X11371976Y3838516D01*
X11365592Y3830196D01*
X11364714Y3829195D01*
X11364714Y3829195D01*
X11364714Y3829194D01*
X11357298Y3821779D01*
X11356297Y3820901D01*
X11347976Y3814518D01*
X11346869Y3813778D01*
D01*
X11346868Y3813777D01*
X11337785Y3808535D01*
X11336591Y3807946D01*
X11326901Y3803934D01*
X11326045Y3803644D01*
X11325640Y3803506D01*
X11315509Y3800794D01*
X11314203Y3800534D01*
X11314202D01*
X11303805Y3799168D01*
X11302476Y3799081D01*
D01*
X11302476D01*
X11297233Y3799082D01*
X11291993Y3799082D01*
X11291992D01*
D01*
X11290663Y3799168D01*
X11280267Y3800536D01*
X11280266D01*
X11278960Y3800796D01*
X11268831Y3803510D01*
X11267570Y3803938D01*
X11267566Y3803939D01*
X11257883Y3807950D01*
X11257881Y3807950D01*
X11257487Y3808145D01*
X11256687Y3808539D01*
X11256684Y3808541D01*
X11247605Y3813782D01*
X11246498Y3814522D01*
X11246497Y3814522D01*
X11238178Y3820905D01*
X11237176Y3821784D01*
X11229762Y3829198D01*
Y3829199D01*
X11229761D01*
X11228883Y3830200D01*
X11222500Y3838519D01*
X11222499Y3838519D01*
X11221759Y3839627D01*
X11216516Y3848708D01*
X11215927Y3849903D01*
X11211914Y3859591D01*
X11211486Y3860852D01*
X11211486Y3860853D01*
X11208773Y3870979D01*
X11208772Y3870982D01*
X11208564Y3872028D01*
X11208513Y3872287D01*
Y3872288D01*
X11207145Y3882683D01*
X11207144Y3882685D01*
X11207070Y3883828D01*
X11207057Y3884014D01*
Y3884014D01*
Y3884014D01*
X11207058Y3889243D01*
X11207058Y3889246D01*
X11206823Y4128992D01*
X11206823Y4128997D01*
X11206823Y4129002D01*
X11206867Y4129680D01*
X11206908Y4130321D01*
X11206910Y4130326D01*
X11206910Y4130331D01*
X11207046Y4131014D01*
X11207167Y4131628D01*
X11207169Y4131632D01*
X11207170Y4131637D01*
X11207398Y4132312D01*
X11207594Y4132889D01*
X11207596Y4132893D01*
X11207598Y4132899D01*
X11207889Y4133489D01*
X11208182Y4134084D01*
X11208185Y4134089D01*
X11208187Y4134093D01*
X11208558Y4134648D01*
X11208921Y4135192D01*
X11208923Y4135196D01*
X11208927Y4135201D01*
X11209395Y4135735D01*
X11209798Y4136195D01*
X11209802Y4136198D01*
X11209805Y4136202D01*
X11210317Y4136651D01*
X11210798Y4137074D01*
X11210802Y4137076D01*
X11210806Y4137080D01*
X11211404Y4137480D01*
X11211905Y4137815D01*
X11211909Y4137817D01*
X11211914Y4137820D01*
X11212678Y4138197D01*
X11213099Y4138405D01*
X11213102Y4138406D01*
X11213108Y4138409D01*
X11213939Y4138691D01*
X11214360Y4138834D01*
X11214363Y4138835D01*
X11214369Y4138837D01*
X11215224Y4139007D01*
X11215666Y4139095D01*
X11215669Y4139096D01*
X11215676Y4139097D01*
X11216428Y4139146D01*
X11216995Y4139184D01*
X11217000Y4139184D01*
X11217004Y4139184D01*
X11377005Y4139183D01*
D02*
G37*
G36*
X11123005D02*
X11123666Y4139139D01*
X11124324Y4139097D01*
X11124329Y4139096D01*
X11124334Y4139096D01*
X11124967Y4138970D01*
X11125631Y4138838D01*
X11125635Y4138837D01*
X11125640Y4138836D01*
X11126235Y4138634D01*
X11126892Y4138412D01*
X11126896Y4138409D01*
X11126901Y4138408D01*
X11127494Y4138115D01*
X11128087Y4137823D01*
X11128091Y4137821D01*
X11128096Y4137818D01*
X11128720Y4137401D01*
X11129195Y4137084D01*
X11129198Y4137082D01*
X11129203Y4137079D01*
X11129754Y4136595D01*
X11130197Y4136207D01*
X11130201Y4136204D01*
X11130204Y4136201D01*
X11130646Y4135697D01*
X11131076Y4135207D01*
X11131079Y4135203D01*
X11131082Y4135199D01*
X11131461Y4134633D01*
X11131817Y4134100D01*
X11131820Y4134096D01*
X11131822Y4134092D01*
X11132111Y4133507D01*
X11132408Y4132906D01*
X11132409Y4132902D01*
X11132412Y4132897D01*
X11132632Y4132249D01*
X11132837Y4131646D01*
X11132838Y4131641D01*
X11132840Y4131636D01*
X11132970Y4130982D01*
X11133098Y4130339D01*
X11133098Y4130335D01*
X11133099Y4130330D01*
X11133142Y4129681D01*
X11133187Y4129011D01*
X11133417Y3889266D01*
X11133417Y3889262D01*
X11133417Y3889258D01*
X11133418Y3884015D01*
Y3884014D01*
D01*
X11133331Y3882685D01*
X11131964Y3872288D01*
X11131790Y3871415D01*
X11131704Y3870981D01*
X11128990Y3860851D01*
X11128562Y3859590D01*
X11128562Y3859589D01*
X11124550Y3849902D01*
X11124549Y3849900D01*
X11123960Y3848706D01*
X11118717Y3839624D01*
X11117977Y3838516D01*
X11117976Y3838516D01*
X11111592Y3830196D01*
X11110714Y3829195D01*
X11110714Y3829195D01*
X11110714Y3829194D01*
X11103298Y3821779D01*
X11102297Y3820901D01*
X11093976Y3814518D01*
X11092869Y3813778D01*
D01*
X11092868Y3813777D01*
X11083785Y3808535D01*
X11082591Y3807946D01*
X11072901Y3803934D01*
X11072045Y3803644D01*
X11071640Y3803506D01*
X11061509Y3800794D01*
X11060203Y3800534D01*
X11060202D01*
X11049805Y3799168D01*
X11048476Y3799081D01*
D01*
X11048476D01*
X11043233Y3799082D01*
X11037993Y3799082D01*
X11037992D01*
D01*
X11036663Y3799168D01*
X11026267Y3800536D01*
X11026266D01*
X11024960Y3800796D01*
X11014831Y3803510D01*
X11013570Y3803938D01*
X11013566Y3803939D01*
X11003883Y3807950D01*
X11003881Y3807950D01*
X11003487Y3808145D01*
X11002687Y3808539D01*
X11002684Y3808541D01*
X10993605Y3813782D01*
X10992498Y3814522D01*
X10992497Y3814522D01*
X10984178Y3820905D01*
X10983176Y3821784D01*
X10975762Y3829198D01*
Y3829199D01*
X10975761D01*
X10974883Y3830200D01*
X10968500Y3838519D01*
X10968499Y3838519D01*
X10967759Y3839627D01*
X10962516Y3848708D01*
X10961927Y3849903D01*
X10957914Y3859591D01*
X10957486Y3860852D01*
X10957486Y3860853D01*
X10954773Y3870979D01*
X10954772Y3870982D01*
X10954564Y3872028D01*
X10954513Y3872287D01*
Y3872288D01*
X10953145Y3882683D01*
X10953144Y3882685D01*
X10953070Y3883828D01*
X10953057Y3884014D01*
Y3884014D01*
Y3884014D01*
X10953058Y3889243D01*
X10953058Y3889246D01*
X10952823Y4128992D01*
X10952823Y4128997D01*
X10952823Y4129002D01*
X10952867Y4129680D01*
X10952908Y4130321D01*
X10952910Y4130326D01*
X10952910Y4130331D01*
X10953046Y4131014D01*
X10953167Y4131628D01*
X10953169Y4131632D01*
X10953170Y4131637D01*
X10953398Y4132312D01*
X10953594Y4132889D01*
X10953596Y4132893D01*
X10953598Y4132899D01*
X10953889Y4133489D01*
X10954182Y4134084D01*
X10954185Y4134089D01*
X10954187Y4134093D01*
X10954558Y4134648D01*
X10954921Y4135192D01*
X10954923Y4135196D01*
X10954927Y4135201D01*
X10955395Y4135735D01*
X10955798Y4136195D01*
X10955802Y4136198D01*
X10955805Y4136202D01*
X10956317Y4136651D01*
X10956798Y4137074D01*
X10956802Y4137076D01*
X10956806Y4137080D01*
X10957404Y4137480D01*
X10957905Y4137815D01*
X10957909Y4137817D01*
X10957914Y4137820D01*
X10958678Y4138197D01*
X10959099Y4138405D01*
X10959102Y4138406D01*
X10959108Y4138409D01*
X10959939Y4138691D01*
X10960360Y4138834D01*
X10960363Y4138835D01*
X10960369Y4138837D01*
X10961224Y4139007D01*
X10961666Y4139095D01*
X10961669Y4139096D01*
X10961676Y4139097D01*
X10962428Y4139146D01*
X10962995Y4139184D01*
X10963000Y4139184D01*
X10963004Y4139184D01*
X11123005Y4139183D01*
D02*
G37*
G36*
X10869005D02*
X10869666Y4139139D01*
X10870324Y4139097D01*
X10870329Y4139096D01*
X10870334Y4139096D01*
X10870967Y4138970D01*
X10871631Y4138838D01*
X10871635Y4138837D01*
X10871640Y4138836D01*
X10872235Y4138634D01*
X10872892Y4138412D01*
X10872896Y4138409D01*
X10872901Y4138408D01*
X10873494Y4138115D01*
X10874087Y4137823D01*
X10874091Y4137821D01*
X10874096Y4137818D01*
X10874720Y4137401D01*
X10875195Y4137084D01*
X10875198Y4137082D01*
X10875203Y4137079D01*
X10875754Y4136595D01*
X10876197Y4136207D01*
X10876201Y4136204D01*
X10876204Y4136201D01*
X10876646Y4135697D01*
X10877076Y4135207D01*
X10877079Y4135203D01*
X10877082Y4135199D01*
X10877461Y4134633D01*
X10877817Y4134100D01*
X10877820Y4134096D01*
X10877822Y4134092D01*
X10878111Y4133507D01*
X10878408Y4132906D01*
X10878409Y4132902D01*
X10878412Y4132897D01*
X10878632Y4132249D01*
X10878837Y4131646D01*
X10878838Y4131641D01*
X10878840Y4131636D01*
X10878970Y4130982D01*
X10879098Y4130339D01*
X10879098Y4130335D01*
X10879099Y4130330D01*
X10879142Y4129681D01*
X10879187Y4129011D01*
X10879417Y3889266D01*
X10879417Y3889262D01*
X10879417Y3889258D01*
X10879418Y3884015D01*
Y3884014D01*
D01*
X10879331Y3882685D01*
X10877964Y3872288D01*
X10877790Y3871415D01*
X10877704Y3870981D01*
X10874990Y3860851D01*
X10874562Y3859590D01*
X10874562Y3859589D01*
X10870550Y3849902D01*
X10870549Y3849900D01*
X10869960Y3848706D01*
X10864717Y3839624D01*
X10863977Y3838516D01*
X10863976Y3838516D01*
X10857592Y3830196D01*
X10856714Y3829195D01*
X10856714Y3829195D01*
X10856714Y3829194D01*
X10849298Y3821779D01*
X10848297Y3820901D01*
X10839976Y3814518D01*
X10838869Y3813778D01*
D01*
X10838868Y3813777D01*
X10829785Y3808535D01*
X10828591Y3807946D01*
X10818901Y3803934D01*
X10818045Y3803644D01*
X10817640Y3803506D01*
X10807509Y3800794D01*
X10806203Y3800534D01*
X10806202D01*
X10795805Y3799168D01*
X10794476Y3799081D01*
D01*
X10794476D01*
X10789233Y3799082D01*
X10783993Y3799082D01*
X10783992D01*
D01*
X10782663Y3799168D01*
X10772267Y3800536D01*
X10772266D01*
X10770960Y3800796D01*
X10760831Y3803510D01*
X10759570Y3803938D01*
X10759566Y3803939D01*
X10749883Y3807950D01*
X10749881Y3807950D01*
X10749487Y3808145D01*
X10748687Y3808539D01*
X10748684Y3808541D01*
X10739605Y3813782D01*
X10738498Y3814522D01*
X10738497Y3814522D01*
X10730178Y3820905D01*
X10729176Y3821784D01*
X10721762Y3829198D01*
Y3829199D01*
X10721761D01*
X10720883Y3830200D01*
X10714500Y3838519D01*
X10714499Y3838519D01*
X10713759Y3839627D01*
X10708516Y3848708D01*
X10707927Y3849903D01*
X10703914Y3859591D01*
X10703486Y3860852D01*
X10703486Y3860853D01*
X10700773Y3870979D01*
X10700772Y3870982D01*
X10700564Y3872028D01*
X10700513Y3872287D01*
Y3872288D01*
X10699145Y3882683D01*
X10699144Y3882685D01*
X10699070Y3883828D01*
X10699057Y3884014D01*
Y3884014D01*
Y3884014D01*
X10699058Y3889243D01*
X10699058Y3889246D01*
X10698823Y4128992D01*
X10698823Y4128997D01*
X10698823Y4129002D01*
X10698867Y4129680D01*
X10698908Y4130321D01*
X10698910Y4130326D01*
X10698910Y4130331D01*
X10699046Y4131014D01*
X10699167Y4131628D01*
X10699169Y4131632D01*
X10699170Y4131637D01*
X10699398Y4132312D01*
X10699594Y4132889D01*
X10699596Y4132893D01*
X10699598Y4132899D01*
X10699889Y4133489D01*
X10700182Y4134084D01*
X10700185Y4134089D01*
X10700187Y4134093D01*
X10700558Y4134648D01*
X10700921Y4135192D01*
X10700923Y4135196D01*
X10700927Y4135201D01*
X10701395Y4135735D01*
X10701798Y4136195D01*
X10701802Y4136198D01*
X10701805Y4136202D01*
X10702317Y4136651D01*
X10702798Y4137074D01*
X10702802Y4137076D01*
X10702806Y4137080D01*
X10703404Y4137480D01*
X10703905Y4137815D01*
X10703909Y4137817D01*
X10703914Y4137820D01*
X10704678Y4138197D01*
X10705099Y4138405D01*
X10705102Y4138406D01*
X10705108Y4138409D01*
X10705939Y4138691D01*
X10706360Y4138834D01*
X10706363Y4138835D01*
X10706369Y4138837D01*
X10707224Y4139007D01*
X10707666Y4139095D01*
X10707669Y4139096D01*
X10707676Y4139097D01*
X10708428Y4139146D01*
X10708995Y4139184D01*
X10709000Y4139184D01*
X10709004Y4139184D01*
X10869005Y4139183D01*
D02*
G37*
G36*
X10615005D02*
X10615666Y4139139D01*
X10616324Y4139097D01*
X10616329Y4139096D01*
X10616334Y4139096D01*
X10616967Y4138970D01*
X10617631Y4138838D01*
X10617635Y4138837D01*
X10617640Y4138836D01*
X10618235Y4138634D01*
X10618892Y4138412D01*
X10618896Y4138409D01*
X10618901Y4138408D01*
X10619494Y4138115D01*
X10620087Y4137823D01*
X10620091Y4137821D01*
X10620096Y4137818D01*
X10620720Y4137401D01*
X10621195Y4137084D01*
X10621198Y4137082D01*
X10621203Y4137079D01*
X10621754Y4136595D01*
X10622197Y4136207D01*
X10622201Y4136204D01*
X10622204Y4136201D01*
X10622646Y4135697D01*
X10623076Y4135207D01*
X10623079Y4135203D01*
X10623082Y4135199D01*
X10623461Y4134633D01*
X10623817Y4134100D01*
X10623820Y4134096D01*
X10623822Y4134092D01*
X10624111Y4133507D01*
X10624408Y4132906D01*
X10624409Y4132902D01*
X10624412Y4132897D01*
X10624632Y4132249D01*
X10624837Y4131646D01*
X10624838Y4131641D01*
X10624840Y4131636D01*
X10624970Y4130982D01*
X10625098Y4130339D01*
X10625098Y4130335D01*
X10625099Y4130330D01*
X10625142Y4129681D01*
X10625187Y4129011D01*
X10625417Y3889266D01*
X10625417Y3889262D01*
X10625417Y3889258D01*
X10625418Y3884015D01*
Y3884014D01*
D01*
X10625331Y3882685D01*
X10623964Y3872288D01*
X10623790Y3871415D01*
X10623704Y3870981D01*
X10620990Y3860851D01*
X10620562Y3859590D01*
X10620562Y3859589D01*
X10616550Y3849902D01*
X10616549Y3849900D01*
X10615960Y3848706D01*
X10610717Y3839624D01*
X10609977Y3838516D01*
X10609976Y3838516D01*
X10603592Y3830196D01*
X10602714Y3829195D01*
X10602714Y3829195D01*
X10602714Y3829194D01*
X10595298Y3821779D01*
X10594297Y3820901D01*
X10585976Y3814518D01*
X10584869Y3813778D01*
D01*
X10584868Y3813777D01*
X10575785Y3808535D01*
X10574591Y3807946D01*
X10564901Y3803934D01*
X10564045Y3803644D01*
X10563640Y3803506D01*
X10553509Y3800794D01*
X10552203Y3800534D01*
X10552202D01*
X10541805Y3799168D01*
X10540476Y3799081D01*
D01*
X10540476D01*
X10535233Y3799082D01*
X10529993Y3799082D01*
X10529992D01*
D01*
X10528663Y3799168D01*
X10518267Y3800536D01*
X10518266D01*
X10516960Y3800796D01*
X10506831Y3803510D01*
X10505570Y3803938D01*
X10505566Y3803939D01*
X10495883Y3807950D01*
X10495881Y3807950D01*
X10495487Y3808145D01*
X10494687Y3808539D01*
X10494684Y3808541D01*
X10485605Y3813782D01*
X10484498Y3814522D01*
X10484497Y3814522D01*
X10476178Y3820905D01*
X10475176Y3821784D01*
X10467762Y3829198D01*
Y3829199D01*
X10467761D01*
X10466883Y3830200D01*
X10460500Y3838519D01*
X10460499Y3838519D01*
X10459759Y3839627D01*
X10454516Y3848708D01*
X10453927Y3849903D01*
X10449914Y3859591D01*
X10449486Y3860852D01*
X10449486Y3860853D01*
X10446773Y3870979D01*
X10446772Y3870982D01*
X10446564Y3872028D01*
X10446513Y3872287D01*
Y3872288D01*
X10445145Y3882683D01*
X10445144Y3882685D01*
X10445070Y3883828D01*
X10445057Y3884014D01*
Y3884014D01*
Y3884014D01*
X10445058Y3889243D01*
X10445058Y3889246D01*
X10444823Y4128992D01*
X10444823Y4128997D01*
X10444823Y4129002D01*
X10444867Y4129680D01*
X10444908Y4130321D01*
X10444910Y4130326D01*
X10444910Y4130331D01*
X10445046Y4131014D01*
X10445167Y4131628D01*
X10445169Y4131632D01*
X10445170Y4131637D01*
X10445398Y4132312D01*
X10445594Y4132889D01*
X10445596Y4132893D01*
X10445598Y4132899D01*
X10445889Y4133489D01*
X10446182Y4134084D01*
X10446185Y4134089D01*
X10446187Y4134093D01*
X10446558Y4134648D01*
X10446921Y4135192D01*
X10446923Y4135196D01*
X10446927Y4135201D01*
X10447395Y4135735D01*
X10447798Y4136195D01*
X10447802Y4136198D01*
X10447805Y4136202D01*
X10448317Y4136651D01*
X10448798Y4137074D01*
X10448802Y4137076D01*
X10448806Y4137080D01*
X10449404Y4137480D01*
X10449905Y4137815D01*
X10449909Y4137817D01*
X10449914Y4137820D01*
X10450678Y4138197D01*
X10451099Y4138405D01*
X10451102Y4138406D01*
X10451108Y4138409D01*
X10451939Y4138691D01*
X10452360Y4138834D01*
X10452363Y4138835D01*
X10452369Y4138837D01*
X10453224Y4139007D01*
X10453666Y4139095D01*
X10453669Y4139096D01*
X10453676Y4139097D01*
X10454428Y4139146D01*
X10454995Y4139184D01*
X10455000Y4139184D01*
X10455004Y4139184D01*
X10615005Y4139183D01*
D02*
G37*
G36*
X10361005D02*
X10361666Y4139139D01*
X10362324Y4139097D01*
X10362329Y4139096D01*
X10362334Y4139096D01*
X10362967Y4138970D01*
X10363631Y4138838D01*
X10363635Y4138837D01*
X10363640Y4138836D01*
X10364235Y4138634D01*
X10364892Y4138412D01*
X10364896Y4138409D01*
X10364901Y4138408D01*
X10365494Y4138115D01*
X10366087Y4137823D01*
X10366091Y4137821D01*
X10366096Y4137818D01*
X10366720Y4137401D01*
X10367195Y4137084D01*
X10367198Y4137082D01*
X10367203Y4137079D01*
X10367754Y4136595D01*
X10368197Y4136207D01*
X10368201Y4136204D01*
X10368204Y4136201D01*
X10368646Y4135697D01*
X10369076Y4135207D01*
X10369079Y4135203D01*
X10369082Y4135199D01*
X10369461Y4134633D01*
X10369817Y4134100D01*
X10369820Y4134096D01*
X10369822Y4134092D01*
X10370111Y4133507D01*
X10370408Y4132906D01*
X10370409Y4132902D01*
X10370412Y4132897D01*
X10370632Y4132249D01*
X10370837Y4131646D01*
X10370838Y4131641D01*
X10370840Y4131636D01*
X10370970Y4130982D01*
X10371098Y4130339D01*
X10371098Y4130335D01*
X10371099Y4130330D01*
X10371142Y4129681D01*
X10371187Y4129011D01*
X10371417Y3889266D01*
X10371417Y3889262D01*
X10371417Y3889258D01*
X10371418Y3884015D01*
Y3884014D01*
D01*
X10371331Y3882685D01*
X10369964Y3872288D01*
X10369790Y3871415D01*
X10369704Y3870981D01*
X10366990Y3860851D01*
X10366562Y3859590D01*
X10366562Y3859589D01*
X10362550Y3849902D01*
X10362549Y3849900D01*
X10361960Y3848706D01*
X10356717Y3839624D01*
X10355977Y3838516D01*
X10355976Y3838516D01*
X10349592Y3830196D01*
X10348714Y3829195D01*
X10348714Y3829195D01*
X10348714Y3829194D01*
X10341298Y3821779D01*
X10340297Y3820901D01*
X10331976Y3814518D01*
X10330869Y3813778D01*
D01*
X10330868Y3813777D01*
X10321785Y3808535D01*
X10320591Y3807946D01*
X10310901Y3803934D01*
X10310045Y3803644D01*
X10309640Y3803506D01*
X10299509Y3800794D01*
X10298203Y3800534D01*
X10298202D01*
X10287805Y3799168D01*
X10286476Y3799081D01*
D01*
X10286476D01*
X10281233Y3799082D01*
X10275993Y3799082D01*
X10275992D01*
D01*
X10274663Y3799168D01*
X10264267Y3800536D01*
X10264266D01*
X10262960Y3800796D01*
X10252831Y3803510D01*
X10251570Y3803938D01*
X10251566Y3803939D01*
X10241883Y3807950D01*
X10241881Y3807950D01*
X10241487Y3808145D01*
X10240687Y3808539D01*
X10240684Y3808541D01*
X10231605Y3813782D01*
X10230498Y3814522D01*
X10230497Y3814522D01*
X10222178Y3820905D01*
X10221176Y3821784D01*
X10213762Y3829198D01*
Y3829199D01*
X10213761D01*
X10212883Y3830200D01*
X10206500Y3838519D01*
X10206499Y3838519D01*
X10205759Y3839627D01*
X10200516Y3848708D01*
X10199927Y3849903D01*
X10195914Y3859591D01*
X10195486Y3860852D01*
X10195486Y3860853D01*
X10192773Y3870979D01*
X10192772Y3870982D01*
X10192564Y3872028D01*
X10192513Y3872287D01*
Y3872288D01*
X10191145Y3882683D01*
X10191144Y3882685D01*
X10191070Y3883828D01*
X10191057Y3884014D01*
Y3884014D01*
Y3884014D01*
X10191058Y3889243D01*
X10191058Y3889246D01*
X10190823Y4128992D01*
X10190823Y4128997D01*
X10190823Y4129002D01*
X10190867Y4129680D01*
X10190908Y4130321D01*
X10190910Y4130326D01*
X10190910Y4130331D01*
X10191046Y4131014D01*
X10191167Y4131628D01*
X10191169Y4131632D01*
X10191170Y4131637D01*
X10191398Y4132312D01*
X10191594Y4132889D01*
X10191596Y4132893D01*
X10191598Y4132899D01*
X10191889Y4133489D01*
X10192182Y4134084D01*
X10192185Y4134089D01*
X10192187Y4134093D01*
X10192558Y4134648D01*
X10192921Y4135192D01*
X10192923Y4135196D01*
X10192927Y4135201D01*
X10193395Y4135735D01*
X10193798Y4136195D01*
X10193802Y4136198D01*
X10193805Y4136202D01*
X10194317Y4136651D01*
X10194798Y4137074D01*
X10194802Y4137076D01*
X10194806Y4137080D01*
X10195404Y4137480D01*
X10195905Y4137815D01*
X10195909Y4137817D01*
X10195914Y4137820D01*
X10196678Y4138197D01*
X10197099Y4138405D01*
X10197102Y4138406D01*
X10197108Y4138409D01*
X10197939Y4138691D01*
X10198360Y4138834D01*
X10198363Y4138835D01*
X10198369Y4138837D01*
X10199224Y4139007D01*
X10199666Y4139095D01*
X10199669Y4139096D01*
X10199676Y4139097D01*
X10200428Y4139146D01*
X10200995Y4139184D01*
X10201000Y4139184D01*
X10201004Y4139184D01*
X10361005Y4139183D01*
D02*
G37*
G36*
X10107005D02*
X10107666Y4139139D01*
X10108324Y4139097D01*
X10108329Y4139096D01*
X10108334Y4139096D01*
X10108967Y4138970D01*
X10109631Y4138838D01*
X10109635Y4138837D01*
X10109640Y4138836D01*
X10110235Y4138634D01*
X10110892Y4138412D01*
X10110896Y4138409D01*
X10110901Y4138408D01*
X10111494Y4138115D01*
X10112087Y4137823D01*
X10112091Y4137821D01*
X10112096Y4137818D01*
X10112720Y4137401D01*
X10113195Y4137084D01*
X10113198Y4137082D01*
X10113203Y4137079D01*
X10113754Y4136595D01*
X10114197Y4136207D01*
X10114201Y4136204D01*
X10114204Y4136201D01*
X10114646Y4135697D01*
X10115076Y4135207D01*
X10115079Y4135203D01*
X10115082Y4135199D01*
X10115461Y4134633D01*
X10115817Y4134100D01*
X10115820Y4134096D01*
X10115822Y4134092D01*
X10116111Y4133507D01*
X10116408Y4132906D01*
X10116409Y4132902D01*
X10116412Y4132897D01*
X10116632Y4132249D01*
X10116837Y4131646D01*
X10116838Y4131641D01*
X10116840Y4131636D01*
X10116970Y4130982D01*
X10117098Y4130339D01*
X10117098Y4130335D01*
X10117099Y4130330D01*
X10117142Y4129681D01*
X10117187Y4129011D01*
X10117417Y3889266D01*
X10117417Y3889262D01*
X10117417Y3889258D01*
X10117418Y3884015D01*
Y3884014D01*
D01*
X10117331Y3882685D01*
X10115964Y3872288D01*
X10115790Y3871415D01*
X10115704Y3870981D01*
X10112990Y3860851D01*
X10112562Y3859590D01*
X10112562Y3859589D01*
X10108550Y3849902D01*
X10108549Y3849900D01*
X10107960Y3848706D01*
X10102717Y3839624D01*
X10101977Y3838516D01*
X10101976Y3838516D01*
X10095592Y3830196D01*
X10094714Y3829195D01*
X10094714Y3829195D01*
X10094714Y3829194D01*
X10087298Y3821779D01*
X10086297Y3820901D01*
X10077976Y3814518D01*
X10076869Y3813778D01*
D01*
X10076868Y3813777D01*
X10067785Y3808535D01*
X10066591Y3807946D01*
X10056901Y3803934D01*
X10056045Y3803644D01*
X10055640Y3803506D01*
X10045510Y3800794D01*
X10044203Y3800534D01*
X10044202D01*
X10033805Y3799168D01*
X10032476Y3799081D01*
D01*
X10032476D01*
X10027233Y3799082D01*
X10021993Y3799082D01*
X10021992D01*
D01*
X10020663Y3799168D01*
X10010267Y3800536D01*
X10010266D01*
X10008960Y3800796D01*
X9998831Y3803510D01*
X9997570Y3803938D01*
X9997566Y3803939D01*
X9987883Y3807950D01*
X9987881Y3807950D01*
X9987487Y3808145D01*
X9986687Y3808539D01*
X9986684Y3808541D01*
X9977605Y3813782D01*
X9976498Y3814522D01*
X9976497Y3814522D01*
X9968178Y3820905D01*
X9967176Y3821784D01*
X9959762Y3829198D01*
Y3829199D01*
X9959761D01*
X9958883Y3830200D01*
X9952500Y3838519D01*
X9952499Y3838519D01*
X9951759Y3839627D01*
X9946516Y3848708D01*
X9945927Y3849903D01*
X9941914Y3859591D01*
X9941486Y3860852D01*
X9941486Y3860853D01*
X9938773Y3870979D01*
X9938772Y3870982D01*
X9938564Y3872028D01*
X9938513Y3872287D01*
Y3872288D01*
X9937145Y3882683D01*
X9937144Y3882685D01*
X9937070Y3883828D01*
X9937057Y3884014D01*
Y3884014D01*
Y3884014D01*
X9937058Y3889243D01*
X9937058Y3889246D01*
X9936823Y4128992D01*
X9936823Y4128997D01*
X9936823Y4129002D01*
X9936867Y4129680D01*
X9936908Y4130321D01*
X9936910Y4130326D01*
X9936910Y4130331D01*
X9937046Y4131014D01*
X9937167Y4131628D01*
X9937169Y4131632D01*
X9937170Y4131637D01*
X9937398Y4132312D01*
X9937594Y4132889D01*
X9937596Y4132893D01*
X9937598Y4132899D01*
X9937889Y4133489D01*
X9938182Y4134084D01*
X9938185Y4134089D01*
X9938187Y4134093D01*
X9938558Y4134648D01*
X9938921Y4135192D01*
X9938923Y4135196D01*
X9938927Y4135201D01*
X9939395Y4135735D01*
X9939798Y4136195D01*
X9939802Y4136198D01*
X9939805Y4136202D01*
X9940317Y4136651D01*
X9940798Y4137074D01*
X9940802Y4137076D01*
X9940806Y4137080D01*
X9941404Y4137480D01*
X9941905Y4137815D01*
X9941909Y4137817D01*
X9941914Y4137820D01*
X9942678Y4138197D01*
X9943099Y4138405D01*
X9943102Y4138406D01*
X9943108Y4138409D01*
X9943939Y4138691D01*
X9944360Y4138834D01*
X9944363Y4138835D01*
X9944369Y4138837D01*
X9945224Y4139007D01*
X9945666Y4139095D01*
X9945669Y4139096D01*
X9945676Y4139097D01*
X9946428Y4139146D01*
X9946995Y4139184D01*
X9947000Y4139184D01*
X9947004Y4139184D01*
X10107005Y4139183D01*
D02*
G37*
G36*
X9853005D02*
X9853666Y4139139D01*
X9854324Y4139097D01*
X9854329Y4139096D01*
X9854334Y4139096D01*
X9854967Y4138970D01*
X9855631Y4138838D01*
X9855635Y4138837D01*
X9855640Y4138836D01*
X9856235Y4138634D01*
X9856892Y4138412D01*
X9856896Y4138409D01*
X9856901Y4138408D01*
X9857494Y4138115D01*
X9858087Y4137823D01*
X9858091Y4137821D01*
X9858096Y4137818D01*
X9858720Y4137401D01*
X9859195Y4137084D01*
X9859198Y4137082D01*
X9859203Y4137079D01*
X9859754Y4136595D01*
X9860197Y4136207D01*
X9860201Y4136204D01*
X9860204Y4136201D01*
X9860646Y4135697D01*
X9861076Y4135207D01*
X9861079Y4135203D01*
X9861082Y4135199D01*
X9861461Y4134633D01*
X9861817Y4134100D01*
X9861820Y4134096D01*
X9861822Y4134092D01*
X9862111Y4133507D01*
X9862408Y4132906D01*
X9862409Y4132902D01*
X9862412Y4132897D01*
X9862632Y4132249D01*
X9862837Y4131646D01*
X9862838Y4131641D01*
X9862840Y4131636D01*
X9862970Y4130982D01*
X9863098Y4130339D01*
X9863098Y4130335D01*
X9863099Y4130330D01*
X9863142Y4129681D01*
X9863187Y4129011D01*
X9863417Y3889266D01*
X9863417Y3889262D01*
X9863417Y3889258D01*
X9863418Y3884015D01*
Y3884014D01*
D01*
X9863331Y3882685D01*
X9861964Y3872288D01*
X9861790Y3871415D01*
X9861704Y3870981D01*
X9858990Y3860851D01*
X9858562Y3859590D01*
X9858562Y3859589D01*
X9854550Y3849902D01*
X9854549Y3849900D01*
X9853960Y3848706D01*
X9848717Y3839624D01*
X9847977Y3838516D01*
X9847976Y3838516D01*
X9841592Y3830196D01*
X9840714Y3829195D01*
X9840714Y3829195D01*
X9840714Y3829194D01*
X9833298Y3821779D01*
X9832297Y3820901D01*
X9823976Y3814518D01*
X9822869Y3813778D01*
D01*
X9822868Y3813777D01*
X9813785Y3808535D01*
X9812591Y3807946D01*
X9802901Y3803934D01*
X9802045Y3803644D01*
X9801640Y3803506D01*
X9791509Y3800794D01*
X9790203Y3800534D01*
X9790202D01*
X9779805Y3799168D01*
X9778476Y3799081D01*
D01*
X9778476D01*
X9773233Y3799082D01*
X9767993Y3799082D01*
X9767992D01*
D01*
X9766663Y3799168D01*
X9756267Y3800536D01*
X9756266D01*
X9754960Y3800796D01*
X9744831Y3803510D01*
X9743570Y3803938D01*
X9743566Y3803939D01*
X9733883Y3807950D01*
X9733881Y3807950D01*
X9733487Y3808145D01*
X9732687Y3808539D01*
X9732684Y3808541D01*
X9723605Y3813782D01*
X9722498Y3814522D01*
X9722497Y3814522D01*
X9714178Y3820905D01*
X9713176Y3821784D01*
X9705762Y3829198D01*
Y3829199D01*
X9705761D01*
X9704883Y3830200D01*
X9698500Y3838519D01*
X9698499Y3838519D01*
X9697759Y3839627D01*
X9692516Y3848708D01*
X9691927Y3849903D01*
X9687914Y3859591D01*
X9687486Y3860852D01*
X9687486Y3860853D01*
X9684773Y3870979D01*
X9684772Y3870982D01*
X9684564Y3872028D01*
X9684513Y3872287D01*
Y3872288D01*
X9683145Y3882683D01*
X9683144Y3882685D01*
X9683070Y3883828D01*
X9683057Y3884014D01*
Y3884014D01*
Y3884014D01*
X9683058Y3889243D01*
X9683058Y3889246D01*
X9682823Y4128992D01*
X9682823Y4128997D01*
X9682823Y4129002D01*
X9682867Y4129680D01*
X9682908Y4130321D01*
X9682910Y4130326D01*
X9682910Y4130331D01*
X9683046Y4131014D01*
X9683167Y4131628D01*
X9683169Y4131632D01*
X9683170Y4131637D01*
X9683398Y4132312D01*
X9683594Y4132889D01*
X9683596Y4132893D01*
X9683598Y4132899D01*
X9683889Y4133489D01*
X9684182Y4134084D01*
X9684185Y4134089D01*
X9684187Y4134093D01*
X9684558Y4134648D01*
X9684921Y4135192D01*
X9684923Y4135196D01*
X9684927Y4135201D01*
X9685395Y4135735D01*
X9685798Y4136195D01*
X9685802Y4136198D01*
X9685805Y4136202D01*
X9686317Y4136651D01*
X9686798Y4137074D01*
X9686802Y4137076D01*
X9686806Y4137080D01*
X9687404Y4137480D01*
X9687905Y4137815D01*
X9687909Y4137817D01*
X9687914Y4137820D01*
X9688678Y4138197D01*
X9689099Y4138405D01*
X9689102Y4138406D01*
X9689108Y4138409D01*
X9689939Y4138691D01*
X9690360Y4138834D01*
X9690363Y4138835D01*
X9690369Y4138837D01*
X9691224Y4139007D01*
X9691666Y4139095D01*
X9691669Y4139096D01*
X9691676Y4139097D01*
X9692428Y4139146D01*
X9692995Y4139184D01*
X9693000Y4139184D01*
X9693004Y4139184D01*
X9853005Y4139183D01*
D02*
G37*
G36*
X9599005D02*
X9599666Y4139139D01*
X9600324Y4139097D01*
X9600329Y4139096D01*
X9600334Y4139096D01*
X9600967Y4138970D01*
X9601631Y4138838D01*
X9601635Y4138837D01*
X9601640Y4138836D01*
X9602235Y4138634D01*
X9602892Y4138412D01*
X9602896Y4138409D01*
X9602901Y4138408D01*
X9603494Y4138115D01*
X9604087Y4137823D01*
X9604091Y4137821D01*
X9604096Y4137818D01*
X9604720Y4137401D01*
X9605195Y4137084D01*
X9605198Y4137082D01*
X9605203Y4137079D01*
X9605754Y4136595D01*
X9606197Y4136207D01*
X9606201Y4136204D01*
X9606204Y4136201D01*
X9606646Y4135697D01*
X9607076Y4135207D01*
X9607079Y4135203D01*
X9607082Y4135199D01*
X9607461Y4134633D01*
X9607817Y4134100D01*
X9607820Y4134096D01*
X9607822Y4134092D01*
X9608111Y4133507D01*
X9608408Y4132906D01*
X9608409Y4132902D01*
X9608412Y4132897D01*
X9608632Y4132249D01*
X9608837Y4131646D01*
X9608838Y4131641D01*
X9608840Y4131636D01*
X9608970Y4130982D01*
X9609098Y4130339D01*
X9609098Y4130335D01*
X9609099Y4130330D01*
X9609142Y4129681D01*
X9609187Y4129011D01*
X9609417Y3889266D01*
X9609417Y3889262D01*
X9609417Y3889258D01*
X9609418Y3884015D01*
Y3884014D01*
D01*
X9609331Y3882685D01*
X9607964Y3872288D01*
X9607790Y3871415D01*
X9607704Y3870981D01*
X9604990Y3860851D01*
X9604562Y3859590D01*
X9604562Y3859589D01*
X9600550Y3849902D01*
X9600549Y3849900D01*
X9599960Y3848706D01*
X9594717Y3839624D01*
X9593977Y3838516D01*
X9593976Y3838516D01*
X9587592Y3830196D01*
X9586714Y3829195D01*
X9586714Y3829195D01*
X9586714Y3829194D01*
X9579298Y3821779D01*
X9578297Y3820901D01*
X9569976Y3814518D01*
X9568869Y3813778D01*
D01*
X9568868Y3813777D01*
X9559785Y3808535D01*
X9558591Y3807946D01*
X9548901Y3803934D01*
X9548045Y3803644D01*
X9547640Y3803506D01*
X9537510Y3800794D01*
X9536203Y3800534D01*
X9536202D01*
X9525805Y3799168D01*
X9524476Y3799081D01*
D01*
X9524476D01*
X9519233Y3799082D01*
X9513993Y3799082D01*
X9513992D01*
D01*
X9512663Y3799168D01*
X9502267Y3800536D01*
X9502266D01*
X9500960Y3800796D01*
X9490831Y3803510D01*
X9489570Y3803938D01*
X9489566Y3803939D01*
X9479883Y3807950D01*
X9479881Y3807950D01*
X9479487Y3808145D01*
X9478687Y3808539D01*
X9478684Y3808541D01*
X9469605Y3813782D01*
X9468498Y3814522D01*
X9468497Y3814522D01*
X9460178Y3820905D01*
X9459176Y3821784D01*
X9451762Y3829198D01*
Y3829199D01*
X9451761D01*
X9450883Y3830200D01*
X9444500Y3838519D01*
X9444499Y3838519D01*
X9443759Y3839627D01*
X9438516Y3848708D01*
X9437927Y3849903D01*
X9433914Y3859591D01*
X9433486Y3860852D01*
X9433486Y3860853D01*
X9430773Y3870979D01*
X9430772Y3870982D01*
X9430564Y3872028D01*
X9430513Y3872287D01*
Y3872288D01*
X9429145Y3882683D01*
X9429144Y3882685D01*
X9429070Y3883828D01*
X9429057Y3884014D01*
Y3884014D01*
Y3884014D01*
X9429058Y3889243D01*
X9429058Y3889246D01*
X9428823Y4128992D01*
X9428823Y4128997D01*
X9428823Y4129002D01*
X9428867Y4129680D01*
X9428908Y4130321D01*
X9428910Y4130326D01*
X9428910Y4130331D01*
X9429046Y4131014D01*
X9429167Y4131628D01*
X9429169Y4131632D01*
X9429170Y4131637D01*
X9429398Y4132312D01*
X9429594Y4132889D01*
X9429596Y4132893D01*
X9429598Y4132899D01*
X9429889Y4133489D01*
X9430182Y4134084D01*
X9430185Y4134089D01*
X9430187Y4134093D01*
X9430558Y4134648D01*
X9430921Y4135192D01*
X9430923Y4135196D01*
X9430927Y4135201D01*
X9431395Y4135735D01*
X9431798Y4136195D01*
X9431802Y4136198D01*
X9431805Y4136202D01*
X9432317Y4136651D01*
X9432798Y4137074D01*
X9432802Y4137076D01*
X9432806Y4137080D01*
X9433404Y4137480D01*
X9433905Y4137815D01*
X9433909Y4137817D01*
X9433914Y4137820D01*
X9434678Y4138197D01*
X9435099Y4138405D01*
X9435102Y4138406D01*
X9435108Y4138409D01*
X9435939Y4138691D01*
X9436360Y4138834D01*
X9436363Y4138835D01*
X9436369Y4138837D01*
X9437224Y4139007D01*
X9437666Y4139095D01*
X9437669Y4139096D01*
X9437676Y4139097D01*
X9438428Y4139146D01*
X9438995Y4139184D01*
X9439000Y4139184D01*
X9439004Y4139184D01*
X9599005Y4139183D01*
D02*
G37*
G36*
X9345005D02*
X9345666Y4139139D01*
X9346324Y4139097D01*
X9346329Y4139096D01*
X9346334Y4139096D01*
X9346967Y4138970D01*
X9347631Y4138838D01*
X9347635Y4138837D01*
X9347640Y4138836D01*
X9348235Y4138634D01*
X9348892Y4138412D01*
X9348896Y4138409D01*
X9348901Y4138408D01*
X9349494Y4138115D01*
X9350087Y4137823D01*
X9350091Y4137821D01*
X9350096Y4137818D01*
X9350720Y4137401D01*
X9351195Y4137084D01*
X9351198Y4137082D01*
X9351203Y4137079D01*
X9351754Y4136595D01*
X9352197Y4136207D01*
X9352201Y4136204D01*
X9352204Y4136201D01*
X9352646Y4135697D01*
X9353076Y4135207D01*
X9353079Y4135203D01*
X9353082Y4135199D01*
X9353461Y4134633D01*
X9353817Y4134100D01*
X9353820Y4134096D01*
X9353822Y4134092D01*
X9354111Y4133507D01*
X9354408Y4132906D01*
X9354409Y4132902D01*
X9354412Y4132897D01*
X9354632Y4132249D01*
X9354837Y4131646D01*
X9354838Y4131641D01*
X9354840Y4131636D01*
X9354970Y4130982D01*
X9355098Y4130339D01*
X9355098Y4130335D01*
X9355099Y4130330D01*
X9355142Y4129681D01*
X9355187Y4129011D01*
X9355417Y3889266D01*
X9355417Y3889262D01*
X9355417Y3889258D01*
X9355418Y3884015D01*
Y3884014D01*
D01*
X9355331Y3882685D01*
X9353964Y3872288D01*
X9353790Y3871415D01*
X9353704Y3870981D01*
X9350990Y3860851D01*
X9350562Y3859590D01*
X9350562Y3859589D01*
X9346550Y3849902D01*
X9346549Y3849900D01*
X9345960Y3848706D01*
X9340717Y3839624D01*
X9339977Y3838516D01*
X9339976Y3838516D01*
X9333592Y3830196D01*
X9332714Y3829195D01*
X9332714Y3829195D01*
X9332714Y3829194D01*
X9325298Y3821779D01*
X9324297Y3820901D01*
X9315976Y3814518D01*
X9314869Y3813778D01*
D01*
X9314868Y3813777D01*
X9305785Y3808535D01*
X9304591Y3807946D01*
X9294901Y3803934D01*
X9294045Y3803644D01*
X9293640Y3803506D01*
X9283509Y3800794D01*
X9282203Y3800534D01*
X9282202D01*
X9271805Y3799168D01*
X9270476Y3799081D01*
D01*
X9270476D01*
X9265233Y3799082D01*
X9259993Y3799082D01*
X9259992D01*
D01*
X9258663Y3799168D01*
X9248267Y3800536D01*
X9248266D01*
X9246960Y3800796D01*
X9236831Y3803510D01*
X9235570Y3803938D01*
X9235566Y3803939D01*
X9225883Y3807950D01*
X9225881Y3807950D01*
X9225487Y3808145D01*
X9224687Y3808539D01*
X9224684Y3808541D01*
X9215605Y3813782D01*
X9214498Y3814522D01*
X9214497Y3814522D01*
X9206178Y3820905D01*
X9205176Y3821784D01*
X9197762Y3829198D01*
Y3829199D01*
X9197761D01*
X9196883Y3830200D01*
X9190500Y3838519D01*
X9190499Y3838519D01*
X9189759Y3839627D01*
X9184516Y3848708D01*
X9183927Y3849903D01*
X9179914Y3859591D01*
X9179486Y3860852D01*
X9179486Y3860853D01*
X9176773Y3870979D01*
X9176772Y3870982D01*
X9176564Y3872028D01*
X9176513Y3872287D01*
Y3872288D01*
X9175145Y3882683D01*
X9175144Y3882685D01*
X9175070Y3883828D01*
X9175057Y3884014D01*
Y3884014D01*
Y3884014D01*
X9175058Y3889243D01*
X9175058Y3889246D01*
X9174823Y4128992D01*
X9174823Y4128997D01*
X9174823Y4129002D01*
X9174867Y4129680D01*
X9174908Y4130321D01*
X9174910Y4130326D01*
X9174910Y4130331D01*
X9175046Y4131014D01*
X9175167Y4131628D01*
X9175169Y4131632D01*
X9175170Y4131637D01*
X9175398Y4132312D01*
X9175594Y4132889D01*
X9175596Y4132893D01*
X9175598Y4132899D01*
X9175889Y4133489D01*
X9176182Y4134084D01*
X9176185Y4134089D01*
X9176187Y4134093D01*
X9176558Y4134648D01*
X9176921Y4135192D01*
X9176923Y4135196D01*
X9176927Y4135201D01*
X9177395Y4135735D01*
X9177798Y4136195D01*
X9177802Y4136198D01*
X9177805Y4136202D01*
X9178317Y4136651D01*
X9178798Y4137074D01*
X9178802Y4137076D01*
X9178806Y4137080D01*
X9179404Y4137480D01*
X9179905Y4137815D01*
X9179909Y4137817D01*
X9179914Y4137820D01*
X9180678Y4138197D01*
X9181099Y4138405D01*
X9181102Y4138406D01*
X9181108Y4138409D01*
X9181939Y4138691D01*
X9182360Y4138834D01*
X9182363Y4138835D01*
X9182369Y4138837D01*
X9183224Y4139007D01*
X9183666Y4139095D01*
X9183669Y4139096D01*
X9183676Y4139097D01*
X9184428Y4139146D01*
X9184995Y4139184D01*
X9185000Y4139184D01*
X9185004Y4139184D01*
X9345005Y4139183D01*
D02*
G37*
G36*
X9091005D02*
X9091666Y4139139D01*
X9092324Y4139097D01*
X9092329Y4139096D01*
X9092334Y4139096D01*
X9092967Y4138970D01*
X9093631Y4138838D01*
X9093635Y4138837D01*
X9093640Y4138836D01*
X9094235Y4138634D01*
X9094892Y4138412D01*
X9094896Y4138409D01*
X9094901Y4138408D01*
X9095494Y4138115D01*
X9096087Y4137823D01*
X9096091Y4137821D01*
X9096096Y4137818D01*
X9096720Y4137401D01*
X9097195Y4137084D01*
X9097198Y4137082D01*
X9097203Y4137079D01*
X9097754Y4136595D01*
X9098197Y4136207D01*
X9098201Y4136204D01*
X9098204Y4136201D01*
X9098646Y4135697D01*
X9099076Y4135207D01*
X9099079Y4135203D01*
X9099082Y4135199D01*
X9099461Y4134633D01*
X9099817Y4134100D01*
X9099820Y4134096D01*
X9099822Y4134092D01*
X9100111Y4133507D01*
X9100408Y4132906D01*
X9100409Y4132902D01*
X9100412Y4132897D01*
X9100632Y4132249D01*
X9100837Y4131646D01*
X9100838Y4131641D01*
X9100840Y4131636D01*
X9100970Y4130982D01*
X9101098Y4130339D01*
X9101098Y4130335D01*
X9101099Y4130330D01*
X9101142Y4129681D01*
X9101187Y4129011D01*
X9101417Y3889266D01*
X9101417Y3889262D01*
X9101417Y3889258D01*
X9101418Y3884015D01*
Y3884014D01*
D01*
X9101331Y3882685D01*
X9099964Y3872288D01*
X9099790Y3871415D01*
X9099704Y3870981D01*
X9096990Y3860851D01*
X9096562Y3859590D01*
X9096562Y3859589D01*
X9092550Y3849902D01*
X9092549Y3849900D01*
X9091960Y3848706D01*
X9086717Y3839624D01*
X9085977Y3838516D01*
X9085976Y3838516D01*
X9079592Y3830196D01*
X9078714Y3829195D01*
X9078714Y3829195D01*
X9078714Y3829194D01*
X9071298Y3821779D01*
X9070297Y3820901D01*
X9061976Y3814518D01*
X9060869Y3813778D01*
D01*
X9060868Y3813777D01*
X9051785Y3808535D01*
X9050591Y3807946D01*
X9040901Y3803934D01*
X9040045Y3803644D01*
X9039640Y3803506D01*
X9029509Y3800794D01*
X9028203Y3800534D01*
X9028202D01*
X9017805Y3799168D01*
X9016476Y3799081D01*
D01*
X9016476D01*
X9011233Y3799082D01*
X9005993Y3799082D01*
X9005992D01*
D01*
X9004663Y3799168D01*
X8994267Y3800536D01*
X8994266D01*
X8992960Y3800796D01*
X8982831Y3803510D01*
X8981570Y3803938D01*
X8981566Y3803939D01*
X8971883Y3807950D01*
X8971881Y3807950D01*
X8971487Y3808145D01*
X8970687Y3808539D01*
X8970684Y3808541D01*
X8961605Y3813782D01*
X8960498Y3814522D01*
X8960497Y3814522D01*
X8952178Y3820905D01*
X8951176Y3821784D01*
X8943762Y3829198D01*
Y3829199D01*
X8943761D01*
X8942883Y3830200D01*
X8936500Y3838519D01*
X8936499Y3838519D01*
X8935759Y3839627D01*
X8930516Y3848708D01*
X8929927Y3849903D01*
X8925914Y3859591D01*
X8925486Y3860852D01*
X8925486Y3860853D01*
X8922773Y3870979D01*
X8922772Y3870982D01*
X8922564Y3872028D01*
X8922513Y3872287D01*
Y3872288D01*
X8921145Y3882683D01*
X8921144Y3882685D01*
X8921070Y3883828D01*
X8921057Y3884014D01*
Y3884014D01*
Y3884014D01*
X8921058Y3889243D01*
X8921058Y3889246D01*
X8920823Y4128992D01*
X8920823Y4128997D01*
X8920823Y4129002D01*
X8920867Y4129680D01*
X8920908Y4130321D01*
X8920910Y4130326D01*
X8920910Y4130331D01*
X8921046Y4131014D01*
X8921167Y4131628D01*
X8921169Y4131632D01*
X8921170Y4131637D01*
X8921398Y4132312D01*
X8921594Y4132889D01*
X8921596Y4132893D01*
X8921598Y4132899D01*
X8921889Y4133489D01*
X8922182Y4134084D01*
X8922185Y4134089D01*
X8922187Y4134093D01*
X8922558Y4134648D01*
X8922921Y4135192D01*
X8922923Y4135196D01*
X8922927Y4135201D01*
X8923395Y4135735D01*
X8923798Y4136195D01*
X8923802Y4136198D01*
X8923805Y4136202D01*
X8924317Y4136651D01*
X8924798Y4137074D01*
X8924802Y4137076D01*
X8924806Y4137080D01*
X8925404Y4137480D01*
X8925905Y4137815D01*
X8925909Y4137817D01*
X8925914Y4137820D01*
X8926678Y4138197D01*
X8927099Y4138405D01*
X8927102Y4138406D01*
X8927108Y4138409D01*
X8927939Y4138691D01*
X8928360Y4138834D01*
X8928363Y4138835D01*
X8928369Y4138837D01*
X8929224Y4139007D01*
X8929666Y4139095D01*
X8929669Y4139096D01*
X8929676Y4139097D01*
X8930428Y4139146D01*
X8930995Y4139184D01*
X8931000Y4139184D01*
X8931004Y4139184D01*
X9091005Y4139183D01*
D02*
G37*
G36*
X8837005D02*
X8837666Y4139139D01*
X8838324Y4139097D01*
X8838329Y4139096D01*
X8838334Y4139096D01*
X8838967Y4138970D01*
X8839631Y4138838D01*
X8839635Y4138837D01*
X8839640Y4138836D01*
X8840235Y4138634D01*
X8840892Y4138412D01*
X8840896Y4138409D01*
X8840901Y4138408D01*
X8841494Y4138115D01*
X8842087Y4137823D01*
X8842091Y4137821D01*
X8842096Y4137818D01*
X8842720Y4137401D01*
X8843195Y4137084D01*
X8843198Y4137082D01*
X8843203Y4137079D01*
X8843754Y4136595D01*
X8844197Y4136207D01*
X8844201Y4136204D01*
X8844204Y4136201D01*
X8844646Y4135697D01*
X8845076Y4135207D01*
X8845079Y4135203D01*
X8845082Y4135199D01*
X8845461Y4134633D01*
X8845817Y4134100D01*
X8845820Y4134096D01*
X8845822Y4134092D01*
X8846111Y4133507D01*
X8846408Y4132906D01*
X8846409Y4132902D01*
X8846412Y4132897D01*
X8846632Y4132249D01*
X8846837Y4131646D01*
X8846838Y4131641D01*
X8846840Y4131636D01*
X8846970Y4130982D01*
X8847098Y4130339D01*
X8847098Y4130335D01*
X8847099Y4130330D01*
X8847142Y4129681D01*
X8847187Y4129011D01*
X8847417Y3889266D01*
X8847417Y3889262D01*
X8847417Y3889258D01*
X8847418Y3884015D01*
Y3884014D01*
D01*
X8847331Y3882685D01*
X8845964Y3872288D01*
X8845790Y3871415D01*
X8845704Y3870981D01*
X8842990Y3860851D01*
X8842562Y3859590D01*
X8842562Y3859589D01*
X8838550Y3849902D01*
X8838549Y3849900D01*
X8837960Y3848706D01*
X8832717Y3839624D01*
X8831977Y3838516D01*
X8831976Y3838516D01*
X8825592Y3830196D01*
X8824714Y3829195D01*
X8824714Y3829195D01*
X8824714Y3829194D01*
X8817298Y3821779D01*
X8816297Y3820901D01*
X8807976Y3814518D01*
X8806869Y3813778D01*
D01*
X8806868Y3813777D01*
X8797785Y3808535D01*
X8796591Y3807946D01*
X8786901Y3803934D01*
X8786045Y3803644D01*
X8785640Y3803506D01*
X8775509Y3800794D01*
X8774203Y3800534D01*
X8774202D01*
X8763805Y3799168D01*
X8762476Y3799081D01*
D01*
X8762476D01*
X8757233Y3799082D01*
X8751993Y3799082D01*
X8751992D01*
D01*
X8750663Y3799168D01*
X8740267Y3800536D01*
X8740266D01*
X8738960Y3800796D01*
X8728831Y3803510D01*
X8727570Y3803938D01*
X8727566Y3803939D01*
X8717883Y3807950D01*
X8717881Y3807950D01*
X8717487Y3808145D01*
X8716687Y3808539D01*
X8716684Y3808541D01*
X8707605Y3813782D01*
X8706498Y3814522D01*
X8706497Y3814522D01*
X8698178Y3820905D01*
X8697176Y3821784D01*
X8689762Y3829198D01*
Y3829199D01*
X8689761D01*
X8688883Y3830200D01*
X8682500Y3838519D01*
X8682499Y3838519D01*
X8681759Y3839627D01*
X8676516Y3848708D01*
X8675927Y3849903D01*
X8671914Y3859591D01*
X8671486Y3860852D01*
X8671486Y3860853D01*
X8668773Y3870979D01*
X8668772Y3870982D01*
X8668564Y3872028D01*
X8668513Y3872287D01*
Y3872288D01*
X8667145Y3882683D01*
X8667144Y3882685D01*
X8667070Y3883828D01*
X8667057Y3884014D01*
Y3884014D01*
Y3884014D01*
X8667058Y3889243D01*
X8667058Y3889246D01*
X8666823Y4128992D01*
X8666823Y4128997D01*
X8666823Y4129002D01*
X8666867Y4129680D01*
X8666908Y4130321D01*
X8666910Y4130326D01*
X8666910Y4130331D01*
X8667046Y4131014D01*
X8667167Y4131628D01*
X8667169Y4131632D01*
X8667170Y4131637D01*
X8667398Y4132312D01*
X8667594Y4132889D01*
X8667596Y4132893D01*
X8667598Y4132899D01*
X8667889Y4133489D01*
X8668182Y4134084D01*
X8668185Y4134089D01*
X8668187Y4134093D01*
X8668558Y4134648D01*
X8668921Y4135192D01*
X8668923Y4135196D01*
X8668927Y4135201D01*
X8669395Y4135735D01*
X8669798Y4136195D01*
X8669802Y4136198D01*
X8669805Y4136202D01*
X8670317Y4136651D01*
X8670798Y4137074D01*
X8670802Y4137076D01*
X8670806Y4137080D01*
X8671404Y4137480D01*
X8671905Y4137815D01*
X8671909Y4137817D01*
X8671914Y4137820D01*
X8672678Y4138197D01*
X8673099Y4138405D01*
X8673102Y4138406D01*
X8673108Y4138409D01*
X8673939Y4138691D01*
X8674360Y4138834D01*
X8674363Y4138835D01*
X8674369Y4138837D01*
X8675224Y4139007D01*
X8675666Y4139095D01*
X8675669Y4139096D01*
X8675676Y4139097D01*
X8676428Y4139146D01*
X8676995Y4139184D01*
X8677000Y4139184D01*
X8677004Y4139184D01*
X8837005Y4139183D01*
D02*
G37*
G36*
X8583005D02*
X8583666Y4139139D01*
X8584324Y4139097D01*
X8584329Y4139096D01*
X8584334Y4139096D01*
X8584967Y4138970D01*
X8585631Y4138838D01*
X8585635Y4138837D01*
X8585640Y4138836D01*
X8586235Y4138634D01*
X8586892Y4138412D01*
X8586896Y4138409D01*
X8586901Y4138408D01*
X8587494Y4138115D01*
X8588087Y4137823D01*
X8588091Y4137821D01*
X8588096Y4137818D01*
X8588720Y4137401D01*
X8589195Y4137084D01*
X8589198Y4137082D01*
X8589203Y4137079D01*
X8589754Y4136595D01*
X8590197Y4136207D01*
X8590201Y4136204D01*
X8590204Y4136201D01*
X8590646Y4135697D01*
X8591076Y4135207D01*
X8591079Y4135203D01*
X8591082Y4135199D01*
X8591461Y4134633D01*
X8591817Y4134100D01*
X8591820Y4134096D01*
X8591822Y4134092D01*
X8592111Y4133507D01*
X8592408Y4132906D01*
X8592409Y4132902D01*
X8592412Y4132897D01*
X8592632Y4132249D01*
X8592837Y4131646D01*
X8592838Y4131641D01*
X8592840Y4131636D01*
X8592970Y4130982D01*
X8593098Y4130339D01*
X8593098Y4130335D01*
X8593099Y4130330D01*
X8593142Y4129681D01*
X8593187Y4129011D01*
X8593417Y3889266D01*
X8593417Y3889262D01*
X8593417Y3889258D01*
X8593418Y3884015D01*
Y3884014D01*
D01*
X8593331Y3882685D01*
X8591964Y3872288D01*
X8591790Y3871415D01*
X8591704Y3870981D01*
X8588990Y3860851D01*
X8588562Y3859590D01*
X8588562Y3859589D01*
X8584550Y3849902D01*
X8584549Y3849900D01*
X8583960Y3848706D01*
X8578717Y3839624D01*
X8577977Y3838516D01*
X8577976Y3838516D01*
X8571592Y3830196D01*
X8570714Y3829195D01*
X8570714Y3829195D01*
X8570714Y3829194D01*
X8563298Y3821779D01*
X8562297Y3820901D01*
X8553976Y3814518D01*
X8552869Y3813778D01*
D01*
X8552868Y3813777D01*
X8543785Y3808535D01*
X8542591Y3807946D01*
X8532901Y3803934D01*
X8532045Y3803644D01*
X8531640Y3803506D01*
X8521509Y3800794D01*
X8520203Y3800534D01*
X8520202D01*
X8509805Y3799168D01*
X8508476Y3799081D01*
D01*
X8508476D01*
X8503233Y3799082D01*
X8497993Y3799082D01*
X8497992D01*
D01*
X8496663Y3799168D01*
X8486267Y3800536D01*
X8486266D01*
X8484960Y3800796D01*
X8474831Y3803510D01*
X8473570Y3803938D01*
X8473566Y3803939D01*
X8463883Y3807950D01*
X8463881Y3807950D01*
X8463487Y3808145D01*
X8462687Y3808539D01*
X8462684Y3808541D01*
X8453605Y3813782D01*
X8452498Y3814522D01*
X8452497Y3814522D01*
X8444178Y3820905D01*
X8443176Y3821784D01*
X8435762Y3829198D01*
Y3829199D01*
X8435761D01*
X8434883Y3830200D01*
X8428500Y3838519D01*
X8428499Y3838519D01*
X8427759Y3839627D01*
X8422516Y3848708D01*
X8421927Y3849903D01*
X8417914Y3859591D01*
X8417486Y3860852D01*
X8417486Y3860853D01*
X8414773Y3870979D01*
X8414772Y3870982D01*
X8414564Y3872028D01*
X8414513Y3872287D01*
Y3872288D01*
X8413145Y3882683D01*
X8413144Y3882685D01*
X8413070Y3883828D01*
X8413057Y3884014D01*
Y3884014D01*
Y3884014D01*
X8413058Y3889243D01*
X8413058Y3889246D01*
X8412823Y4128992D01*
X8412823Y4128997D01*
X8412823Y4129002D01*
X8412867Y4129680D01*
X8412908Y4130321D01*
X8412910Y4130326D01*
X8412910Y4130331D01*
X8413046Y4131014D01*
X8413167Y4131628D01*
X8413169Y4131632D01*
X8413170Y4131637D01*
X8413398Y4132312D01*
X8413594Y4132889D01*
X8413596Y4132893D01*
X8413598Y4132899D01*
X8413889Y4133489D01*
X8414182Y4134084D01*
X8414185Y4134089D01*
X8414187Y4134093D01*
X8414558Y4134648D01*
X8414921Y4135192D01*
X8414923Y4135196D01*
X8414927Y4135201D01*
X8415395Y4135735D01*
X8415798Y4136195D01*
X8415802Y4136198D01*
X8415805Y4136202D01*
X8416317Y4136651D01*
X8416798Y4137074D01*
X8416802Y4137076D01*
X8416806Y4137080D01*
X8417404Y4137480D01*
X8417905Y4137815D01*
X8417909Y4137817D01*
X8417914Y4137820D01*
X8418678Y4138197D01*
X8419099Y4138405D01*
X8419102Y4138406D01*
X8419108Y4138409D01*
X8419939Y4138691D01*
X8420360Y4138834D01*
X8420363Y4138835D01*
X8420369Y4138837D01*
X8421224Y4139007D01*
X8421666Y4139095D01*
X8421669Y4139096D01*
X8421676Y4139097D01*
X8422428Y4139146D01*
X8422995Y4139184D01*
X8423000Y4139184D01*
X8423004Y4139184D01*
X8583005Y4139183D01*
D02*
G37*
G36*
X8329005D02*
X8329666Y4139139D01*
X8330324Y4139097D01*
X8330329Y4139096D01*
X8330334Y4139096D01*
X8330967Y4138970D01*
X8331631Y4138838D01*
X8331635Y4138837D01*
X8331640Y4138836D01*
X8332235Y4138634D01*
X8332892Y4138412D01*
X8332896Y4138409D01*
X8332901Y4138408D01*
X8333494Y4138115D01*
X8334087Y4137823D01*
X8334091Y4137821D01*
X8334096Y4137818D01*
X8334720Y4137401D01*
X8335195Y4137084D01*
X8335198Y4137082D01*
X8335203Y4137079D01*
X8335754Y4136595D01*
X8336197Y4136207D01*
X8336201Y4136204D01*
X8336204Y4136201D01*
X8336646Y4135697D01*
X8337076Y4135207D01*
X8337079Y4135203D01*
X8337082Y4135199D01*
X8337461Y4134633D01*
X8337817Y4134100D01*
X8337820Y4134096D01*
X8337822Y4134092D01*
X8338111Y4133507D01*
X8338408Y4132906D01*
X8338409Y4132902D01*
X8338412Y4132897D01*
X8338632Y4132249D01*
X8338837Y4131646D01*
X8338838Y4131641D01*
X8338840Y4131636D01*
X8338970Y4130982D01*
X8339098Y4130339D01*
X8339098Y4130335D01*
X8339099Y4130330D01*
X8339142Y4129681D01*
X8339187Y4129011D01*
X8339417Y3889266D01*
X8339417Y3889262D01*
X8339417Y3889258D01*
X8339418Y3884015D01*
Y3884014D01*
D01*
X8339331Y3882685D01*
X8337964Y3872288D01*
X8337790Y3871415D01*
X8337704Y3870981D01*
X8334990Y3860851D01*
X8334562Y3859590D01*
X8334562Y3859589D01*
X8330550Y3849902D01*
X8330549Y3849900D01*
X8329960Y3848706D01*
X8324717Y3839624D01*
X8323977Y3838516D01*
X8323976Y3838516D01*
X8317592Y3830196D01*
X8316714Y3829195D01*
X8316714Y3829195D01*
X8316714Y3829194D01*
X8309298Y3821779D01*
X8308297Y3820901D01*
X8299976Y3814518D01*
X8298869Y3813778D01*
D01*
X8298868Y3813777D01*
X8289785Y3808535D01*
X8288591Y3807946D01*
X8278901Y3803934D01*
X8278045Y3803644D01*
X8277640Y3803506D01*
X8267509Y3800794D01*
X8266203Y3800534D01*
X8266202D01*
X8255805Y3799168D01*
X8254476Y3799081D01*
D01*
X8254476D01*
X8249233Y3799082D01*
X8243993Y3799082D01*
X8243992D01*
D01*
X8242663Y3799168D01*
X8232267Y3800536D01*
X8232266D01*
X8230960Y3800796D01*
X8220831Y3803510D01*
X8219570Y3803938D01*
X8219566Y3803939D01*
X8209883Y3807950D01*
X8209881Y3807950D01*
X8209487Y3808145D01*
X8208687Y3808539D01*
X8208684Y3808541D01*
X8199605Y3813782D01*
X8198498Y3814522D01*
X8198497Y3814522D01*
X8190178Y3820905D01*
X8189176Y3821784D01*
X8181762Y3829198D01*
Y3829199D01*
X8181761D01*
X8180883Y3830200D01*
X8174500Y3838519D01*
X8174499Y3838519D01*
X8173759Y3839627D01*
X8168516Y3848708D01*
X8167927Y3849903D01*
X8163914Y3859591D01*
X8163486Y3860852D01*
X8163486Y3860853D01*
X8160773Y3870979D01*
X8160772Y3870982D01*
X8160564Y3872028D01*
X8160513Y3872287D01*
Y3872288D01*
X8159145Y3882683D01*
X8159144Y3882685D01*
X8159070Y3883828D01*
X8159057Y3884014D01*
Y3884014D01*
Y3884014D01*
X8159058Y3889243D01*
X8159058Y3889246D01*
X8158823Y4128992D01*
X8158823Y4128997D01*
X8158823Y4129002D01*
X8158867Y4129680D01*
X8158908Y4130321D01*
X8158910Y4130326D01*
X8158910Y4130331D01*
X8159046Y4131014D01*
X8159167Y4131628D01*
X8159169Y4131632D01*
X8159170Y4131637D01*
X8159398Y4132312D01*
X8159594Y4132889D01*
X8159596Y4132893D01*
X8159598Y4132899D01*
X8159889Y4133489D01*
X8160182Y4134084D01*
X8160185Y4134089D01*
X8160187Y4134093D01*
X8160558Y4134648D01*
X8160921Y4135192D01*
X8160923Y4135196D01*
X8160927Y4135201D01*
X8161395Y4135735D01*
X8161798Y4136195D01*
X8161802Y4136198D01*
X8161805Y4136202D01*
X8162317Y4136651D01*
X8162798Y4137074D01*
X8162802Y4137076D01*
X8162806Y4137080D01*
X8163404Y4137480D01*
X8163905Y4137815D01*
X8163909Y4137817D01*
X8163914Y4137820D01*
X8164678Y4138197D01*
X8165099Y4138405D01*
X8165102Y4138406D01*
X8165108Y4138409D01*
X8165939Y4138691D01*
X8166360Y4138834D01*
X8166363Y4138835D01*
X8166369Y4138837D01*
X8167224Y4139007D01*
X8167666Y4139095D01*
X8167669Y4139096D01*
X8167676Y4139097D01*
X8168428Y4139146D01*
X8168995Y4139184D01*
X8169000Y4139184D01*
X8169004Y4139184D01*
X8329005Y4139183D01*
D02*
G37*
G36*
X8075005D02*
X8075666Y4139139D01*
X8076324Y4139097D01*
X8076329Y4139096D01*
X8076334Y4139096D01*
X8076967Y4138970D01*
X8077631Y4138838D01*
X8077635Y4138837D01*
X8077640Y4138836D01*
X8078235Y4138634D01*
X8078892Y4138412D01*
X8078896Y4138409D01*
X8078901Y4138408D01*
X8079494Y4138115D01*
X8080087Y4137823D01*
X8080091Y4137821D01*
X8080096Y4137818D01*
X8080720Y4137401D01*
X8081195Y4137084D01*
X8081198Y4137082D01*
X8081203Y4137079D01*
X8081754Y4136595D01*
X8082197Y4136207D01*
X8082201Y4136204D01*
X8082204Y4136201D01*
X8082646Y4135697D01*
X8083076Y4135207D01*
X8083079Y4135203D01*
X8083082Y4135199D01*
X8083461Y4134633D01*
X8083817Y4134100D01*
X8083820Y4134096D01*
X8083822Y4134092D01*
X8084111Y4133507D01*
X8084408Y4132906D01*
X8084409Y4132902D01*
X8084412Y4132897D01*
X8084632Y4132249D01*
X8084837Y4131646D01*
X8084838Y4131641D01*
X8084840Y4131636D01*
X8084970Y4130982D01*
X8085098Y4130339D01*
X8085098Y4130335D01*
X8085099Y4130330D01*
X8085142Y4129681D01*
X8085187Y4129011D01*
X8085417Y3889266D01*
X8085417Y3889262D01*
X8085417Y3889258D01*
X8085418Y3884015D01*
Y3884014D01*
D01*
X8085331Y3882685D01*
X8083964Y3872288D01*
X8083790Y3871415D01*
X8083704Y3870981D01*
X8080990Y3860851D01*
X8080562Y3859590D01*
X8080562Y3859589D01*
X8076550Y3849902D01*
X8076549Y3849900D01*
X8075960Y3848706D01*
X8070717Y3839624D01*
X8069977Y3838516D01*
X8069976Y3838516D01*
X8063592Y3830196D01*
X8062714Y3829195D01*
X8062714Y3829195D01*
X8062714Y3829194D01*
X8055298Y3821779D01*
X8054297Y3820901D01*
X8045976Y3814518D01*
X8044869Y3813778D01*
D01*
X8044868Y3813777D01*
X8035785Y3808535D01*
X8034591Y3807946D01*
X8024901Y3803934D01*
X8024045Y3803644D01*
X8023640Y3803506D01*
X8013509Y3800794D01*
X8012203Y3800534D01*
X8012202D01*
X8001805Y3799168D01*
X8000476Y3799081D01*
D01*
X8000476D01*
X7995233Y3799082D01*
X7989993Y3799082D01*
X7989992D01*
D01*
X7988663Y3799168D01*
X7978267Y3800536D01*
X7978266D01*
X7976960Y3800796D01*
X7966831Y3803510D01*
X7965570Y3803938D01*
X7965566Y3803939D01*
X7955883Y3807950D01*
X7955881Y3807950D01*
X7955487Y3808145D01*
X7954687Y3808539D01*
X7954684Y3808541D01*
X7945605Y3813782D01*
X7944498Y3814522D01*
X7944497Y3814522D01*
X7936178Y3820905D01*
X7935176Y3821784D01*
X7927762Y3829198D01*
Y3829199D01*
X7927761D01*
X7926883Y3830200D01*
X7920500Y3838519D01*
X7920499Y3838519D01*
X7919759Y3839627D01*
X7914516Y3848708D01*
X7913927Y3849903D01*
X7909914Y3859591D01*
X7909486Y3860852D01*
X7909486Y3860853D01*
X7906773Y3870979D01*
X7906772Y3870982D01*
X7906564Y3872028D01*
X7906513Y3872287D01*
Y3872288D01*
X7905145Y3882683D01*
X7905144Y3882685D01*
X7905070Y3883828D01*
X7905057Y3884014D01*
Y3884014D01*
Y3884014D01*
X7905058Y3889243D01*
X7905058Y3889246D01*
X7904823Y4128992D01*
X7904823Y4128997D01*
X7904823Y4129002D01*
X7904867Y4129680D01*
X7904908Y4130321D01*
X7904910Y4130326D01*
X7904910Y4130331D01*
X7905046Y4131014D01*
X7905167Y4131628D01*
X7905169Y4131632D01*
X7905170Y4131637D01*
X7905398Y4132312D01*
X7905594Y4132889D01*
X7905596Y4132893D01*
X7905598Y4132899D01*
X7905889Y4133489D01*
X7906182Y4134084D01*
X7906185Y4134089D01*
X7906187Y4134093D01*
X7906558Y4134648D01*
X7906921Y4135192D01*
X7906923Y4135196D01*
X7906927Y4135201D01*
X7907395Y4135735D01*
X7907798Y4136195D01*
X7907802Y4136198D01*
X7907805Y4136202D01*
X7908317Y4136651D01*
X7908798Y4137074D01*
X7908802Y4137076D01*
X7908806Y4137080D01*
X7909404Y4137480D01*
X7909905Y4137815D01*
X7909909Y4137817D01*
X7909914Y4137820D01*
X7910678Y4138197D01*
X7911099Y4138405D01*
X7911102Y4138406D01*
X7911108Y4138409D01*
X7911939Y4138691D01*
X7912360Y4138834D01*
X7912363Y4138835D01*
X7912369Y4138837D01*
X7913224Y4139007D01*
X7913666Y4139095D01*
X7913669Y4139096D01*
X7913676Y4139097D01*
X7914428Y4139146D01*
X7914995Y4139184D01*
X7915000Y4139184D01*
X7915004Y4139184D01*
X8075005Y4139183D01*
D02*
G37*
G36*
X7821005D02*
X7821666Y4139139D01*
X7822324Y4139097D01*
X7822329Y4139096D01*
X7822334Y4139096D01*
X7822967Y4138970D01*
X7823631Y4138838D01*
X7823635Y4138837D01*
X7823640Y4138836D01*
X7824235Y4138634D01*
X7824892Y4138412D01*
X7824896Y4138409D01*
X7824901Y4138408D01*
X7825494Y4138115D01*
X7826087Y4137823D01*
X7826091Y4137821D01*
X7826096Y4137818D01*
X7826720Y4137401D01*
X7827195Y4137084D01*
X7827198Y4137082D01*
X7827203Y4137079D01*
X7827754Y4136595D01*
X7828197Y4136207D01*
X7828201Y4136204D01*
X7828204Y4136201D01*
X7828646Y4135697D01*
X7829076Y4135207D01*
X7829079Y4135203D01*
X7829082Y4135199D01*
X7829461Y4134633D01*
X7829817Y4134100D01*
X7829820Y4134096D01*
X7829822Y4134092D01*
X7830111Y4133507D01*
X7830408Y4132906D01*
X7830409Y4132902D01*
X7830412Y4132897D01*
X7830632Y4132249D01*
X7830837Y4131646D01*
X7830838Y4131641D01*
X7830840Y4131636D01*
X7830970Y4130982D01*
X7831098Y4130339D01*
X7831098Y4130335D01*
X7831099Y4130330D01*
X7831142Y4129681D01*
X7831187Y4129011D01*
X7831417Y3889266D01*
X7831417Y3889262D01*
X7831417Y3889258D01*
X7831418Y3884015D01*
Y3884014D01*
D01*
X7831331Y3882685D01*
X7829964Y3872288D01*
X7829790Y3871415D01*
X7829704Y3870981D01*
X7826990Y3860851D01*
X7826562Y3859590D01*
X7826562Y3859589D01*
X7822550Y3849902D01*
X7822549Y3849900D01*
X7821960Y3848706D01*
X7816717Y3839624D01*
X7815977Y3838516D01*
X7815976Y3838516D01*
X7809592Y3830196D01*
X7808714Y3829195D01*
X7808714Y3829195D01*
X7808714Y3829194D01*
X7801298Y3821779D01*
X7800297Y3820901D01*
X7791976Y3814518D01*
X7790869Y3813778D01*
D01*
X7790868Y3813777D01*
X7781785Y3808535D01*
X7780591Y3807946D01*
X7770901Y3803934D01*
X7770045Y3803644D01*
X7769640Y3803506D01*
X7759510Y3800794D01*
X7758203Y3800534D01*
X7758202D01*
X7747805Y3799168D01*
X7746476Y3799081D01*
D01*
X7746476D01*
X7741233Y3799082D01*
X7735993Y3799082D01*
X7735992D01*
D01*
X7734663Y3799168D01*
X7724267Y3800536D01*
X7724266D01*
X7722960Y3800796D01*
X7712831Y3803510D01*
X7711570Y3803938D01*
X7711566Y3803939D01*
X7701883Y3807950D01*
X7701881Y3807950D01*
X7701487Y3808145D01*
X7700687Y3808539D01*
X7700684Y3808541D01*
X7691605Y3813782D01*
X7690498Y3814522D01*
X7690497Y3814522D01*
X7682178Y3820905D01*
X7681176Y3821784D01*
X7673762Y3829198D01*
Y3829199D01*
X7673761D01*
X7672883Y3830200D01*
X7666500Y3838519D01*
X7666499Y3838519D01*
X7665759Y3839627D01*
X7660516Y3848708D01*
X7659927Y3849903D01*
X7655914Y3859591D01*
X7655486Y3860852D01*
X7655486Y3860853D01*
X7652773Y3870979D01*
X7652772Y3870982D01*
X7652564Y3872028D01*
X7652513Y3872287D01*
Y3872288D01*
X7651145Y3882683D01*
X7651144Y3882685D01*
X7651070Y3883828D01*
X7651057Y3884014D01*
Y3884014D01*
Y3884014D01*
X7651058Y3889243D01*
X7651058Y3889246D01*
X7650823Y4128992D01*
X7650823Y4128997D01*
X7650823Y4129002D01*
X7650867Y4129680D01*
X7650908Y4130321D01*
X7650910Y4130326D01*
X7650910Y4130331D01*
X7651046Y4131014D01*
X7651167Y4131628D01*
X7651169Y4131632D01*
X7651170Y4131637D01*
X7651398Y4132312D01*
X7651594Y4132889D01*
X7651596Y4132893D01*
X7651598Y4132899D01*
X7651889Y4133489D01*
X7652182Y4134084D01*
X7652185Y4134089D01*
X7652187Y4134093D01*
X7652558Y4134648D01*
X7652921Y4135192D01*
X7652923Y4135196D01*
X7652927Y4135201D01*
X7653395Y4135735D01*
X7653798Y4136195D01*
X7653802Y4136198D01*
X7653805Y4136202D01*
X7654317Y4136651D01*
X7654798Y4137074D01*
X7654802Y4137076D01*
X7654806Y4137080D01*
X7655404Y4137480D01*
X7655905Y4137815D01*
X7655909Y4137817D01*
X7655914Y4137820D01*
X7656678Y4138197D01*
X7657099Y4138405D01*
X7657102Y4138406D01*
X7657108Y4138409D01*
X7657939Y4138691D01*
X7658360Y4138834D01*
X7658363Y4138835D01*
X7658369Y4138837D01*
X7659224Y4139007D01*
X7659666Y4139095D01*
X7659669Y4139096D01*
X7659676Y4139097D01*
X7660428Y4139146D01*
X7660995Y4139184D01*
X7661000Y4139184D01*
X7661004Y4139184D01*
X7821005Y4139183D01*
D02*
G37*
G36*
X7567005D02*
X7567666Y4139139D01*
X7568324Y4139097D01*
X7568329Y4139096D01*
X7568334Y4139096D01*
X7568967Y4138970D01*
X7569631Y4138838D01*
X7569635Y4138837D01*
X7569640Y4138836D01*
X7570235Y4138634D01*
X7570892Y4138412D01*
X7570896Y4138409D01*
X7570901Y4138408D01*
X7571494Y4138115D01*
X7572087Y4137823D01*
X7572091Y4137821D01*
X7572096Y4137818D01*
X7572720Y4137401D01*
X7573195Y4137084D01*
X7573198Y4137082D01*
X7573203Y4137079D01*
X7573754Y4136595D01*
X7574197Y4136207D01*
X7574201Y4136204D01*
X7574204Y4136201D01*
X7574646Y4135697D01*
X7575076Y4135207D01*
X7575079Y4135203D01*
X7575082Y4135199D01*
X7575461Y4134633D01*
X7575817Y4134100D01*
X7575820Y4134096D01*
X7575822Y4134092D01*
X7576111Y4133507D01*
X7576408Y4132906D01*
X7576409Y4132902D01*
X7576412Y4132897D01*
X7576632Y4132249D01*
X7576837Y4131646D01*
X7576838Y4131641D01*
X7576840Y4131636D01*
X7576970Y4130982D01*
X7577098Y4130339D01*
X7577098Y4130335D01*
X7577099Y4130330D01*
X7577142Y4129681D01*
X7577187Y4129011D01*
X7577417Y3889266D01*
X7577417Y3889262D01*
X7577417Y3889258D01*
X7577418Y3884015D01*
Y3884014D01*
D01*
X7577331Y3882685D01*
X7575964Y3872288D01*
X7575790Y3871415D01*
X7575704Y3870981D01*
X7572990Y3860851D01*
X7572562Y3859590D01*
X7572562Y3859589D01*
X7568550Y3849902D01*
X7568549Y3849900D01*
X7567960Y3848706D01*
X7562717Y3839624D01*
X7561977Y3838516D01*
X7561976Y3838516D01*
X7555592Y3830196D01*
X7554714Y3829195D01*
X7554714Y3829195D01*
X7554714Y3829194D01*
X7547298Y3821779D01*
X7546297Y3820901D01*
X7537976Y3814518D01*
X7536869Y3813778D01*
D01*
X7536868Y3813777D01*
X7527785Y3808535D01*
X7526591Y3807946D01*
X7516901Y3803934D01*
X7516045Y3803644D01*
X7515640Y3803506D01*
X7505509Y3800794D01*
X7504203Y3800534D01*
X7504202D01*
X7493805Y3799168D01*
X7492476Y3799081D01*
D01*
X7492476D01*
X7487233Y3799082D01*
X7481993Y3799082D01*
X7481992D01*
D01*
X7480663Y3799168D01*
X7470267Y3800536D01*
X7470266D01*
X7468960Y3800796D01*
X7458831Y3803510D01*
X7457570Y3803938D01*
X7457566Y3803939D01*
X7447883Y3807950D01*
X7447881Y3807950D01*
X7447487Y3808145D01*
X7446687Y3808539D01*
X7446684Y3808541D01*
X7437605Y3813782D01*
X7436498Y3814522D01*
X7436497Y3814522D01*
X7428178Y3820905D01*
X7427176Y3821784D01*
X7419762Y3829198D01*
Y3829199D01*
X7419761D01*
X7418883Y3830200D01*
X7412500Y3838519D01*
X7412499Y3838519D01*
X7411759Y3839627D01*
X7406516Y3848708D01*
X7405927Y3849903D01*
X7401914Y3859591D01*
X7401486Y3860852D01*
X7401486Y3860853D01*
X7398773Y3870979D01*
X7398772Y3870982D01*
X7398564Y3872028D01*
X7398513Y3872287D01*
Y3872288D01*
X7397145Y3882683D01*
X7397144Y3882685D01*
X7397070Y3883828D01*
X7397057Y3884014D01*
Y3884014D01*
Y3884014D01*
X7397058Y3889243D01*
X7397058Y3889246D01*
X7396823Y4128992D01*
X7396823Y4128997D01*
X7396823Y4129002D01*
X7396867Y4129680D01*
X7396908Y4130321D01*
X7396910Y4130326D01*
X7396910Y4130331D01*
X7397046Y4131014D01*
X7397167Y4131628D01*
X7397169Y4131632D01*
X7397170Y4131637D01*
X7397398Y4132312D01*
X7397594Y4132889D01*
X7397596Y4132893D01*
X7397598Y4132899D01*
X7397889Y4133489D01*
X7398182Y4134084D01*
X7398185Y4134089D01*
X7398187Y4134093D01*
X7398558Y4134648D01*
X7398921Y4135192D01*
X7398923Y4135196D01*
X7398927Y4135201D01*
X7399395Y4135735D01*
X7399798Y4136195D01*
X7399802Y4136198D01*
X7399805Y4136202D01*
X7400317Y4136651D01*
X7400798Y4137074D01*
X7400802Y4137076D01*
X7400806Y4137080D01*
X7401404Y4137480D01*
X7401905Y4137815D01*
X7401909Y4137817D01*
X7401914Y4137820D01*
X7402678Y4138197D01*
X7403099Y4138405D01*
X7403102Y4138406D01*
X7403108Y4138409D01*
X7403939Y4138691D01*
X7404360Y4138834D01*
X7404363Y4138835D01*
X7404369Y4138837D01*
X7405224Y4139007D01*
X7405666Y4139095D01*
X7405669Y4139096D01*
X7405676Y4139097D01*
X7406428Y4139146D01*
X7406995Y4139184D01*
X7407000Y4139184D01*
X7407004Y4139184D01*
X7567005Y4139183D01*
D02*
G37*
G36*
X12313246Y2201425D02*
X12318486Y2201425D01*
X12318487D01*
D01*
X12319816Y2201338D01*
X12330212Y2199970D01*
X12330213D01*
X12331519Y2199711D01*
X12341648Y2196997D01*
X12342909Y2196569D01*
X12342913Y2196568D01*
X12352596Y2192557D01*
X12352598Y2192556D01*
X12352992Y2192362D01*
X12353792Y2191968D01*
X12353795Y2191966D01*
X12362874Y2186725D01*
X12363981Y2185985D01*
X12363982Y2185984D01*
X12372301Y2179601D01*
X12373303Y2178723D01*
X12380717Y2171308D01*
Y2171308D01*
X12380718D01*
X12381596Y2170307D01*
X12387979Y2161988D01*
X12387980Y2161987D01*
X12388720Y2160880D01*
X12393963Y2151798D01*
X12394552Y2150604D01*
X12398565Y2140916D01*
X12398993Y2139655D01*
X12398993Y2139654D01*
X12401706Y2129528D01*
X12401707Y2129525D01*
X12401915Y2128479D01*
X12401966Y2128219D01*
Y2128219D01*
X12403334Y2117824D01*
X12403335Y2117822D01*
X12403410Y2116679D01*
X12403422Y2116493D01*
Y2116493D01*
Y2116493D01*
X12403421Y2111264D01*
X12403421Y2111260D01*
X12403656Y1871515D01*
X12403656Y1871510D01*
X12403656Y1871505D01*
X12403612Y1870827D01*
X12403571Y1870185D01*
X12403570Y1870181D01*
X12403569Y1870176D01*
X12403433Y1869493D01*
X12403312Y1868879D01*
X12403310Y1868874D01*
X12403309Y1868869D01*
X12403081Y1868195D01*
X12402885Y1867618D01*
X12402883Y1867613D01*
X12402881Y1867608D01*
X12402590Y1867018D01*
X12402297Y1866422D01*
X12402294Y1866417D01*
X12402292Y1866414D01*
X12401921Y1865858D01*
X12401558Y1865314D01*
X12401556Y1865311D01*
X12401552Y1865306D01*
X12401084Y1864772D01*
X12400681Y1864312D01*
X12400678Y1864309D01*
X12400674Y1864305D01*
X12400162Y1863855D01*
X12399681Y1863433D01*
X12399677Y1863430D01*
X12399673Y1863427D01*
X12399075Y1863027D01*
X12398574Y1862692D01*
X12398570Y1862690D01*
X12398566Y1862687D01*
X12397801Y1862310D01*
X12397380Y1862102D01*
X12397377Y1862101D01*
X12397371Y1862098D01*
X12396540Y1861816D01*
X12396119Y1861672D01*
X12396116Y1861672D01*
X12396110Y1861670D01*
X12395255Y1861500D01*
X12394813Y1861411D01*
X12394810Y1861411D01*
X12394804Y1861410D01*
X12394051Y1861361D01*
X12393484Y1861323D01*
X12393479Y1861323D01*
X12393475Y1861323D01*
X12233474Y1861324D01*
X12232813Y1861367D01*
X12232155Y1861410D01*
X12232150Y1861411D01*
X12232145Y1861411D01*
X12231512Y1861537D01*
X12230849Y1861668D01*
X12230844Y1861670D01*
X12230839Y1861671D01*
X12230245Y1861873D01*
X12229587Y1862095D01*
X12229583Y1862097D01*
X12229578Y1862099D01*
X12228985Y1862391D01*
X12228392Y1862683D01*
X12228388Y1862686D01*
X12228383Y1862688D01*
X12227759Y1863105D01*
X12227284Y1863422D01*
X12227281Y1863425D01*
X12227276Y1863428D01*
X12226725Y1863911D01*
X12226282Y1864299D01*
X12226278Y1864303D01*
X12226275Y1864306D01*
X12225833Y1864810D01*
X12225403Y1865300D01*
X12225400Y1865303D01*
X12225397Y1865307D01*
X12225018Y1865874D01*
X12224662Y1866406D01*
X12224659Y1866411D01*
X12224657Y1866415D01*
X12224368Y1866999D01*
X12224071Y1867600D01*
X12224070Y1867605D01*
X12224067Y1867609D01*
X12223848Y1868257D01*
X12223642Y1868861D01*
X12223641Y1868866D01*
X12223640Y1868871D01*
X12223509Y1869524D01*
X12223381Y1870167D01*
X12223381Y1870172D01*
X12223380Y1870177D01*
X12223337Y1870825D01*
X12223293Y1871496D01*
X12223062Y2111240D01*
X12223062Y2111245D01*
X12223062Y2111249D01*
X12223061Y2116492D01*
Y2116492D01*
D01*
X12223148Y2117821D01*
X12224515Y2128219D01*
X12224689Y2129092D01*
X12224775Y2129526D01*
X12227489Y2139656D01*
X12227917Y2140917D01*
X12227917Y2140917D01*
X12231929Y2150605D01*
X12231930Y2150607D01*
X12232519Y2151801D01*
X12237762Y2160883D01*
X12238502Y2161990D01*
X12238503Y2161991D01*
X12244887Y2170311D01*
X12245765Y2171312D01*
X12245765Y2171312D01*
X12245765Y2171312D01*
X12253181Y2178727D01*
X12254183Y2179605D01*
X12262503Y2185989D01*
X12263610Y2186729D01*
D01*
X12263611Y2186729D01*
X12272694Y2191971D01*
X12273888Y2192561D01*
X12283578Y2196572D01*
X12284434Y2196863D01*
X12284839Y2197000D01*
X12294970Y2199713D01*
X12296276Y2199972D01*
X12296277D01*
X12306674Y2201339D01*
X12308003Y2201426D01*
D01*
X12308003D01*
X12313246Y2201425D01*
D02*
G37*
G36*
X12059246D02*
X12064486Y2201425D01*
X12064487D01*
D01*
X12065816Y2201338D01*
X12076212Y2199970D01*
X12076213D01*
X12077519Y2199711D01*
X12087648Y2196997D01*
X12088909Y2196569D01*
X12088913Y2196568D01*
X12098596Y2192557D01*
X12098598Y2192556D01*
X12098992Y2192362D01*
X12099792Y2191968D01*
X12099795Y2191966D01*
X12108874Y2186725D01*
X12109981Y2185985D01*
X12109982Y2185984D01*
X12118301Y2179601D01*
X12119303Y2178723D01*
X12126717Y2171308D01*
Y2171308D01*
X12126718D01*
X12127596Y2170307D01*
X12133979Y2161988D01*
X12133980Y2161987D01*
X12134720Y2160880D01*
X12139963Y2151798D01*
X12140552Y2150604D01*
X12144565Y2140916D01*
X12144993Y2139655D01*
X12144993Y2139654D01*
X12147706Y2129528D01*
X12147707Y2129525D01*
X12147915Y2128479D01*
X12147966Y2128219D01*
Y2128219D01*
X12149334Y2117824D01*
X12149335Y2117822D01*
X12149410Y2116679D01*
X12149422Y2116493D01*
Y2116493D01*
Y2116493D01*
X12149421Y2111264D01*
X12149421Y2111260D01*
X12149656Y1871515D01*
X12149656Y1871510D01*
X12149656Y1871505D01*
X12149612Y1870827D01*
X12149571Y1870185D01*
X12149570Y1870181D01*
X12149569Y1870176D01*
X12149433Y1869493D01*
X12149312Y1868879D01*
X12149310Y1868874D01*
X12149309Y1868869D01*
X12149081Y1868195D01*
X12148885Y1867618D01*
X12148883Y1867613D01*
X12148881Y1867608D01*
X12148590Y1867018D01*
X12148297Y1866422D01*
X12148294Y1866417D01*
X12148292Y1866414D01*
X12147921Y1865858D01*
X12147558Y1865314D01*
X12147556Y1865311D01*
X12147552Y1865306D01*
X12147084Y1864772D01*
X12146681Y1864312D01*
X12146678Y1864309D01*
X12146674Y1864305D01*
X12146162Y1863855D01*
X12145681Y1863433D01*
X12145677Y1863430D01*
X12145673Y1863427D01*
X12145075Y1863027D01*
X12144574Y1862692D01*
X12144570Y1862690D01*
X12144566Y1862687D01*
X12143801Y1862310D01*
X12143380Y1862102D01*
X12143377Y1862101D01*
X12143371Y1862098D01*
X12142540Y1861816D01*
X12142119Y1861672D01*
X12142116Y1861672D01*
X12142110Y1861670D01*
X12141255Y1861500D01*
X12140813Y1861411D01*
X12140810Y1861411D01*
X12140804Y1861410D01*
X12140051Y1861361D01*
X12139484Y1861323D01*
X12139479Y1861323D01*
X12139475Y1861323D01*
X11979474Y1861324D01*
X11978813Y1861367D01*
X11978155Y1861410D01*
X11978150Y1861411D01*
X11978145Y1861411D01*
X11977512Y1861537D01*
X11976849Y1861668D01*
X11976844Y1861670D01*
X11976839Y1861671D01*
X11976245Y1861873D01*
X11975587Y1862095D01*
X11975583Y1862097D01*
X11975578Y1862099D01*
X11974985Y1862391D01*
X11974392Y1862683D01*
X11974388Y1862686D01*
X11974383Y1862688D01*
X11973759Y1863105D01*
X11973284Y1863422D01*
X11973281Y1863425D01*
X11973276Y1863428D01*
X11972725Y1863911D01*
X11972282Y1864299D01*
X11972278Y1864303D01*
X11972275Y1864306D01*
X11971833Y1864810D01*
X11971403Y1865300D01*
X11971400Y1865303D01*
X11971397Y1865307D01*
X11971018Y1865874D01*
X11970662Y1866406D01*
X11970659Y1866411D01*
X11970657Y1866415D01*
X11970368Y1866999D01*
X11970071Y1867600D01*
X11970070Y1867605D01*
X11970068Y1867609D01*
X11969848Y1868257D01*
X11969642Y1868861D01*
X11969641Y1868866D01*
X11969640Y1868871D01*
X11969509Y1869524D01*
X11969381Y1870167D01*
X11969381Y1870172D01*
X11969380Y1870177D01*
X11969337Y1870825D01*
X11969293Y1871496D01*
X11969062Y2111240D01*
X11969062Y2111245D01*
X11969062Y2111249D01*
X11969061Y2116492D01*
Y2116492D01*
D01*
X11969148Y2117821D01*
X11970515Y2128219D01*
X11970689Y2129092D01*
X11970775Y2129526D01*
X11973489Y2139656D01*
X11973917Y2140917D01*
X11973917Y2140917D01*
X11977929Y2150605D01*
X11977930Y2150607D01*
X11978519Y2151801D01*
X11983762Y2160883D01*
X11984502Y2161990D01*
X11984503Y2161991D01*
X11990887Y2170311D01*
X11991765Y2171312D01*
X11991765Y2171312D01*
X11991765Y2171312D01*
X11999181Y2178727D01*
X12000183Y2179605D01*
X12008503Y2185989D01*
X12009610Y2186729D01*
D01*
X12009611Y2186729D01*
X12018694Y2191971D01*
X12019888Y2192561D01*
X12029578Y2196572D01*
X12030434Y2196863D01*
X12030839Y2197000D01*
X12040970Y2199713D01*
X12042276Y2199972D01*
X12042277D01*
X12052674Y2201339D01*
X12054003Y2201426D01*
D01*
X12054003D01*
X12059246Y2201425D01*
D02*
G37*
G36*
X11805246D02*
X11810486Y2201425D01*
X11810487D01*
D01*
X11811816Y2201338D01*
X11822212Y2199970D01*
X11822213D01*
X11823519Y2199711D01*
X11833648Y2196997D01*
X11834909Y2196569D01*
X11834913Y2196568D01*
X11844596Y2192557D01*
X11844598Y2192556D01*
X11844992Y2192362D01*
X11845792Y2191968D01*
X11845795Y2191966D01*
X11854874Y2186725D01*
X11855981Y2185985D01*
X11855982Y2185984D01*
X11864301Y2179601D01*
X11865303Y2178723D01*
X11872717Y2171308D01*
Y2171308D01*
X11872718D01*
X11873596Y2170307D01*
X11879979Y2161988D01*
X11879980Y2161987D01*
X11880720Y2160880D01*
X11885963Y2151798D01*
X11886552Y2150604D01*
X11890565Y2140916D01*
X11890993Y2139655D01*
X11890993Y2139654D01*
X11893706Y2129528D01*
X11893707Y2129525D01*
X11893915Y2128479D01*
X11893966Y2128219D01*
Y2128219D01*
X11895334Y2117824D01*
X11895335Y2117822D01*
X11895410Y2116679D01*
X11895422Y2116493D01*
Y2116493D01*
Y2116493D01*
X11895421Y2111264D01*
X11895421Y2111260D01*
X11895656Y1871515D01*
X11895656Y1871510D01*
X11895656Y1871505D01*
X11895612Y1870827D01*
X11895571Y1870185D01*
X11895570Y1870181D01*
X11895569Y1870176D01*
X11895433Y1869493D01*
X11895312Y1868879D01*
X11895310Y1868874D01*
X11895309Y1868869D01*
X11895081Y1868195D01*
X11894885Y1867618D01*
X11894883Y1867613D01*
X11894881Y1867608D01*
X11894590Y1867018D01*
X11894297Y1866422D01*
X11894294Y1866417D01*
X11894292Y1866414D01*
X11893921Y1865858D01*
X11893558Y1865314D01*
X11893556Y1865311D01*
X11893552Y1865306D01*
X11893084Y1864772D01*
X11892681Y1864312D01*
X11892678Y1864309D01*
X11892674Y1864305D01*
X11892162Y1863855D01*
X11891681Y1863433D01*
X11891677Y1863430D01*
X11891673Y1863427D01*
X11891075Y1863027D01*
X11890574Y1862692D01*
X11890570Y1862690D01*
X11890566Y1862687D01*
X11889801Y1862310D01*
X11889380Y1862102D01*
X11889377Y1862101D01*
X11889371Y1862098D01*
X11888540Y1861816D01*
X11888119Y1861672D01*
X11888116Y1861672D01*
X11888110Y1861670D01*
X11887255Y1861500D01*
X11886813Y1861411D01*
X11886810Y1861411D01*
X11886804Y1861410D01*
X11886051Y1861361D01*
X11885484Y1861323D01*
X11885479Y1861323D01*
X11885475Y1861323D01*
X11725474Y1861324D01*
X11724813Y1861367D01*
X11724155Y1861410D01*
X11724150Y1861411D01*
X11724145Y1861411D01*
X11723512Y1861537D01*
X11722849Y1861668D01*
X11722844Y1861670D01*
X11722839Y1861671D01*
X11722245Y1861873D01*
X11721587Y1862095D01*
X11721583Y1862097D01*
X11721578Y1862099D01*
X11720985Y1862391D01*
X11720392Y1862683D01*
X11720388Y1862686D01*
X11720383Y1862688D01*
X11719759Y1863105D01*
X11719284Y1863422D01*
X11719281Y1863425D01*
X11719276Y1863428D01*
X11718725Y1863911D01*
X11718282Y1864299D01*
X11718278Y1864303D01*
X11718275Y1864306D01*
X11717833Y1864810D01*
X11717403Y1865300D01*
X11717400Y1865303D01*
X11717397Y1865307D01*
X11717018Y1865874D01*
X11716662Y1866406D01*
X11716659Y1866411D01*
X11716657Y1866415D01*
X11716368Y1866999D01*
X11716071Y1867600D01*
X11716070Y1867605D01*
X11716067Y1867609D01*
X11715848Y1868257D01*
X11715642Y1868861D01*
X11715641Y1868866D01*
X11715640Y1868871D01*
X11715509Y1869524D01*
X11715381Y1870167D01*
X11715381Y1870172D01*
X11715380Y1870177D01*
X11715337Y1870825D01*
X11715293Y1871496D01*
X11715062Y2111240D01*
X11715062Y2111245D01*
X11715062Y2111249D01*
X11715061Y2116492D01*
Y2116492D01*
D01*
X11715148Y2117821D01*
X11716515Y2128219D01*
X11716689Y2129092D01*
X11716775Y2129526D01*
X11719489Y2139656D01*
X11719917Y2140917D01*
X11719917Y2140917D01*
X11723929Y2150605D01*
X11723930Y2150607D01*
X11724519Y2151801D01*
X11729762Y2160883D01*
X11730502Y2161990D01*
X11730503Y2161991D01*
X11736887Y2170311D01*
X11737765Y2171312D01*
X11737765Y2171312D01*
X11737765Y2171312D01*
X11745181Y2178727D01*
X11746183Y2179605D01*
X11754503Y2185989D01*
X11755610Y2186729D01*
D01*
X11755611Y2186729D01*
X11764694Y2191971D01*
X11765888Y2192561D01*
X11775578Y2196572D01*
X11776434Y2196863D01*
X11776839Y2197000D01*
X11786970Y2199713D01*
X11788276Y2199972D01*
X11788277D01*
X11798674Y2201339D01*
X11800003Y2201426D01*
D01*
X11800003D01*
X11805246Y2201425D01*
D02*
G37*
G36*
X11551246D02*
X11556486Y2201425D01*
X11556487D01*
D01*
X11557816Y2201338D01*
X11568212Y2199970D01*
X11568213D01*
X11569519Y2199711D01*
X11579648Y2196997D01*
X11580909Y2196569D01*
X11580913Y2196568D01*
X11590596Y2192557D01*
X11590598Y2192556D01*
X11590992Y2192362D01*
X11591792Y2191968D01*
X11591795Y2191966D01*
X11600874Y2186725D01*
X11601981Y2185985D01*
X11601982Y2185984D01*
X11610301Y2179601D01*
X11611303Y2178723D01*
X11618717Y2171308D01*
Y2171308D01*
X11618718D01*
X11619596Y2170307D01*
X11625979Y2161988D01*
X11625980Y2161987D01*
X11626720Y2160880D01*
X11631963Y2151798D01*
X11632552Y2150604D01*
X11636565Y2140916D01*
X11636993Y2139655D01*
X11636993Y2139654D01*
X11639706Y2129528D01*
X11639707Y2129525D01*
X11639915Y2128479D01*
X11639966Y2128219D01*
Y2128219D01*
X11641334Y2117824D01*
X11641335Y2117822D01*
X11641410Y2116679D01*
X11641422Y2116493D01*
Y2116493D01*
Y2116493D01*
X11641421Y2111264D01*
X11641421Y2111260D01*
X11641656Y1871515D01*
X11641656Y1871510D01*
X11641656Y1871505D01*
X11641612Y1870827D01*
X11641571Y1870185D01*
X11641570Y1870181D01*
X11641569Y1870176D01*
X11641433Y1869493D01*
X11641312Y1868879D01*
X11641310Y1868874D01*
X11641309Y1868869D01*
X11641081Y1868195D01*
X11640885Y1867618D01*
X11640883Y1867613D01*
X11640881Y1867608D01*
X11640590Y1867018D01*
X11640297Y1866422D01*
X11640294Y1866417D01*
X11640292Y1866414D01*
X11639921Y1865858D01*
X11639558Y1865314D01*
X11639556Y1865311D01*
X11639552Y1865306D01*
X11639084Y1864772D01*
X11638681Y1864312D01*
X11638678Y1864309D01*
X11638674Y1864305D01*
X11638162Y1863855D01*
X11637681Y1863433D01*
X11637677Y1863430D01*
X11637673Y1863427D01*
X11637075Y1863027D01*
X11636574Y1862692D01*
X11636570Y1862690D01*
X11636566Y1862687D01*
X11635801Y1862310D01*
X11635380Y1862102D01*
X11635377Y1862101D01*
X11635371Y1862098D01*
X11634540Y1861816D01*
X11634119Y1861672D01*
X11634116Y1861672D01*
X11634110Y1861670D01*
X11633255Y1861500D01*
X11632813Y1861411D01*
X11632810Y1861411D01*
X11632804Y1861410D01*
X11632051Y1861361D01*
X11631484Y1861323D01*
X11631479Y1861323D01*
X11631475Y1861323D01*
X11471474Y1861324D01*
X11470813Y1861367D01*
X11470155Y1861410D01*
X11470150Y1861411D01*
X11470145Y1861411D01*
X11469512Y1861537D01*
X11468849Y1861668D01*
X11468844Y1861670D01*
X11468839Y1861671D01*
X11468245Y1861873D01*
X11467587Y1862095D01*
X11467583Y1862097D01*
X11467578Y1862099D01*
X11466985Y1862391D01*
X11466392Y1862683D01*
X11466388Y1862686D01*
X11466383Y1862688D01*
X11465759Y1863105D01*
X11465284Y1863422D01*
X11465281Y1863425D01*
X11465276Y1863428D01*
X11464725Y1863911D01*
X11464282Y1864299D01*
X11464278Y1864303D01*
X11464275Y1864306D01*
X11463833Y1864810D01*
X11463403Y1865300D01*
X11463400Y1865303D01*
X11463397Y1865307D01*
X11463018Y1865874D01*
X11462662Y1866406D01*
X11462659Y1866411D01*
X11462657Y1866415D01*
X11462368Y1866999D01*
X11462071Y1867600D01*
X11462070Y1867605D01*
X11462068Y1867609D01*
X11461848Y1868257D01*
X11461642Y1868861D01*
X11461641Y1868866D01*
X11461640Y1868871D01*
X11461509Y1869524D01*
X11461381Y1870167D01*
X11461381Y1870172D01*
X11461380Y1870177D01*
X11461337Y1870825D01*
X11461293Y1871496D01*
X11461062Y2111240D01*
X11461062Y2111245D01*
X11461062Y2111249D01*
X11461061Y2116492D01*
Y2116492D01*
D01*
X11461148Y2117821D01*
X11462515Y2128219D01*
X11462689Y2129092D01*
X11462775Y2129526D01*
X11465489Y2139656D01*
X11465917Y2140917D01*
X11465917Y2140917D01*
X11469929Y2150605D01*
X11469930Y2150607D01*
X11470519Y2151801D01*
X11475762Y2160883D01*
X11476502Y2161990D01*
X11476503Y2161991D01*
X11482887Y2170311D01*
X11483765Y2171312D01*
X11483765Y2171312D01*
X11483765Y2171312D01*
X11491181Y2178727D01*
X11492183Y2179605D01*
X11500503Y2185989D01*
X11501610Y2186729D01*
D01*
X11501611Y2186729D01*
X11510694Y2191971D01*
X11511888Y2192561D01*
X11521578Y2196572D01*
X11522434Y2196863D01*
X11522839Y2197000D01*
X11532970Y2199713D01*
X11534276Y2199972D01*
X11534277D01*
X11544674Y2201339D01*
X11546003Y2201426D01*
D01*
X11546003D01*
X11551246Y2201425D01*
D02*
G37*
G36*
X11297246D02*
X11302486Y2201425D01*
X11302487D01*
D01*
X11303816Y2201338D01*
X11314212Y2199970D01*
X11314213D01*
X11315519Y2199711D01*
X11325648Y2196997D01*
X11326909Y2196569D01*
X11326913Y2196568D01*
X11336596Y2192557D01*
X11336598Y2192556D01*
X11336992Y2192362D01*
X11337792Y2191968D01*
X11337795Y2191966D01*
X11346874Y2186725D01*
X11347981Y2185985D01*
X11347982Y2185984D01*
X11356301Y2179601D01*
X11357303Y2178723D01*
X11364717Y2171308D01*
Y2171308D01*
X11364718D01*
X11365596Y2170307D01*
X11371979Y2161988D01*
X11371980Y2161987D01*
X11372720Y2160880D01*
X11377963Y2151798D01*
X11378552Y2150604D01*
X11382565Y2140916D01*
X11382993Y2139655D01*
X11382993Y2139654D01*
X11385706Y2129528D01*
X11385707Y2129525D01*
X11385915Y2128479D01*
X11385966Y2128219D01*
Y2128219D01*
X11387334Y2117824D01*
X11387335Y2117822D01*
X11387410Y2116679D01*
X11387422Y2116493D01*
Y2116493D01*
Y2116493D01*
X11387421Y2111264D01*
X11387421Y2111260D01*
X11387656Y1871515D01*
X11387656Y1871510D01*
X11387656Y1871505D01*
X11387612Y1870827D01*
X11387571Y1870185D01*
X11387570Y1870181D01*
X11387569Y1870176D01*
X11387433Y1869493D01*
X11387312Y1868879D01*
X11387310Y1868874D01*
X11387309Y1868869D01*
X11387081Y1868195D01*
X11386885Y1867618D01*
X11386883Y1867613D01*
X11386881Y1867608D01*
X11386590Y1867018D01*
X11386297Y1866422D01*
X11386294Y1866417D01*
X11386292Y1866414D01*
X11385921Y1865858D01*
X11385558Y1865314D01*
X11385556Y1865311D01*
X11385552Y1865306D01*
X11385084Y1864772D01*
X11384681Y1864312D01*
X11384678Y1864309D01*
X11384674Y1864305D01*
X11384162Y1863855D01*
X11383681Y1863433D01*
X11383677Y1863430D01*
X11383673Y1863427D01*
X11383075Y1863027D01*
X11382574Y1862692D01*
X11382570Y1862690D01*
X11382565Y1862687D01*
X11381801Y1862310D01*
X11381380Y1862102D01*
X11381377Y1862101D01*
X11381371Y1862098D01*
X11380540Y1861816D01*
X11380119Y1861672D01*
X11380116Y1861672D01*
X11380110Y1861670D01*
X11379255Y1861500D01*
X11378813Y1861411D01*
X11378810Y1861411D01*
X11378804Y1861410D01*
X11378051Y1861361D01*
X11377484Y1861323D01*
X11377479Y1861323D01*
X11377475Y1861323D01*
X11217474Y1861324D01*
X11216813Y1861367D01*
X11216155Y1861410D01*
X11216150Y1861411D01*
X11216145Y1861411D01*
X11215512Y1861537D01*
X11214849Y1861668D01*
X11214844Y1861670D01*
X11214839Y1861671D01*
X11214245Y1861873D01*
X11213587Y1862095D01*
X11213583Y1862097D01*
X11213578Y1862099D01*
X11212985Y1862391D01*
X11212392Y1862683D01*
X11212388Y1862686D01*
X11212383Y1862688D01*
X11211759Y1863105D01*
X11211284Y1863422D01*
X11211281Y1863425D01*
X11211276Y1863428D01*
X11210725Y1863911D01*
X11210282Y1864299D01*
X11210278Y1864303D01*
X11210275Y1864306D01*
X11209833Y1864810D01*
X11209403Y1865300D01*
X11209400Y1865303D01*
X11209397Y1865307D01*
X11209018Y1865874D01*
X11208662Y1866406D01*
X11208659Y1866411D01*
X11208657Y1866415D01*
X11208368Y1866999D01*
X11208071Y1867600D01*
X11208070Y1867605D01*
X11208067Y1867609D01*
X11207848Y1868257D01*
X11207642Y1868861D01*
X11207641Y1868866D01*
X11207640Y1868871D01*
X11207509Y1869524D01*
X11207381Y1870167D01*
X11207381Y1870172D01*
X11207380Y1870177D01*
X11207337Y1870825D01*
X11207293Y1871496D01*
X11207062Y2111240D01*
X11207062Y2111245D01*
X11207062Y2111249D01*
X11207061Y2116492D01*
Y2116492D01*
D01*
X11207148Y2117821D01*
X11208515Y2128219D01*
X11208689Y2129092D01*
X11208775Y2129526D01*
X11211489Y2139656D01*
X11211917Y2140917D01*
X11211917Y2140917D01*
X11215929Y2150605D01*
X11215930Y2150607D01*
X11216519Y2151801D01*
X11221762Y2160883D01*
X11222502Y2161990D01*
X11222503Y2161991D01*
X11228887Y2170311D01*
X11229765Y2171312D01*
X11229765Y2171312D01*
X11229765Y2171312D01*
X11237181Y2178727D01*
X11238183Y2179605D01*
X11246503Y2185989D01*
X11247610Y2186729D01*
D01*
X11247611Y2186729D01*
X11256694Y2191971D01*
X11257888Y2192561D01*
X11267578Y2196572D01*
X11268434Y2196863D01*
X11268839Y2197000D01*
X11278970Y2199713D01*
X11280276Y2199972D01*
X11280277D01*
X11290674Y2201339D01*
X11292003Y2201426D01*
D01*
X11292003D01*
X11297246Y2201425D01*
D02*
G37*
G36*
X11043246D02*
X11048486Y2201425D01*
X11048487D01*
D01*
X11049816Y2201338D01*
X11060212Y2199970D01*
X11060213D01*
X11061519Y2199711D01*
X11071648Y2196997D01*
X11072909Y2196569D01*
X11072913Y2196568D01*
X11082596Y2192557D01*
X11082598Y2192556D01*
X11082992Y2192362D01*
X11083792Y2191968D01*
X11083795Y2191966D01*
X11092874Y2186725D01*
X11093981Y2185985D01*
X11093982Y2185984D01*
X11102301Y2179601D01*
X11103303Y2178723D01*
X11110717Y2171308D01*
Y2171308D01*
X11110718D01*
X11111596Y2170307D01*
X11117979Y2161988D01*
X11117980Y2161987D01*
X11118720Y2160880D01*
X11123963Y2151798D01*
X11124552Y2150604D01*
X11128565Y2140916D01*
X11128993Y2139655D01*
X11128993Y2139654D01*
X11131706Y2129528D01*
X11131707Y2129525D01*
X11131915Y2128479D01*
X11131966Y2128219D01*
Y2128219D01*
X11133334Y2117824D01*
X11133335Y2117822D01*
X11133410Y2116679D01*
X11133422Y2116493D01*
Y2116493D01*
Y2116493D01*
X11133421Y2111264D01*
X11133421Y2111260D01*
X11133656Y1871515D01*
X11133656Y1871510D01*
X11133656Y1871505D01*
X11133612Y1870827D01*
X11133571Y1870185D01*
X11133570Y1870181D01*
X11133569Y1870176D01*
X11133433Y1869493D01*
X11133312Y1868879D01*
X11133310Y1868874D01*
X11133309Y1868869D01*
X11133081Y1868195D01*
X11132885Y1867618D01*
X11132883Y1867613D01*
X11132881Y1867608D01*
X11132590Y1867018D01*
X11132297Y1866422D01*
X11132294Y1866417D01*
X11132292Y1866414D01*
X11131921Y1865858D01*
X11131558Y1865314D01*
X11131556Y1865311D01*
X11131552Y1865306D01*
X11131084Y1864772D01*
X11130681Y1864312D01*
X11130678Y1864309D01*
X11130674Y1864305D01*
X11130162Y1863855D01*
X11129681Y1863433D01*
X11129677Y1863430D01*
X11129673Y1863427D01*
X11129075Y1863027D01*
X11128574Y1862692D01*
X11128570Y1862690D01*
X11128566Y1862687D01*
X11127801Y1862310D01*
X11127380Y1862102D01*
X11127377Y1862101D01*
X11127371Y1862098D01*
X11126540Y1861816D01*
X11126119Y1861672D01*
X11126116Y1861672D01*
X11126110Y1861670D01*
X11125255Y1861500D01*
X11124813Y1861411D01*
X11124810Y1861411D01*
X11124804Y1861410D01*
X11124051Y1861361D01*
X11123484Y1861323D01*
X11123479Y1861323D01*
X11123475Y1861323D01*
X10963474Y1861324D01*
X10962813Y1861367D01*
X10962155Y1861410D01*
X10962150Y1861411D01*
X10962145Y1861411D01*
X10961512Y1861537D01*
X10960849Y1861668D01*
X10960844Y1861670D01*
X10960839Y1861671D01*
X10960245Y1861873D01*
X10959587Y1862095D01*
X10959583Y1862097D01*
X10959578Y1862099D01*
X10958985Y1862391D01*
X10958392Y1862683D01*
X10958388Y1862686D01*
X10958383Y1862688D01*
X10957759Y1863105D01*
X10957284Y1863422D01*
X10957281Y1863425D01*
X10957276Y1863428D01*
X10956725Y1863911D01*
X10956282Y1864299D01*
X10956278Y1864303D01*
X10956275Y1864306D01*
X10955833Y1864810D01*
X10955403Y1865300D01*
X10955400Y1865303D01*
X10955397Y1865307D01*
X10955018Y1865874D01*
X10954662Y1866406D01*
X10954659Y1866411D01*
X10954657Y1866415D01*
X10954368Y1866999D01*
X10954071Y1867600D01*
X10954070Y1867605D01*
X10954067Y1867609D01*
X10953848Y1868257D01*
X10953642Y1868861D01*
X10953641Y1868866D01*
X10953640Y1868871D01*
X10953509Y1869524D01*
X10953381Y1870167D01*
X10953381Y1870172D01*
X10953380Y1870177D01*
X10953337Y1870825D01*
X10953293Y1871496D01*
X10953062Y2111240D01*
X10953062Y2111245D01*
X10953062Y2111249D01*
X10953061Y2116492D01*
Y2116492D01*
D01*
X10953148Y2117821D01*
X10954515Y2128219D01*
X10954689Y2129092D01*
X10954775Y2129526D01*
X10957489Y2139656D01*
X10957917Y2140917D01*
X10957917Y2140917D01*
X10961929Y2150605D01*
X10961930Y2150607D01*
X10962519Y2151801D01*
X10967762Y2160883D01*
X10968502Y2161990D01*
X10968503Y2161991D01*
X10974887Y2170311D01*
X10975765Y2171312D01*
X10975765Y2171312D01*
X10975765Y2171312D01*
X10983181Y2178727D01*
X10984183Y2179605D01*
X10992503Y2185989D01*
X10993610Y2186729D01*
D01*
X10993611Y2186729D01*
X11002694Y2191971D01*
X11003888Y2192561D01*
X11013578Y2196572D01*
X11014434Y2196863D01*
X11014839Y2197000D01*
X11024970Y2199713D01*
X11026276Y2199972D01*
X11026277D01*
X11036674Y2201339D01*
X11038003Y2201426D01*
D01*
X11038003D01*
X11043246Y2201425D01*
D02*
G37*
G36*
X10789246D02*
X10794486Y2201425D01*
X10794487D01*
D01*
X10795816Y2201338D01*
X10806212Y2199970D01*
X10806213D01*
X10807519Y2199711D01*
X10817648Y2196997D01*
X10818909Y2196569D01*
X10818913Y2196568D01*
X10828596Y2192557D01*
X10828598Y2192556D01*
X10828992Y2192362D01*
X10829792Y2191968D01*
X10829795Y2191966D01*
X10838874Y2186725D01*
X10839981Y2185985D01*
X10839982Y2185984D01*
X10848301Y2179601D01*
X10849303Y2178723D01*
X10856717Y2171308D01*
Y2171308D01*
X10856718D01*
X10857596Y2170307D01*
X10863979Y2161988D01*
X10863980Y2161987D01*
X10864720Y2160880D01*
X10869963Y2151798D01*
X10870552Y2150604D01*
X10874565Y2140916D01*
X10874993Y2139655D01*
X10874993Y2139654D01*
X10877706Y2129528D01*
X10877707Y2129525D01*
X10877915Y2128479D01*
X10877966Y2128219D01*
Y2128219D01*
X10879334Y2117824D01*
X10879335Y2117822D01*
X10879410Y2116679D01*
X10879422Y2116493D01*
Y2116493D01*
Y2116493D01*
X10879421Y2111264D01*
X10879421Y2111260D01*
X10879656Y1871515D01*
X10879656Y1871510D01*
X10879656Y1871505D01*
X10879612Y1870827D01*
X10879571Y1870185D01*
X10879570Y1870181D01*
X10879569Y1870176D01*
X10879433Y1869493D01*
X10879312Y1868879D01*
X10879310Y1868874D01*
X10879309Y1868869D01*
X10879081Y1868195D01*
X10878885Y1867618D01*
X10878883Y1867613D01*
X10878881Y1867608D01*
X10878590Y1867018D01*
X10878297Y1866422D01*
X10878294Y1866417D01*
X10878292Y1866414D01*
X10877921Y1865858D01*
X10877558Y1865314D01*
X10877556Y1865311D01*
X10877552Y1865306D01*
X10877084Y1864772D01*
X10876681Y1864312D01*
X10876678Y1864309D01*
X10876674Y1864305D01*
X10876162Y1863855D01*
X10875681Y1863433D01*
X10875677Y1863430D01*
X10875673Y1863427D01*
X10875075Y1863027D01*
X10874574Y1862692D01*
X10874570Y1862690D01*
X10874565Y1862687D01*
X10873801Y1862310D01*
X10873380Y1862102D01*
X10873377Y1862101D01*
X10873371Y1862098D01*
X10872540Y1861816D01*
X10872119Y1861672D01*
X10872116Y1861672D01*
X10872110Y1861670D01*
X10871255Y1861500D01*
X10870813Y1861411D01*
X10870810Y1861411D01*
X10870804Y1861410D01*
X10870051Y1861361D01*
X10869484Y1861323D01*
X10869479Y1861323D01*
X10869475Y1861323D01*
X10709474Y1861324D01*
X10708813Y1861367D01*
X10708155Y1861410D01*
X10708150Y1861411D01*
X10708145Y1861411D01*
X10707512Y1861537D01*
X10706849Y1861668D01*
X10706844Y1861670D01*
X10706839Y1861671D01*
X10706245Y1861873D01*
X10705587Y1862095D01*
X10705583Y1862097D01*
X10705578Y1862099D01*
X10704985Y1862391D01*
X10704392Y1862683D01*
X10704388Y1862686D01*
X10704383Y1862688D01*
X10703759Y1863105D01*
X10703284Y1863422D01*
X10703281Y1863425D01*
X10703276Y1863428D01*
X10702725Y1863911D01*
X10702282Y1864299D01*
X10702278Y1864303D01*
X10702275Y1864306D01*
X10701833Y1864810D01*
X10701403Y1865300D01*
X10701400Y1865303D01*
X10701397Y1865307D01*
X10701018Y1865874D01*
X10700662Y1866406D01*
X10700659Y1866411D01*
X10700657Y1866415D01*
X10700368Y1866999D01*
X10700071Y1867600D01*
X10700070Y1867605D01*
X10700068Y1867609D01*
X10699848Y1868257D01*
X10699642Y1868861D01*
X10699641Y1868866D01*
X10699640Y1868871D01*
X10699509Y1869524D01*
X10699381Y1870167D01*
X10699381Y1870172D01*
X10699380Y1870177D01*
X10699337Y1870825D01*
X10699293Y1871496D01*
X10699062Y2111240D01*
X10699062Y2111245D01*
X10699062Y2111249D01*
X10699061Y2116492D01*
Y2116492D01*
D01*
X10699148Y2117821D01*
X10700515Y2128219D01*
X10700689Y2129092D01*
X10700775Y2129526D01*
X10703489Y2139656D01*
X10703917Y2140917D01*
X10703917Y2140917D01*
X10707929Y2150605D01*
X10707930Y2150607D01*
X10708519Y2151801D01*
X10713762Y2160883D01*
X10714502Y2161990D01*
X10714503Y2161991D01*
X10720887Y2170311D01*
X10721765Y2171312D01*
X10721765Y2171312D01*
X10721765Y2171312D01*
X10729181Y2178727D01*
X10730183Y2179605D01*
X10738503Y2185989D01*
X10739610Y2186729D01*
D01*
X10739611Y2186729D01*
X10748694Y2191971D01*
X10749888Y2192561D01*
X10759578Y2196572D01*
X10760434Y2196863D01*
X10760839Y2197000D01*
X10770970Y2199713D01*
X10772276Y2199972D01*
X10772277D01*
X10782674Y2201339D01*
X10784003Y2201426D01*
D01*
X10784003D01*
X10789246Y2201425D01*
D02*
G37*
G36*
X10535246D02*
X10540486Y2201425D01*
X10540487D01*
D01*
X10541816Y2201338D01*
X10552212Y2199970D01*
X10552213D01*
X10553519Y2199711D01*
X10563648Y2196997D01*
X10564909Y2196569D01*
X10564913Y2196568D01*
X10574596Y2192557D01*
X10574598Y2192556D01*
X10574992Y2192362D01*
X10575792Y2191968D01*
X10575795Y2191966D01*
X10584874Y2186725D01*
X10585981Y2185985D01*
X10585982Y2185984D01*
X10594301Y2179601D01*
X10595303Y2178723D01*
X10602717Y2171308D01*
Y2171308D01*
X10602718D01*
X10603596Y2170307D01*
X10609979Y2161988D01*
X10609980Y2161987D01*
X10610720Y2160880D01*
X10615963Y2151798D01*
X10616552Y2150604D01*
X10620565Y2140916D01*
X10620993Y2139655D01*
X10620993Y2139654D01*
X10623706Y2129528D01*
X10623707Y2129525D01*
X10623915Y2128479D01*
X10623966Y2128219D01*
Y2128219D01*
X10625334Y2117824D01*
X10625335Y2117822D01*
X10625410Y2116679D01*
X10625422Y2116493D01*
Y2116493D01*
Y2116493D01*
X10625421Y2111264D01*
X10625421Y2111260D01*
X10625656Y1871515D01*
X10625656Y1871510D01*
X10625656Y1871505D01*
X10625612Y1870827D01*
X10625571Y1870185D01*
X10625570Y1870181D01*
X10625569Y1870176D01*
X10625433Y1869493D01*
X10625312Y1868879D01*
X10625310Y1868874D01*
X10625309Y1868869D01*
X10625081Y1868195D01*
X10624885Y1867618D01*
X10624883Y1867613D01*
X10624881Y1867608D01*
X10624590Y1867018D01*
X10624297Y1866422D01*
X10624294Y1866417D01*
X10624292Y1866414D01*
X10623921Y1865858D01*
X10623558Y1865314D01*
X10623556Y1865311D01*
X10623552Y1865306D01*
X10623084Y1864772D01*
X10622681Y1864312D01*
X10622678Y1864309D01*
X10622674Y1864305D01*
X10622162Y1863855D01*
X10621681Y1863433D01*
X10621677Y1863430D01*
X10621673Y1863427D01*
X10621075Y1863027D01*
X10620574Y1862692D01*
X10620570Y1862690D01*
X10620566Y1862687D01*
X10619801Y1862310D01*
X10619380Y1862102D01*
X10619377Y1862101D01*
X10619371Y1862098D01*
X10618540Y1861816D01*
X10618119Y1861672D01*
X10618116Y1861672D01*
X10618110Y1861670D01*
X10617255Y1861500D01*
X10616813Y1861411D01*
X10616810Y1861411D01*
X10616804Y1861410D01*
X10616051Y1861361D01*
X10615484Y1861323D01*
X10615479Y1861323D01*
X10615475Y1861323D01*
X10455474Y1861324D01*
X10454813Y1861367D01*
X10454155Y1861410D01*
X10454150Y1861411D01*
X10454145Y1861411D01*
X10453512Y1861537D01*
X10452849Y1861668D01*
X10452844Y1861670D01*
X10452839Y1861671D01*
X10452245Y1861873D01*
X10451587Y1862095D01*
X10451583Y1862097D01*
X10451578Y1862099D01*
X10450985Y1862391D01*
X10450392Y1862683D01*
X10450388Y1862686D01*
X10450383Y1862688D01*
X10449759Y1863105D01*
X10449284Y1863422D01*
X10449281Y1863425D01*
X10449276Y1863428D01*
X10448725Y1863911D01*
X10448282Y1864299D01*
X10448278Y1864303D01*
X10448275Y1864306D01*
X10447833Y1864810D01*
X10447403Y1865300D01*
X10447400Y1865303D01*
X10447397Y1865307D01*
X10447018Y1865874D01*
X10446662Y1866406D01*
X10446659Y1866411D01*
X10446657Y1866415D01*
X10446368Y1866999D01*
X10446071Y1867600D01*
X10446070Y1867605D01*
X10446067Y1867609D01*
X10445848Y1868257D01*
X10445642Y1868861D01*
X10445641Y1868866D01*
X10445640Y1868871D01*
X10445509Y1869524D01*
X10445381Y1870167D01*
X10445381Y1870172D01*
X10445380Y1870177D01*
X10445337Y1870825D01*
X10445293Y1871496D01*
X10445062Y2111240D01*
X10445062Y2111245D01*
X10445062Y2111249D01*
X10445061Y2116492D01*
Y2116492D01*
D01*
X10445148Y2117821D01*
X10446515Y2128219D01*
X10446689Y2129092D01*
X10446775Y2129526D01*
X10449489Y2139656D01*
X10449917Y2140917D01*
X10449917Y2140917D01*
X10453929Y2150605D01*
X10453930Y2150607D01*
X10454519Y2151801D01*
X10459762Y2160883D01*
X10460502Y2161990D01*
X10460503Y2161991D01*
X10466887Y2170311D01*
X10467765Y2171312D01*
X10467765Y2171312D01*
X10467765Y2171312D01*
X10475181Y2178727D01*
X10476183Y2179605D01*
X10484503Y2185989D01*
X10485610Y2186729D01*
D01*
X10485611Y2186729D01*
X10494694Y2191971D01*
X10495888Y2192561D01*
X10505578Y2196572D01*
X10506434Y2196863D01*
X10506839Y2197000D01*
X10516970Y2199713D01*
X10518276Y2199972D01*
X10518277D01*
X10528674Y2201339D01*
X10530003Y2201426D01*
D01*
X10530003D01*
X10535246Y2201425D01*
D02*
G37*
G36*
X10281246D02*
X10286486Y2201425D01*
X10286487D01*
D01*
X10287816Y2201338D01*
X10298212Y2199970D01*
X10298213D01*
X10299519Y2199711D01*
X10309648Y2196997D01*
X10310909Y2196569D01*
X10310913Y2196568D01*
X10320596Y2192557D01*
X10320598Y2192556D01*
X10320992Y2192362D01*
X10321792Y2191968D01*
X10321795Y2191966D01*
X10330874Y2186725D01*
X10331981Y2185985D01*
X10331982Y2185984D01*
X10340301Y2179601D01*
X10341303Y2178723D01*
X10348717Y2171308D01*
Y2171308D01*
X10348718D01*
X10349596Y2170307D01*
X10355979Y2161988D01*
X10355980Y2161987D01*
X10356720Y2160880D01*
X10361963Y2151798D01*
X10362552Y2150604D01*
X10366565Y2140916D01*
X10366993Y2139655D01*
X10366993Y2139654D01*
X10369706Y2129528D01*
X10369707Y2129525D01*
X10369915Y2128479D01*
X10369966Y2128219D01*
Y2128219D01*
X10371334Y2117824D01*
X10371335Y2117822D01*
X10371410Y2116679D01*
X10371422Y2116493D01*
Y2116493D01*
Y2116493D01*
X10371421Y2111264D01*
X10371421Y2111260D01*
X10371656Y1871515D01*
X10371656Y1871510D01*
X10371656Y1871505D01*
X10371612Y1870827D01*
X10371571Y1870185D01*
X10371570Y1870181D01*
X10371569Y1870176D01*
X10371433Y1869493D01*
X10371312Y1868879D01*
X10371310Y1868874D01*
X10371309Y1868869D01*
X10371081Y1868195D01*
X10370885Y1867618D01*
X10370883Y1867613D01*
X10370881Y1867608D01*
X10370590Y1867018D01*
X10370297Y1866422D01*
X10370294Y1866417D01*
X10370292Y1866414D01*
X10369921Y1865858D01*
X10369558Y1865314D01*
X10369556Y1865311D01*
X10369552Y1865306D01*
X10369084Y1864772D01*
X10368681Y1864312D01*
X10368678Y1864309D01*
X10368674Y1864305D01*
X10368162Y1863855D01*
X10367681Y1863433D01*
X10367677Y1863430D01*
X10367673Y1863427D01*
X10367075Y1863027D01*
X10366574Y1862692D01*
X10366570Y1862690D01*
X10366565Y1862687D01*
X10365801Y1862310D01*
X10365380Y1862102D01*
X10365377Y1862101D01*
X10365371Y1862098D01*
X10364540Y1861816D01*
X10364119Y1861672D01*
X10364116Y1861672D01*
X10364110Y1861670D01*
X10363255Y1861500D01*
X10362813Y1861411D01*
X10362810Y1861411D01*
X10362804Y1861410D01*
X10362051Y1861361D01*
X10361484Y1861323D01*
X10361479Y1861323D01*
X10361475Y1861323D01*
X10201474Y1861324D01*
X10200813Y1861367D01*
X10200155Y1861410D01*
X10200150Y1861411D01*
X10200145Y1861411D01*
X10199512Y1861537D01*
X10198849Y1861668D01*
X10198844Y1861670D01*
X10198839Y1861671D01*
X10198245Y1861873D01*
X10197587Y1862095D01*
X10197583Y1862097D01*
X10197578Y1862099D01*
X10196985Y1862391D01*
X10196392Y1862683D01*
X10196388Y1862686D01*
X10196383Y1862688D01*
X10195759Y1863105D01*
X10195284Y1863422D01*
X10195281Y1863425D01*
X10195276Y1863428D01*
X10194725Y1863911D01*
X10194282Y1864299D01*
X10194278Y1864303D01*
X10194275Y1864306D01*
X10193833Y1864810D01*
X10193403Y1865300D01*
X10193400Y1865303D01*
X10193397Y1865307D01*
X10193018Y1865874D01*
X10192662Y1866406D01*
X10192659Y1866411D01*
X10192657Y1866415D01*
X10192368Y1866999D01*
X10192071Y1867600D01*
X10192070Y1867605D01*
X10192068Y1867609D01*
X10191848Y1868257D01*
X10191642Y1868861D01*
X10191641Y1868866D01*
X10191640Y1868871D01*
X10191509Y1869524D01*
X10191381Y1870167D01*
X10191381Y1870172D01*
X10191380Y1870177D01*
X10191337Y1870825D01*
X10191293Y1871496D01*
X10191062Y2111240D01*
X10191062Y2111245D01*
X10191062Y2111249D01*
X10191061Y2116492D01*
Y2116492D01*
D01*
X10191148Y2117821D01*
X10192515Y2128219D01*
X10192689Y2129092D01*
X10192775Y2129526D01*
X10195489Y2139656D01*
X10195917Y2140917D01*
X10195917Y2140917D01*
X10199929Y2150605D01*
X10199930Y2150607D01*
X10200519Y2151801D01*
X10205762Y2160883D01*
X10206502Y2161990D01*
X10206503Y2161991D01*
X10212887Y2170311D01*
X10213765Y2171312D01*
X10213765Y2171312D01*
X10213765Y2171312D01*
X10221181Y2178727D01*
X10222183Y2179605D01*
X10230503Y2185989D01*
X10231610Y2186729D01*
D01*
X10231611Y2186729D01*
X10240694Y2191971D01*
X10241888Y2192561D01*
X10251578Y2196572D01*
X10252434Y2196863D01*
X10252839Y2197000D01*
X10262970Y2199713D01*
X10264276Y2199972D01*
X10264277D01*
X10274674Y2201339D01*
X10276003Y2201426D01*
D01*
X10276003D01*
X10281246Y2201425D01*
D02*
G37*
G36*
X10027246D02*
X10032486Y2201425D01*
X10032487D01*
D01*
X10033816Y2201338D01*
X10044212Y2199970D01*
X10044213D01*
X10045519Y2199711D01*
X10055648Y2196997D01*
X10056909Y2196569D01*
X10056913Y2196568D01*
X10066596Y2192557D01*
X10066598Y2192556D01*
X10066992Y2192362D01*
X10067792Y2191968D01*
X10067795Y2191966D01*
X10076874Y2186725D01*
X10077981Y2185985D01*
X10077982Y2185984D01*
X10086301Y2179601D01*
X10087303Y2178723D01*
X10094717Y2171308D01*
Y2171308D01*
X10094718D01*
X10095596Y2170307D01*
X10101979Y2161988D01*
X10101980Y2161987D01*
X10102720Y2160880D01*
X10107963Y2151798D01*
X10108552Y2150604D01*
X10112565Y2140916D01*
X10112993Y2139655D01*
X10112993Y2139654D01*
X10115706Y2129528D01*
X10115707Y2129525D01*
X10115915Y2128479D01*
X10115966Y2128219D01*
Y2128219D01*
X10117334Y2117824D01*
X10117335Y2117822D01*
X10117410Y2116679D01*
X10117422Y2116493D01*
Y2116493D01*
Y2116493D01*
X10117421Y2111264D01*
X10117421Y2111260D01*
X10117656Y1871515D01*
X10117656Y1871510D01*
X10117656Y1871505D01*
X10117612Y1870827D01*
X10117571Y1870185D01*
X10117570Y1870181D01*
X10117569Y1870176D01*
X10117433Y1869493D01*
X10117312Y1868879D01*
X10117310Y1868874D01*
X10117309Y1868869D01*
X10117081Y1868195D01*
X10116885Y1867618D01*
X10116883Y1867613D01*
X10116881Y1867608D01*
X10116590Y1867018D01*
X10116297Y1866422D01*
X10116294Y1866417D01*
X10116292Y1866414D01*
X10115921Y1865858D01*
X10115558Y1865314D01*
X10115556Y1865311D01*
X10115552Y1865306D01*
X10115084Y1864772D01*
X10114681Y1864312D01*
X10114678Y1864309D01*
X10114674Y1864305D01*
X10114162Y1863855D01*
X10113681Y1863433D01*
X10113677Y1863430D01*
X10113673Y1863427D01*
X10113075Y1863027D01*
X10112574Y1862692D01*
X10112570Y1862690D01*
X10112565Y1862687D01*
X10111801Y1862310D01*
X10111380Y1862102D01*
X10111377Y1862101D01*
X10111371Y1862098D01*
X10110540Y1861816D01*
X10110119Y1861672D01*
X10110116Y1861672D01*
X10110110Y1861670D01*
X10109255Y1861500D01*
X10108813Y1861411D01*
X10108810Y1861411D01*
X10108804Y1861410D01*
X10108051Y1861361D01*
X10107484Y1861323D01*
X10107479Y1861323D01*
X10107475Y1861323D01*
X9947474Y1861324D01*
X9946813Y1861367D01*
X9946155Y1861410D01*
X9946150Y1861411D01*
X9946145Y1861411D01*
X9945512Y1861537D01*
X9944849Y1861668D01*
X9944844Y1861670D01*
X9944839Y1861671D01*
X9944245Y1861873D01*
X9943587Y1862095D01*
X9943583Y1862097D01*
X9943578Y1862099D01*
X9942985Y1862391D01*
X9942392Y1862683D01*
X9942388Y1862686D01*
X9942383Y1862688D01*
X9941759Y1863105D01*
X9941284Y1863422D01*
X9941281Y1863425D01*
X9941276Y1863428D01*
X9940725Y1863911D01*
X9940282Y1864299D01*
X9940278Y1864303D01*
X9940275Y1864306D01*
X9939833Y1864810D01*
X9939403Y1865300D01*
X9939400Y1865303D01*
X9939397Y1865307D01*
X9939018Y1865874D01*
X9938662Y1866406D01*
X9938659Y1866411D01*
X9938657Y1866415D01*
X9938368Y1866999D01*
X9938071Y1867600D01*
X9938070Y1867605D01*
X9938067Y1867609D01*
X9937848Y1868257D01*
X9937642Y1868861D01*
X9937641Y1868866D01*
X9937640Y1868871D01*
X9937509Y1869524D01*
X9937381Y1870167D01*
X9937381Y1870172D01*
X9937380Y1870177D01*
X9937337Y1870825D01*
X9937293Y1871496D01*
X9937062Y2111240D01*
X9937062Y2111245D01*
X9937062Y2111249D01*
X9937061Y2116492D01*
Y2116492D01*
D01*
X9937148Y2117821D01*
X9938515Y2128219D01*
X9938689Y2129092D01*
X9938775Y2129526D01*
X9941489Y2139656D01*
X9941917Y2140917D01*
X9941917Y2140917D01*
X9945929Y2150605D01*
X9945930Y2150607D01*
X9946519Y2151801D01*
X9951762Y2160883D01*
X9952502Y2161990D01*
X9952503Y2161991D01*
X9958887Y2170311D01*
X9959765Y2171312D01*
X9959765Y2171312D01*
X9959765Y2171312D01*
X9967181Y2178727D01*
X9968183Y2179605D01*
X9976503Y2185989D01*
X9977610Y2186729D01*
D01*
X9977611Y2186729D01*
X9986694Y2191971D01*
X9987888Y2192561D01*
X9997578Y2196572D01*
X9998434Y2196863D01*
X9998839Y2197000D01*
X10008970Y2199713D01*
X10010276Y2199972D01*
X10010277D01*
X10020674Y2201339D01*
X10022003Y2201426D01*
D01*
X10022003D01*
X10027246Y2201425D01*
D02*
G37*
G36*
X9773246D02*
X9778486Y2201425D01*
X9778487D01*
D01*
X9779816Y2201338D01*
X9790212Y2199970D01*
X9790213D01*
X9791519Y2199711D01*
X9801648Y2196997D01*
X9802909Y2196569D01*
X9802913Y2196568D01*
X9812596Y2192557D01*
X9812598Y2192556D01*
X9812992Y2192362D01*
X9813792Y2191968D01*
X9813795Y2191966D01*
X9822874Y2186725D01*
X9823981Y2185985D01*
X9823982Y2185984D01*
X9832301Y2179601D01*
X9833303Y2178723D01*
X9840717Y2171308D01*
Y2171308D01*
X9840718D01*
X9841596Y2170307D01*
X9847979Y2161988D01*
X9847980Y2161987D01*
X9848720Y2160880D01*
X9853963Y2151798D01*
X9854552Y2150604D01*
X9858565Y2140916D01*
X9858993Y2139655D01*
X9858993Y2139654D01*
X9861706Y2129528D01*
X9861707Y2129525D01*
X9861915Y2128479D01*
X9861966Y2128219D01*
Y2128219D01*
X9863334Y2117824D01*
X9863335Y2117822D01*
X9863410Y2116679D01*
X9863422Y2116493D01*
Y2116493D01*
Y2116493D01*
X9863421Y2111264D01*
X9863421Y2111260D01*
X9863656Y1871515D01*
X9863656Y1871510D01*
X9863656Y1871505D01*
X9863612Y1870827D01*
X9863571Y1870185D01*
X9863570Y1870181D01*
X9863569Y1870176D01*
X9863433Y1869493D01*
X9863312Y1868879D01*
X9863310Y1868874D01*
X9863309Y1868869D01*
X9863081Y1868195D01*
X9862885Y1867618D01*
X9862883Y1867613D01*
X9862881Y1867608D01*
X9862590Y1867018D01*
X9862297Y1866422D01*
X9862294Y1866417D01*
X9862292Y1866414D01*
X9861921Y1865858D01*
X9861558Y1865314D01*
X9861556Y1865311D01*
X9861552Y1865306D01*
X9861084Y1864772D01*
X9860681Y1864312D01*
X9860678Y1864309D01*
X9860674Y1864305D01*
X9860162Y1863855D01*
X9859681Y1863433D01*
X9859677Y1863430D01*
X9859673Y1863427D01*
X9859075Y1863027D01*
X9858574Y1862692D01*
X9858570Y1862690D01*
X9858565Y1862687D01*
X9857801Y1862310D01*
X9857380Y1862102D01*
X9857377Y1862101D01*
X9857371Y1862098D01*
X9856540Y1861816D01*
X9856119Y1861672D01*
X9856116Y1861672D01*
X9856110Y1861670D01*
X9855255Y1861500D01*
X9854813Y1861411D01*
X9854810Y1861411D01*
X9854804Y1861410D01*
X9854051Y1861361D01*
X9853484Y1861323D01*
X9853479Y1861323D01*
X9853475Y1861323D01*
X9693474Y1861324D01*
X9692813Y1861367D01*
X9692155Y1861410D01*
X9692150Y1861411D01*
X9692145Y1861411D01*
X9691512Y1861537D01*
X9690849Y1861668D01*
X9690844Y1861670D01*
X9690839Y1861671D01*
X9690245Y1861873D01*
X9689587Y1862095D01*
X9689583Y1862097D01*
X9689578Y1862099D01*
X9688985Y1862391D01*
X9688392Y1862683D01*
X9688388Y1862686D01*
X9688383Y1862688D01*
X9687759Y1863105D01*
X9687284Y1863422D01*
X9687281Y1863425D01*
X9687276Y1863428D01*
X9686725Y1863911D01*
X9686282Y1864299D01*
X9686278Y1864303D01*
X9686275Y1864306D01*
X9685833Y1864810D01*
X9685403Y1865300D01*
X9685400Y1865303D01*
X9685397Y1865307D01*
X9685018Y1865874D01*
X9684662Y1866406D01*
X9684659Y1866411D01*
X9684657Y1866415D01*
X9684368Y1866999D01*
X9684071Y1867600D01*
X9684070Y1867605D01*
X9684068Y1867609D01*
X9683848Y1868257D01*
X9683642Y1868861D01*
X9683641Y1868866D01*
X9683640Y1868871D01*
X9683509Y1869524D01*
X9683381Y1870167D01*
X9683381Y1870172D01*
X9683380Y1870177D01*
X9683337Y1870825D01*
X9683293Y1871496D01*
X9683062Y2111240D01*
X9683062Y2111245D01*
X9683062Y2111249D01*
X9683061Y2116492D01*
Y2116492D01*
D01*
X9683148Y2117821D01*
X9684515Y2128219D01*
X9684689Y2129092D01*
X9684775Y2129526D01*
X9687489Y2139656D01*
X9687917Y2140917D01*
X9687917Y2140917D01*
X9691929Y2150605D01*
X9691930Y2150607D01*
X9692519Y2151801D01*
X9697762Y2160883D01*
X9698502Y2161990D01*
X9698503Y2161991D01*
X9704887Y2170311D01*
X9705765Y2171312D01*
X9705765Y2171312D01*
X9705765Y2171312D01*
X9713181Y2178727D01*
X9714183Y2179605D01*
X9722503Y2185989D01*
X9723610Y2186729D01*
D01*
X9723611Y2186729D01*
X9732694Y2191971D01*
X9733888Y2192561D01*
X9743578Y2196572D01*
X9744434Y2196863D01*
X9744839Y2197000D01*
X9754970Y2199713D01*
X9756276Y2199972D01*
X9756277D01*
X9766674Y2201339D01*
X9768003Y2201426D01*
D01*
X9768003D01*
X9773246Y2201425D01*
D02*
G37*
G36*
X9519246D02*
X9524486Y2201425D01*
X9524487D01*
D01*
X9525816Y2201338D01*
X9536212Y2199970D01*
X9536213D01*
X9537519Y2199711D01*
X9547648Y2196997D01*
X9548909Y2196569D01*
X9548913Y2196568D01*
X9558596Y2192557D01*
X9558598Y2192556D01*
X9558992Y2192362D01*
X9559792Y2191968D01*
X9559795Y2191966D01*
X9568874Y2186725D01*
X9569981Y2185985D01*
X9569982Y2185984D01*
X9578301Y2179601D01*
X9579303Y2178723D01*
X9586717Y2171308D01*
Y2171308D01*
X9586718D01*
X9587596Y2170307D01*
X9593979Y2161988D01*
X9593980Y2161987D01*
X9594720Y2160880D01*
X9599963Y2151798D01*
X9600552Y2150604D01*
X9604565Y2140916D01*
X9604993Y2139655D01*
X9604993Y2139654D01*
X9607706Y2129528D01*
X9607707Y2129525D01*
X9607915Y2128479D01*
X9607966Y2128219D01*
Y2128219D01*
X9609334Y2117824D01*
X9609335Y2117822D01*
X9609410Y2116679D01*
X9609422Y2116493D01*
Y2116493D01*
Y2116493D01*
X9609421Y2111264D01*
X9609421Y2111260D01*
X9609656Y1871515D01*
X9609656Y1871510D01*
X9609656Y1871505D01*
X9609612Y1870827D01*
X9609571Y1870185D01*
X9609570Y1870181D01*
X9609569Y1870176D01*
X9609433Y1869493D01*
X9609312Y1868879D01*
X9609310Y1868874D01*
X9609309Y1868869D01*
X9609081Y1868195D01*
X9608885Y1867618D01*
X9608883Y1867613D01*
X9608881Y1867608D01*
X9608590Y1867018D01*
X9608297Y1866422D01*
X9608294Y1866417D01*
X9608292Y1866414D01*
X9607921Y1865858D01*
X9607558Y1865314D01*
X9607556Y1865311D01*
X9607552Y1865306D01*
X9607084Y1864772D01*
X9606681Y1864312D01*
X9606678Y1864309D01*
X9606674Y1864305D01*
X9606162Y1863855D01*
X9605681Y1863433D01*
X9605677Y1863430D01*
X9605673Y1863427D01*
X9605075Y1863027D01*
X9604574Y1862692D01*
X9604570Y1862690D01*
X9604565Y1862687D01*
X9603801Y1862310D01*
X9603380Y1862102D01*
X9603377Y1862101D01*
X9603371Y1862098D01*
X9602540Y1861816D01*
X9602119Y1861672D01*
X9602116Y1861672D01*
X9602110Y1861670D01*
X9601255Y1861500D01*
X9600813Y1861411D01*
X9600810Y1861411D01*
X9600804Y1861410D01*
X9600051Y1861361D01*
X9599484Y1861323D01*
X9599479Y1861323D01*
X9599475Y1861323D01*
X9439474Y1861324D01*
X9438813Y1861367D01*
X9438155Y1861410D01*
X9438150Y1861411D01*
X9438145Y1861411D01*
X9437512Y1861537D01*
X9436849Y1861668D01*
X9436844Y1861670D01*
X9436839Y1861671D01*
X9436245Y1861873D01*
X9435587Y1862095D01*
X9435583Y1862097D01*
X9435578Y1862099D01*
X9434985Y1862391D01*
X9434392Y1862683D01*
X9434388Y1862686D01*
X9434383Y1862688D01*
X9433759Y1863105D01*
X9433284Y1863422D01*
X9433281Y1863425D01*
X9433276Y1863428D01*
X9432725Y1863911D01*
X9432282Y1864299D01*
X9432278Y1864303D01*
X9432275Y1864306D01*
X9431833Y1864810D01*
X9431403Y1865300D01*
X9431400Y1865303D01*
X9431397Y1865307D01*
X9431018Y1865874D01*
X9430662Y1866406D01*
X9430659Y1866411D01*
X9430657Y1866415D01*
X9430368Y1866999D01*
X9430071Y1867600D01*
X9430070Y1867605D01*
X9430067Y1867609D01*
X9429848Y1868257D01*
X9429642Y1868861D01*
X9429641Y1868866D01*
X9429640Y1868871D01*
X9429509Y1869524D01*
X9429381Y1870167D01*
X9429381Y1870172D01*
X9429380Y1870177D01*
X9429337Y1870825D01*
X9429293Y1871496D01*
X9429062Y2111240D01*
X9429062Y2111245D01*
X9429062Y2111249D01*
X9429061Y2116492D01*
Y2116492D01*
D01*
X9429148Y2117821D01*
X9430515Y2128219D01*
X9430689Y2129092D01*
X9430775Y2129526D01*
X9433489Y2139656D01*
X9433917Y2140917D01*
X9433917Y2140917D01*
X9437929Y2150605D01*
X9437930Y2150607D01*
X9438519Y2151801D01*
X9443762Y2160883D01*
X9444502Y2161990D01*
X9444503Y2161991D01*
X9450887Y2170311D01*
X9451765Y2171312D01*
X9451765Y2171312D01*
X9451765Y2171312D01*
X9459181Y2178727D01*
X9460183Y2179605D01*
X9468503Y2185989D01*
X9469610Y2186729D01*
D01*
X9469611Y2186729D01*
X9478694Y2191971D01*
X9479888Y2192561D01*
X9489578Y2196572D01*
X9490434Y2196863D01*
X9490839Y2197000D01*
X9500970Y2199713D01*
X9502276Y2199972D01*
X9502277D01*
X9512674Y2201339D01*
X9514003Y2201426D01*
D01*
X9514003D01*
X9519246Y2201425D01*
D02*
G37*
G36*
X9265246D02*
X9270486Y2201425D01*
X9270487D01*
D01*
X9271816Y2201338D01*
X9282212Y2199970D01*
X9282213D01*
X9283519Y2199711D01*
X9293648Y2196997D01*
X9294909Y2196569D01*
X9294913Y2196568D01*
X9304596Y2192557D01*
X9304598Y2192556D01*
X9304992Y2192362D01*
X9305792Y2191968D01*
X9305795Y2191966D01*
X9314874Y2186725D01*
X9315981Y2185985D01*
X9315982Y2185984D01*
X9324301Y2179601D01*
X9325303Y2178723D01*
X9332717Y2171308D01*
Y2171308D01*
X9332718D01*
X9333596Y2170307D01*
X9339979Y2161988D01*
X9339980Y2161987D01*
X9340720Y2160880D01*
X9345963Y2151798D01*
X9346552Y2150604D01*
X9350565Y2140916D01*
X9350993Y2139655D01*
X9350993Y2139654D01*
X9353706Y2129528D01*
X9353707Y2129525D01*
X9353915Y2128479D01*
X9353966Y2128219D01*
Y2128219D01*
X9355334Y2117824D01*
X9355335Y2117822D01*
X9355410Y2116679D01*
X9355422Y2116493D01*
Y2116493D01*
Y2116493D01*
X9355421Y2111264D01*
X9355421Y2111260D01*
X9355656Y1871515D01*
X9355656Y1871510D01*
X9355656Y1871505D01*
X9355612Y1870827D01*
X9355571Y1870185D01*
X9355570Y1870181D01*
X9355569Y1870176D01*
X9355433Y1869493D01*
X9355312Y1868879D01*
X9355310Y1868874D01*
X9355309Y1868869D01*
X9355081Y1868195D01*
X9354885Y1867618D01*
X9354883Y1867613D01*
X9354881Y1867608D01*
X9354590Y1867018D01*
X9354297Y1866422D01*
X9354294Y1866417D01*
X9354292Y1866414D01*
X9353921Y1865858D01*
X9353558Y1865314D01*
X9353556Y1865311D01*
X9353552Y1865306D01*
X9353084Y1864772D01*
X9352681Y1864312D01*
X9352678Y1864309D01*
X9352674Y1864305D01*
X9352162Y1863855D01*
X9351681Y1863433D01*
X9351677Y1863430D01*
X9351673Y1863427D01*
X9351075Y1863027D01*
X9350574Y1862692D01*
X9350570Y1862690D01*
X9350565Y1862687D01*
X9349801Y1862310D01*
X9349380Y1862102D01*
X9349377Y1862101D01*
X9349371Y1862098D01*
X9348540Y1861816D01*
X9348119Y1861672D01*
X9348116Y1861672D01*
X9348110Y1861670D01*
X9347255Y1861500D01*
X9346813Y1861411D01*
X9346810Y1861411D01*
X9346804Y1861410D01*
X9346051Y1861361D01*
X9345484Y1861323D01*
X9345479Y1861323D01*
X9345475Y1861323D01*
X9185474Y1861324D01*
X9184813Y1861367D01*
X9184155Y1861410D01*
X9184150Y1861411D01*
X9184145Y1861411D01*
X9183512Y1861537D01*
X9182849Y1861668D01*
X9182844Y1861670D01*
X9182839Y1861671D01*
X9182245Y1861873D01*
X9181587Y1862095D01*
X9181583Y1862097D01*
X9181578Y1862099D01*
X9180985Y1862391D01*
X9180392Y1862683D01*
X9180388Y1862686D01*
X9180383Y1862688D01*
X9179759Y1863105D01*
X9179284Y1863422D01*
X9179281Y1863425D01*
X9179276Y1863428D01*
X9178725Y1863911D01*
X9178282Y1864299D01*
X9178278Y1864303D01*
X9178275Y1864306D01*
X9177833Y1864810D01*
X9177403Y1865300D01*
X9177400Y1865303D01*
X9177397Y1865307D01*
X9177018Y1865874D01*
X9176662Y1866406D01*
X9176659Y1866411D01*
X9176657Y1866415D01*
X9176368Y1866999D01*
X9176071Y1867600D01*
X9176070Y1867605D01*
X9176068Y1867609D01*
X9175848Y1868257D01*
X9175642Y1868861D01*
X9175641Y1868866D01*
X9175640Y1868871D01*
X9175509Y1869524D01*
X9175381Y1870167D01*
X9175381Y1870172D01*
X9175380Y1870177D01*
X9175337Y1870825D01*
X9175293Y1871496D01*
X9175062Y2111240D01*
X9175062Y2111245D01*
X9175062Y2111249D01*
X9175061Y2116492D01*
Y2116492D01*
D01*
X9175148Y2117821D01*
X9176515Y2128219D01*
X9176689Y2129092D01*
X9176775Y2129526D01*
X9179489Y2139656D01*
X9179917Y2140917D01*
X9179917Y2140917D01*
X9183929Y2150605D01*
X9183930Y2150607D01*
X9184519Y2151801D01*
X9189762Y2160883D01*
X9190502Y2161990D01*
X9190503Y2161991D01*
X9196887Y2170311D01*
X9197765Y2171312D01*
X9197765Y2171312D01*
X9197765Y2171312D01*
X9205181Y2178727D01*
X9206183Y2179605D01*
X9214503Y2185989D01*
X9215610Y2186729D01*
D01*
X9215611Y2186729D01*
X9224694Y2191971D01*
X9225888Y2192561D01*
X9235578Y2196572D01*
X9236434Y2196863D01*
X9236839Y2197000D01*
X9246970Y2199713D01*
X9248276Y2199972D01*
X9248277D01*
X9258674Y2201339D01*
X9260003Y2201426D01*
D01*
X9260003D01*
X9265246Y2201425D01*
D02*
G37*
G36*
X9011246D02*
X9016486Y2201425D01*
X9016487D01*
D01*
X9017816Y2201338D01*
X9028212Y2199970D01*
X9028213D01*
X9029519Y2199711D01*
X9039648Y2196997D01*
X9040909Y2196569D01*
X9040913Y2196568D01*
X9050596Y2192557D01*
X9050598Y2192556D01*
X9050992Y2192362D01*
X9051792Y2191968D01*
X9051795Y2191966D01*
X9060874Y2186725D01*
X9061981Y2185985D01*
X9061982Y2185984D01*
X9070301Y2179601D01*
X9071303Y2178723D01*
X9078717Y2171308D01*
Y2171308D01*
X9078718D01*
X9079596Y2170307D01*
X9085979Y2161988D01*
X9085980Y2161987D01*
X9086720Y2160880D01*
X9091963Y2151798D01*
X9092552Y2150604D01*
X9096565Y2140916D01*
X9096993Y2139655D01*
X9096993Y2139654D01*
X9099706Y2129528D01*
X9099707Y2129525D01*
X9099915Y2128479D01*
X9099966Y2128219D01*
Y2128219D01*
X9101334Y2117824D01*
X9101335Y2117822D01*
X9101410Y2116679D01*
X9101422Y2116493D01*
Y2116493D01*
Y2116493D01*
X9101421Y2111264D01*
X9101421Y2111260D01*
X9101656Y1871515D01*
X9101656Y1871510D01*
X9101656Y1871505D01*
X9101612Y1870827D01*
X9101571Y1870185D01*
X9101570Y1870181D01*
X9101569Y1870176D01*
X9101433Y1869493D01*
X9101312Y1868879D01*
X9101310Y1868874D01*
X9101309Y1868869D01*
X9101081Y1868195D01*
X9100885Y1867618D01*
X9100883Y1867613D01*
X9100881Y1867608D01*
X9100590Y1867018D01*
X9100297Y1866422D01*
X9100294Y1866417D01*
X9100292Y1866414D01*
X9099921Y1865858D01*
X9099558Y1865314D01*
X9099556Y1865311D01*
X9099552Y1865306D01*
X9099084Y1864772D01*
X9098681Y1864312D01*
X9098678Y1864309D01*
X9098674Y1864305D01*
X9098162Y1863855D01*
X9097681Y1863433D01*
X9097677Y1863430D01*
X9097673Y1863427D01*
X9097075Y1863027D01*
X9096574Y1862692D01*
X9096570Y1862690D01*
X9096565Y1862687D01*
X9095801Y1862310D01*
X9095380Y1862102D01*
X9095377Y1862101D01*
X9095371Y1862098D01*
X9094540Y1861816D01*
X9094119Y1861672D01*
X9094116Y1861672D01*
X9094110Y1861670D01*
X9093255Y1861500D01*
X9092813Y1861411D01*
X9092810Y1861411D01*
X9092804Y1861410D01*
X9092051Y1861361D01*
X9091484Y1861323D01*
X9091479Y1861323D01*
X9091475Y1861323D01*
X8931474Y1861324D01*
X8930813Y1861367D01*
X8930155Y1861410D01*
X8930150Y1861411D01*
X8930145Y1861411D01*
X8929512Y1861537D01*
X8928849Y1861668D01*
X8928844Y1861670D01*
X8928839Y1861671D01*
X8928245Y1861873D01*
X8927587Y1862095D01*
X8927583Y1862097D01*
X8927578Y1862099D01*
X8926985Y1862391D01*
X8926392Y1862683D01*
X8926388Y1862686D01*
X8926383Y1862688D01*
X8925759Y1863105D01*
X8925284Y1863422D01*
X8925281Y1863425D01*
X8925276Y1863428D01*
X8924725Y1863911D01*
X8924282Y1864299D01*
X8924278Y1864303D01*
X8924275Y1864306D01*
X8923833Y1864810D01*
X8923403Y1865300D01*
X8923400Y1865303D01*
X8923397Y1865307D01*
X8923018Y1865874D01*
X8922662Y1866406D01*
X8922659Y1866411D01*
X8922657Y1866415D01*
X8922368Y1866999D01*
X8922071Y1867600D01*
X8922070Y1867605D01*
X8922067Y1867609D01*
X8921848Y1868257D01*
X8921642Y1868861D01*
X8921641Y1868866D01*
X8921640Y1868871D01*
X8921509Y1869524D01*
X8921381Y1870167D01*
X8921381Y1870172D01*
X8921380Y1870177D01*
X8921337Y1870825D01*
X8921293Y1871496D01*
X8921062Y2111240D01*
X8921062Y2111245D01*
X8921062Y2111249D01*
X8921061Y2116492D01*
Y2116492D01*
D01*
X8921148Y2117821D01*
X8922515Y2128219D01*
X8922689Y2129092D01*
X8922775Y2129526D01*
X8925489Y2139656D01*
X8925917Y2140917D01*
X8925917Y2140917D01*
X8929929Y2150605D01*
X8929930Y2150607D01*
X8930519Y2151801D01*
X8935762Y2160883D01*
X8936502Y2161990D01*
X8936503Y2161991D01*
X8942887Y2170311D01*
X8943765Y2171312D01*
X8943765Y2171312D01*
X8943765Y2171312D01*
X8951181Y2178727D01*
X8952183Y2179605D01*
X8960503Y2185989D01*
X8961610Y2186729D01*
D01*
X8961611Y2186729D01*
X8970694Y2191971D01*
X8971888Y2192561D01*
X8981578Y2196572D01*
X8982434Y2196863D01*
X8982839Y2197000D01*
X8992970Y2199713D01*
X8994276Y2199972D01*
X8994277D01*
X9004674Y2201339D01*
X9006003Y2201426D01*
D01*
X9006003D01*
X9011246Y2201425D01*
D02*
G37*
G36*
X8757246D02*
X8762486Y2201425D01*
X8762487D01*
D01*
X8763816Y2201338D01*
X8774212Y2199970D01*
X8774213D01*
X8775519Y2199711D01*
X8785648Y2196997D01*
X8786909Y2196569D01*
X8786913Y2196568D01*
X8796596Y2192557D01*
X8796598Y2192556D01*
X8796992Y2192362D01*
X8797792Y2191968D01*
X8797795Y2191966D01*
X8806874Y2186725D01*
X8807981Y2185985D01*
X8807982Y2185984D01*
X8816301Y2179601D01*
X8817303Y2178723D01*
X8824717Y2171308D01*
Y2171308D01*
X8824718D01*
X8825596Y2170307D01*
X8831979Y2161988D01*
X8831980Y2161987D01*
X8832720Y2160880D01*
X8837963Y2151798D01*
X8838552Y2150604D01*
X8842565Y2140916D01*
X8842993Y2139655D01*
X8842993Y2139654D01*
X8845706Y2129528D01*
X8845707Y2129525D01*
X8845915Y2128479D01*
X8845966Y2128219D01*
Y2128219D01*
X8847334Y2117824D01*
X8847335Y2117822D01*
X8847410Y2116679D01*
X8847422Y2116493D01*
Y2116493D01*
Y2116493D01*
X8847421Y2111264D01*
X8847421Y2111260D01*
X8847656Y1871515D01*
X8847656Y1871510D01*
X8847656Y1871505D01*
X8847612Y1870827D01*
X8847571Y1870185D01*
X8847570Y1870181D01*
X8847569Y1870176D01*
X8847433Y1869493D01*
X8847312Y1868879D01*
X8847310Y1868874D01*
X8847309Y1868869D01*
X8847081Y1868195D01*
X8846885Y1867618D01*
X8846883Y1867613D01*
X8846881Y1867608D01*
X8846590Y1867018D01*
X8846297Y1866422D01*
X8846294Y1866417D01*
X8846292Y1866414D01*
X8845921Y1865858D01*
X8845558Y1865314D01*
X8845556Y1865311D01*
X8845552Y1865306D01*
X8845084Y1864772D01*
X8844681Y1864312D01*
X8844678Y1864309D01*
X8844674Y1864305D01*
X8844162Y1863855D01*
X8843681Y1863433D01*
X8843677Y1863430D01*
X8843673Y1863427D01*
X8843075Y1863027D01*
X8842574Y1862692D01*
X8842570Y1862690D01*
X8842565Y1862687D01*
X8841801Y1862310D01*
X8841380Y1862102D01*
X8841377Y1862101D01*
X8841371Y1862098D01*
X8840540Y1861816D01*
X8840119Y1861672D01*
X8840116Y1861672D01*
X8840110Y1861670D01*
X8839255Y1861500D01*
X8838813Y1861411D01*
X8838810Y1861411D01*
X8838804Y1861410D01*
X8838051Y1861361D01*
X8837484Y1861323D01*
X8837479Y1861323D01*
X8837475Y1861323D01*
X8677474Y1861324D01*
X8676813Y1861367D01*
X8676155Y1861410D01*
X8676150Y1861411D01*
X8676145Y1861411D01*
X8675512Y1861537D01*
X8674849Y1861668D01*
X8674844Y1861670D01*
X8674839Y1861671D01*
X8674245Y1861873D01*
X8673587Y1862095D01*
X8673583Y1862097D01*
X8673578Y1862099D01*
X8672985Y1862391D01*
X8672392Y1862683D01*
X8672388Y1862686D01*
X8672383Y1862688D01*
X8671759Y1863105D01*
X8671284Y1863422D01*
X8671281Y1863425D01*
X8671276Y1863428D01*
X8670725Y1863911D01*
X8670282Y1864299D01*
X8670278Y1864303D01*
X8670275Y1864306D01*
X8669833Y1864810D01*
X8669403Y1865300D01*
X8669400Y1865303D01*
X8669397Y1865307D01*
X8669018Y1865874D01*
X8668662Y1866406D01*
X8668659Y1866411D01*
X8668657Y1866415D01*
X8668368Y1866999D01*
X8668071Y1867600D01*
X8668070Y1867605D01*
X8668067Y1867609D01*
X8667848Y1868257D01*
X8667642Y1868861D01*
X8667641Y1868866D01*
X8667640Y1868871D01*
X8667509Y1869524D01*
X8667381Y1870167D01*
X8667381Y1870172D01*
X8667380Y1870177D01*
X8667337Y1870825D01*
X8667293Y1871496D01*
X8667062Y2111240D01*
X8667062Y2111245D01*
X8667062Y2111249D01*
X8667061Y2116492D01*
Y2116492D01*
D01*
X8667148Y2117821D01*
X8668515Y2128219D01*
X8668689Y2129092D01*
X8668775Y2129526D01*
X8671489Y2139656D01*
X8671917Y2140917D01*
X8671917Y2140917D01*
X8675929Y2150605D01*
X8675930Y2150607D01*
X8676519Y2151801D01*
X8681762Y2160883D01*
X8682502Y2161990D01*
X8682503Y2161991D01*
X8688887Y2170311D01*
X8689765Y2171312D01*
X8689765Y2171312D01*
X8689765Y2171312D01*
X8697181Y2178727D01*
X8698183Y2179605D01*
X8706503Y2185989D01*
X8707610Y2186729D01*
D01*
X8707611Y2186729D01*
X8716694Y2191971D01*
X8717888Y2192561D01*
X8727578Y2196572D01*
X8728434Y2196863D01*
X8728839Y2197000D01*
X8738970Y2199713D01*
X8740276Y2199972D01*
X8740277D01*
X8750674Y2201339D01*
X8752003Y2201426D01*
D01*
X8752003D01*
X8757246Y2201425D01*
D02*
G37*
G36*
X8503246D02*
X8508486Y2201425D01*
X8508487D01*
D01*
X8509816Y2201338D01*
X8520212Y2199970D01*
X8520213D01*
X8521519Y2199711D01*
X8531648Y2196997D01*
X8532909Y2196569D01*
X8532913Y2196568D01*
X8542596Y2192557D01*
X8542598Y2192556D01*
X8542992Y2192362D01*
X8543792Y2191968D01*
X8543795Y2191966D01*
X8552874Y2186725D01*
X8553981Y2185985D01*
X8553982Y2185984D01*
X8562301Y2179601D01*
X8563303Y2178723D01*
X8570717Y2171308D01*
Y2171308D01*
X8570718D01*
X8571596Y2170307D01*
X8577979Y2161988D01*
X8577980Y2161987D01*
X8578720Y2160880D01*
X8583963Y2151798D01*
X8584552Y2150604D01*
X8588565Y2140916D01*
X8588993Y2139655D01*
X8588993Y2139654D01*
X8591706Y2129528D01*
X8591707Y2129525D01*
X8591915Y2128479D01*
X8591966Y2128219D01*
Y2128219D01*
X8593334Y2117824D01*
X8593335Y2117822D01*
X8593410Y2116679D01*
X8593422Y2116493D01*
Y2116493D01*
Y2116493D01*
X8593421Y2111264D01*
X8593421Y2111260D01*
X8593656Y1871515D01*
X8593656Y1871510D01*
X8593656Y1871505D01*
X8593612Y1870827D01*
X8593571Y1870185D01*
X8593570Y1870181D01*
X8593569Y1870176D01*
X8593433Y1869493D01*
X8593312Y1868879D01*
X8593310Y1868874D01*
X8593309Y1868869D01*
X8593081Y1868195D01*
X8592885Y1867618D01*
X8592883Y1867613D01*
X8592881Y1867608D01*
X8592590Y1867018D01*
X8592297Y1866422D01*
X8592294Y1866417D01*
X8592292Y1866414D01*
X8591921Y1865858D01*
X8591558Y1865314D01*
X8591556Y1865311D01*
X8591552Y1865306D01*
X8591084Y1864772D01*
X8590681Y1864312D01*
X8590678Y1864309D01*
X8590674Y1864305D01*
X8590162Y1863855D01*
X8589681Y1863433D01*
X8589677Y1863430D01*
X8589673Y1863427D01*
X8589075Y1863027D01*
X8588574Y1862692D01*
X8588570Y1862690D01*
X8588565Y1862687D01*
X8587801Y1862310D01*
X8587380Y1862102D01*
X8587377Y1862101D01*
X8587371Y1862098D01*
X8586540Y1861816D01*
X8586119Y1861672D01*
X8586116Y1861672D01*
X8586110Y1861670D01*
X8585255Y1861500D01*
X8584813Y1861411D01*
X8584810Y1861411D01*
X8584804Y1861410D01*
X8584051Y1861361D01*
X8583484Y1861323D01*
X8583479Y1861323D01*
X8583475Y1861323D01*
X8423474Y1861324D01*
X8422813Y1861367D01*
X8422155Y1861410D01*
X8422150Y1861411D01*
X8422145Y1861411D01*
X8421512Y1861537D01*
X8420849Y1861668D01*
X8420844Y1861670D01*
X8420839Y1861671D01*
X8420245Y1861873D01*
X8419587Y1862095D01*
X8419583Y1862097D01*
X8419578Y1862099D01*
X8418985Y1862391D01*
X8418392Y1862683D01*
X8418388Y1862686D01*
X8418383Y1862688D01*
X8417759Y1863105D01*
X8417284Y1863422D01*
X8417281Y1863425D01*
X8417276Y1863428D01*
X8416725Y1863911D01*
X8416282Y1864299D01*
X8416278Y1864303D01*
X8416275Y1864306D01*
X8415833Y1864810D01*
X8415403Y1865300D01*
X8415400Y1865303D01*
X8415397Y1865307D01*
X8415018Y1865874D01*
X8414662Y1866406D01*
X8414659Y1866411D01*
X8414657Y1866415D01*
X8414368Y1866999D01*
X8414071Y1867600D01*
X8414070Y1867605D01*
X8414068Y1867609D01*
X8413848Y1868257D01*
X8413642Y1868861D01*
X8413641Y1868866D01*
X8413640Y1868871D01*
X8413509Y1869524D01*
X8413381Y1870167D01*
X8413381Y1870172D01*
X8413380Y1870177D01*
X8413337Y1870825D01*
X8413293Y1871496D01*
X8413062Y2111240D01*
X8413062Y2111245D01*
X8413062Y2111249D01*
X8413061Y2116492D01*
Y2116492D01*
D01*
X8413148Y2117821D01*
X8414515Y2128219D01*
X8414689Y2129092D01*
X8414775Y2129526D01*
X8417489Y2139656D01*
X8417917Y2140917D01*
X8417917Y2140917D01*
X8421929Y2150605D01*
X8421930Y2150607D01*
X8422519Y2151801D01*
X8427762Y2160883D01*
X8428502Y2161990D01*
X8428503Y2161991D01*
X8434887Y2170311D01*
X8435765Y2171312D01*
X8435765Y2171312D01*
X8435765Y2171312D01*
X8443181Y2178727D01*
X8444183Y2179605D01*
X8452503Y2185989D01*
X8453610Y2186729D01*
D01*
X8453611Y2186729D01*
X8462694Y2191971D01*
X8463888Y2192561D01*
X8473578Y2196572D01*
X8474434Y2196863D01*
X8474839Y2197000D01*
X8484970Y2199713D01*
X8486276Y2199972D01*
X8486277D01*
X8496674Y2201339D01*
X8498003Y2201426D01*
D01*
X8498003D01*
X8503246Y2201425D01*
D02*
G37*
G36*
X8249246D02*
X8254486Y2201425D01*
X8254487D01*
D01*
X8255816Y2201338D01*
X8266212Y2199970D01*
X8266213D01*
X8267519Y2199711D01*
X8277648Y2196997D01*
X8278909Y2196569D01*
X8278913Y2196568D01*
X8288596Y2192557D01*
X8288598Y2192556D01*
X8288992Y2192362D01*
X8289792Y2191968D01*
X8289795Y2191966D01*
X8298874Y2186725D01*
X8299981Y2185985D01*
X8299982Y2185984D01*
X8308301Y2179601D01*
X8309303Y2178723D01*
X8316717Y2171308D01*
Y2171308D01*
X8316718D01*
X8317596Y2170307D01*
X8323979Y2161988D01*
X8323980Y2161987D01*
X8324720Y2160880D01*
X8329963Y2151798D01*
X8330552Y2150604D01*
X8334565Y2140916D01*
X8334993Y2139655D01*
X8334993Y2139654D01*
X8337706Y2129528D01*
X8337707Y2129525D01*
X8337915Y2128479D01*
X8337966Y2128219D01*
Y2128219D01*
X8339334Y2117824D01*
X8339335Y2117822D01*
X8339410Y2116679D01*
X8339422Y2116493D01*
Y2116493D01*
Y2116493D01*
X8339421Y2111264D01*
X8339421Y2111260D01*
X8339656Y1871515D01*
X8339656Y1871510D01*
X8339656Y1871505D01*
X8339612Y1870827D01*
X8339571Y1870185D01*
X8339570Y1870181D01*
X8339569Y1870176D01*
X8339433Y1869493D01*
X8339312Y1868879D01*
X8339310Y1868874D01*
X8339309Y1868869D01*
X8339081Y1868195D01*
X8338885Y1867618D01*
X8338883Y1867613D01*
X8338881Y1867608D01*
X8338590Y1867018D01*
X8338297Y1866422D01*
X8338294Y1866417D01*
X8338292Y1866414D01*
X8337921Y1865858D01*
X8337558Y1865314D01*
X8337556Y1865311D01*
X8337552Y1865306D01*
X8337084Y1864772D01*
X8336681Y1864312D01*
X8336678Y1864309D01*
X8336674Y1864305D01*
X8336162Y1863855D01*
X8335681Y1863433D01*
X8335677Y1863430D01*
X8335673Y1863427D01*
X8335075Y1863027D01*
X8334574Y1862692D01*
X8334570Y1862690D01*
X8334565Y1862687D01*
X8333801Y1862310D01*
X8333380Y1862102D01*
X8333377Y1862101D01*
X8333371Y1862098D01*
X8332540Y1861816D01*
X8332119Y1861672D01*
X8332116Y1861672D01*
X8332110Y1861670D01*
X8331255Y1861500D01*
X8330813Y1861411D01*
X8330810Y1861411D01*
X8330804Y1861410D01*
X8330051Y1861361D01*
X8329484Y1861323D01*
X8329479Y1861323D01*
X8329475Y1861323D01*
X8169474Y1861324D01*
X8168813Y1861367D01*
X8168155Y1861410D01*
X8168150Y1861411D01*
X8168145Y1861411D01*
X8167512Y1861537D01*
X8166849Y1861668D01*
X8166844Y1861670D01*
X8166839Y1861671D01*
X8166245Y1861873D01*
X8165587Y1862095D01*
X8165583Y1862097D01*
X8165578Y1862099D01*
X8164985Y1862391D01*
X8164392Y1862683D01*
X8164388Y1862686D01*
X8164383Y1862688D01*
X8163759Y1863105D01*
X8163284Y1863422D01*
X8163281Y1863425D01*
X8163276Y1863428D01*
X8162725Y1863911D01*
X8162282Y1864299D01*
X8162278Y1864303D01*
X8162275Y1864306D01*
X8161833Y1864810D01*
X8161403Y1865300D01*
X8161400Y1865303D01*
X8161397Y1865307D01*
X8161018Y1865874D01*
X8160662Y1866406D01*
X8160659Y1866411D01*
X8160657Y1866415D01*
X8160368Y1866999D01*
X8160071Y1867600D01*
X8160070Y1867605D01*
X8160067Y1867609D01*
X8159848Y1868257D01*
X8159642Y1868861D01*
X8159641Y1868866D01*
X8159640Y1868871D01*
X8159509Y1869524D01*
X8159381Y1870167D01*
X8159381Y1870172D01*
X8159380Y1870177D01*
X8159337Y1870825D01*
X8159293Y1871496D01*
X8159062Y2111240D01*
X8159062Y2111245D01*
X8159062Y2111249D01*
X8159061Y2116492D01*
Y2116492D01*
D01*
X8159148Y2117821D01*
X8160515Y2128219D01*
X8160689Y2129092D01*
X8160775Y2129526D01*
X8163489Y2139656D01*
X8163917Y2140917D01*
X8163917Y2140917D01*
X8167929Y2150605D01*
X8167930Y2150607D01*
X8168519Y2151801D01*
X8173762Y2160883D01*
X8174502Y2161990D01*
X8174503Y2161991D01*
X8180887Y2170311D01*
X8181765Y2171312D01*
X8181765Y2171312D01*
X8181765Y2171312D01*
X8189181Y2178727D01*
X8190183Y2179605D01*
X8198503Y2185989D01*
X8199610Y2186729D01*
D01*
X8199611Y2186729D01*
X8208694Y2191971D01*
X8209888Y2192561D01*
X8219578Y2196572D01*
X8220434Y2196863D01*
X8220839Y2197000D01*
X8230970Y2199713D01*
X8232276Y2199972D01*
X8232277D01*
X8242674Y2201339D01*
X8244003Y2201426D01*
D01*
X8244003D01*
X8249246Y2201425D01*
D02*
G37*
G36*
X7995246D02*
X8000486Y2201425D01*
X8000487D01*
D01*
X8001816Y2201338D01*
X8012212Y2199970D01*
X8012213D01*
X8013519Y2199711D01*
X8023648Y2196997D01*
X8024909Y2196569D01*
X8024913Y2196568D01*
X8034596Y2192557D01*
X8034598Y2192556D01*
X8034992Y2192362D01*
X8035792Y2191968D01*
X8035795Y2191966D01*
X8044874Y2186725D01*
X8045981Y2185985D01*
X8045982Y2185984D01*
X8054301Y2179601D01*
X8055303Y2178723D01*
X8062717Y2171308D01*
Y2171308D01*
X8062718D01*
X8063596Y2170307D01*
X8069979Y2161988D01*
X8069980Y2161987D01*
X8070720Y2160880D01*
X8075963Y2151798D01*
X8076552Y2150604D01*
X8080565Y2140916D01*
X8080993Y2139655D01*
X8080993Y2139654D01*
X8083706Y2129528D01*
X8083707Y2129525D01*
X8083915Y2128479D01*
X8083966Y2128219D01*
Y2128219D01*
X8085334Y2117824D01*
X8085335Y2117822D01*
X8085410Y2116679D01*
X8085422Y2116493D01*
Y2116493D01*
Y2116493D01*
X8085421Y2111264D01*
X8085421Y2111260D01*
X8085656Y1871515D01*
X8085656Y1871510D01*
X8085656Y1871505D01*
X8085612Y1870827D01*
X8085571Y1870185D01*
X8085570Y1870181D01*
X8085569Y1870176D01*
X8085433Y1869493D01*
X8085312Y1868879D01*
X8085310Y1868874D01*
X8085309Y1868869D01*
X8085081Y1868195D01*
X8084885Y1867618D01*
X8084883Y1867613D01*
X8084881Y1867608D01*
X8084590Y1867018D01*
X8084297Y1866422D01*
X8084294Y1866417D01*
X8084292Y1866414D01*
X8083921Y1865858D01*
X8083558Y1865314D01*
X8083556Y1865311D01*
X8083552Y1865306D01*
X8083084Y1864772D01*
X8082681Y1864312D01*
X8082678Y1864309D01*
X8082674Y1864305D01*
X8082162Y1863855D01*
X8081681Y1863433D01*
X8081677Y1863430D01*
X8081673Y1863427D01*
X8081075Y1863027D01*
X8080574Y1862692D01*
X8080570Y1862690D01*
X8080565Y1862687D01*
X8079801Y1862310D01*
X8079380Y1862102D01*
X8079377Y1862101D01*
X8079371Y1862098D01*
X8078540Y1861816D01*
X8078119Y1861672D01*
X8078116Y1861672D01*
X8078110Y1861670D01*
X8077255Y1861500D01*
X8076813Y1861411D01*
X8076810Y1861411D01*
X8076804Y1861410D01*
X8076051Y1861361D01*
X8075484Y1861323D01*
X8075479Y1861323D01*
X8075475Y1861323D01*
X7915474Y1861324D01*
X7914813Y1861367D01*
X7914155Y1861410D01*
X7914150Y1861411D01*
X7914145Y1861411D01*
X7913512Y1861537D01*
X7912849Y1861668D01*
X7912844Y1861670D01*
X7912839Y1861671D01*
X7912245Y1861873D01*
X7911587Y1862095D01*
X7911583Y1862097D01*
X7911578Y1862099D01*
X7910985Y1862391D01*
X7910392Y1862683D01*
X7910388Y1862686D01*
X7910383Y1862688D01*
X7909759Y1863105D01*
X7909284Y1863422D01*
X7909281Y1863425D01*
X7909276Y1863428D01*
X7908725Y1863911D01*
X7908282Y1864299D01*
X7908278Y1864303D01*
X7908275Y1864306D01*
X7907833Y1864810D01*
X7907403Y1865300D01*
X7907400Y1865303D01*
X7907397Y1865307D01*
X7907018Y1865874D01*
X7906662Y1866406D01*
X7906659Y1866411D01*
X7906657Y1866415D01*
X7906368Y1866999D01*
X7906071Y1867600D01*
X7906070Y1867605D01*
X7906068Y1867609D01*
X7905848Y1868257D01*
X7905642Y1868861D01*
X7905641Y1868866D01*
X7905640Y1868871D01*
X7905509Y1869524D01*
X7905381Y1870167D01*
X7905381Y1870172D01*
X7905380Y1870177D01*
X7905337Y1870825D01*
X7905293Y1871496D01*
X7905062Y2111240D01*
X7905062Y2111245D01*
X7905062Y2111249D01*
X7905061Y2116492D01*
Y2116492D01*
D01*
X7905148Y2117821D01*
X7906515Y2128219D01*
X7906689Y2129092D01*
X7906775Y2129526D01*
X7909489Y2139656D01*
X7909917Y2140917D01*
X7909917Y2140917D01*
X7913929Y2150605D01*
X7913930Y2150607D01*
X7914519Y2151801D01*
X7919762Y2160883D01*
X7920502Y2161990D01*
X7920503Y2161991D01*
X7926887Y2170311D01*
X7927765Y2171312D01*
X7927765Y2171312D01*
X7927765Y2171312D01*
X7935181Y2178727D01*
X7936183Y2179605D01*
X7944503Y2185989D01*
X7945610Y2186729D01*
D01*
X7945611Y2186729D01*
X7954694Y2191971D01*
X7955888Y2192561D01*
X7965578Y2196572D01*
X7966434Y2196863D01*
X7966839Y2197000D01*
X7976970Y2199713D01*
X7978276Y2199972D01*
X7978277D01*
X7988674Y2201339D01*
X7990003Y2201426D01*
D01*
X7990003D01*
X7995246Y2201425D01*
D02*
G37*
G36*
X7741246D02*
X7746486Y2201425D01*
X7746487D01*
D01*
X7747816Y2201338D01*
X7758212Y2199970D01*
X7758213D01*
X7759519Y2199711D01*
X7769648Y2196997D01*
X7770909Y2196569D01*
X7770913Y2196568D01*
X7780596Y2192557D01*
X7780598Y2192556D01*
X7780992Y2192362D01*
X7781792Y2191968D01*
X7781795Y2191966D01*
X7790874Y2186725D01*
X7791981Y2185985D01*
X7791982Y2185984D01*
X7800301Y2179601D01*
X7801303Y2178723D01*
X7808717Y2171308D01*
Y2171308D01*
X7808718D01*
X7809596Y2170307D01*
X7815979Y2161988D01*
X7815980Y2161987D01*
X7816720Y2160880D01*
X7821963Y2151798D01*
X7822552Y2150604D01*
X7826565Y2140916D01*
X7826993Y2139655D01*
X7826993Y2139654D01*
X7829706Y2129528D01*
X7829707Y2129525D01*
X7829915Y2128479D01*
X7829966Y2128219D01*
Y2128219D01*
X7831334Y2117824D01*
X7831335Y2117822D01*
X7831410Y2116679D01*
X7831422Y2116493D01*
Y2116493D01*
Y2116493D01*
X7831421Y2111264D01*
X7831421Y2111260D01*
X7831656Y1871515D01*
X7831656Y1871510D01*
X7831656Y1871505D01*
X7831612Y1870827D01*
X7831571Y1870185D01*
X7831570Y1870181D01*
X7831569Y1870176D01*
X7831433Y1869493D01*
X7831312Y1868879D01*
X7831310Y1868874D01*
X7831309Y1868869D01*
X7831081Y1868195D01*
X7830885Y1867618D01*
X7830883Y1867613D01*
X7830881Y1867608D01*
X7830590Y1867018D01*
X7830297Y1866422D01*
X7830294Y1866417D01*
X7830292Y1866414D01*
X7829921Y1865858D01*
X7829558Y1865314D01*
X7829556Y1865311D01*
X7829552Y1865306D01*
X7829084Y1864772D01*
X7828681Y1864312D01*
X7828678Y1864309D01*
X7828674Y1864305D01*
X7828162Y1863855D01*
X7827681Y1863433D01*
X7827677Y1863430D01*
X7827673Y1863427D01*
X7827075Y1863027D01*
X7826574Y1862692D01*
X7826570Y1862690D01*
X7826565Y1862687D01*
X7825801Y1862310D01*
X7825380Y1862102D01*
X7825377Y1862101D01*
X7825371Y1862098D01*
X7824540Y1861816D01*
X7824119Y1861672D01*
X7824116Y1861672D01*
X7824110Y1861670D01*
X7823255Y1861500D01*
X7822813Y1861411D01*
X7822810Y1861411D01*
X7822804Y1861410D01*
X7822051Y1861361D01*
X7821484Y1861323D01*
X7821479Y1861323D01*
X7821475Y1861323D01*
X7661474Y1861324D01*
X7660813Y1861367D01*
X7660155Y1861410D01*
X7660150Y1861411D01*
X7660145Y1861411D01*
X7659512Y1861537D01*
X7658849Y1861668D01*
X7658844Y1861670D01*
X7658839Y1861671D01*
X7658245Y1861873D01*
X7657587Y1862095D01*
X7657583Y1862097D01*
X7657578Y1862099D01*
X7656985Y1862391D01*
X7656392Y1862683D01*
X7656388Y1862686D01*
X7656383Y1862688D01*
X7655759Y1863105D01*
X7655284Y1863422D01*
X7655281Y1863425D01*
X7655276Y1863428D01*
X7654725Y1863911D01*
X7654282Y1864299D01*
X7654278Y1864303D01*
X7654275Y1864306D01*
X7653833Y1864810D01*
X7653403Y1865300D01*
X7653400Y1865303D01*
X7653397Y1865307D01*
X7653018Y1865874D01*
X7652662Y1866406D01*
X7652659Y1866411D01*
X7652657Y1866415D01*
X7652368Y1866999D01*
X7652071Y1867600D01*
X7652070Y1867605D01*
X7652067Y1867609D01*
X7651848Y1868257D01*
X7651642Y1868861D01*
X7651641Y1868866D01*
X7651640Y1868871D01*
X7651509Y1869524D01*
X7651381Y1870167D01*
X7651381Y1870172D01*
X7651380Y1870177D01*
X7651337Y1870825D01*
X7651293Y1871496D01*
X7651062Y2111240D01*
X7651062Y2111245D01*
X7651062Y2111249D01*
X7651061Y2116492D01*
Y2116492D01*
D01*
X7651148Y2117821D01*
X7652515Y2128219D01*
X7652689Y2129092D01*
X7652775Y2129526D01*
X7655489Y2139656D01*
X7655917Y2140917D01*
X7655917Y2140917D01*
X7659929Y2150605D01*
X7659930Y2150607D01*
X7660519Y2151801D01*
X7665762Y2160883D01*
X7666502Y2161990D01*
X7666503Y2161991D01*
X7672887Y2170311D01*
X7673765Y2171312D01*
X7673765Y2171312D01*
X7673765Y2171312D01*
X7681181Y2178727D01*
X7682183Y2179605D01*
X7690503Y2185989D01*
X7691610Y2186729D01*
D01*
X7691611Y2186729D01*
X7700694Y2191971D01*
X7701888Y2192561D01*
X7711578Y2196572D01*
X7712434Y2196863D01*
X7712839Y2197000D01*
X7722970Y2199713D01*
X7724276Y2199972D01*
X7724277D01*
X7734674Y2201339D01*
X7736003Y2201426D01*
D01*
X7736003D01*
X7741246Y2201425D01*
D02*
G37*
G36*
X7487246D02*
X7492486Y2201425D01*
X7492487D01*
D01*
X7493816Y2201338D01*
X7504212Y2199970D01*
X7504213D01*
X7505519Y2199711D01*
X7515648Y2196997D01*
X7516909Y2196569D01*
X7516913Y2196568D01*
X7526596Y2192557D01*
X7526598Y2192556D01*
X7526992Y2192362D01*
X7527792Y2191968D01*
X7527795Y2191966D01*
X7536874Y2186725D01*
X7537981Y2185985D01*
X7537982Y2185984D01*
X7546301Y2179601D01*
X7547303Y2178723D01*
X7554717Y2171308D01*
Y2171308D01*
X7554718D01*
X7555596Y2170307D01*
X7561979Y2161988D01*
X7561980Y2161987D01*
X7562720Y2160880D01*
X7567963Y2151798D01*
X7568552Y2150604D01*
X7572565Y2140916D01*
X7572993Y2139655D01*
X7572993Y2139654D01*
X7575706Y2129528D01*
X7575707Y2129525D01*
X7575915Y2128479D01*
X7575966Y2128219D01*
Y2128219D01*
X7577334Y2117824D01*
X7577335Y2117822D01*
X7577410Y2116679D01*
X7577422Y2116493D01*
Y2116493D01*
Y2116493D01*
X7577421Y2111264D01*
X7577421Y2111260D01*
X7577656Y1871515D01*
X7577656Y1871510D01*
X7577656Y1871505D01*
X7577612Y1870827D01*
X7577571Y1870185D01*
X7577570Y1870181D01*
X7577569Y1870176D01*
X7577433Y1869493D01*
X7577312Y1868879D01*
X7577310Y1868874D01*
X7577309Y1868869D01*
X7577081Y1868195D01*
X7576885Y1867618D01*
X7576883Y1867613D01*
X7576881Y1867608D01*
X7576590Y1867018D01*
X7576297Y1866422D01*
X7576294Y1866417D01*
X7576292Y1866414D01*
X7575921Y1865858D01*
X7575558Y1865314D01*
X7575556Y1865311D01*
X7575552Y1865306D01*
X7575084Y1864772D01*
X7574681Y1864312D01*
X7574678Y1864309D01*
X7574674Y1864305D01*
X7574162Y1863855D01*
X7573681Y1863433D01*
X7573677Y1863430D01*
X7573673Y1863427D01*
X7573075Y1863027D01*
X7572574Y1862692D01*
X7572570Y1862690D01*
X7572565Y1862687D01*
X7571801Y1862310D01*
X7571380Y1862102D01*
X7571377Y1862101D01*
X7571371Y1862098D01*
X7570540Y1861816D01*
X7570119Y1861672D01*
X7570116Y1861672D01*
X7570110Y1861670D01*
X7569255Y1861500D01*
X7568813Y1861411D01*
X7568810Y1861411D01*
X7568804Y1861410D01*
X7568051Y1861361D01*
X7567484Y1861323D01*
X7567479Y1861323D01*
X7567475Y1861323D01*
X7407474Y1861324D01*
X7406813Y1861367D01*
X7406155Y1861410D01*
X7406150Y1861411D01*
X7406145Y1861411D01*
X7405512Y1861537D01*
X7404849Y1861668D01*
X7404844Y1861670D01*
X7404839Y1861671D01*
X7404245Y1861873D01*
X7403587Y1862095D01*
X7403583Y1862097D01*
X7403578Y1862099D01*
X7402985Y1862391D01*
X7402392Y1862683D01*
X7402388Y1862686D01*
X7402383Y1862688D01*
X7401759Y1863105D01*
X7401284Y1863422D01*
X7401281Y1863425D01*
X7401276Y1863428D01*
X7400725Y1863911D01*
X7400282Y1864299D01*
X7400278Y1864303D01*
X7400275Y1864306D01*
X7399833Y1864810D01*
X7399403Y1865300D01*
X7399400Y1865303D01*
X7399397Y1865307D01*
X7399018Y1865874D01*
X7398662Y1866406D01*
X7398659Y1866411D01*
X7398657Y1866415D01*
X7398368Y1866999D01*
X7398071Y1867600D01*
X7398070Y1867605D01*
X7398068Y1867609D01*
X7397848Y1868257D01*
X7397642Y1868861D01*
X7397641Y1868866D01*
X7397640Y1868871D01*
X7397509Y1869524D01*
X7397381Y1870167D01*
X7397381Y1870172D01*
X7397380Y1870177D01*
X7397337Y1870825D01*
X7397293Y1871496D01*
X7397062Y2111240D01*
X7397062Y2111245D01*
X7397062Y2111249D01*
X7397061Y2116492D01*
Y2116492D01*
D01*
X7397148Y2117821D01*
X7398515Y2128219D01*
X7398689Y2129092D01*
X7398775Y2129526D01*
X7401489Y2139656D01*
X7401917Y2140917D01*
X7401917Y2140917D01*
X7405929Y2150605D01*
X7405930Y2150607D01*
X7406519Y2151801D01*
X7411762Y2160883D01*
X7412502Y2161990D01*
X7412503Y2161991D01*
X7418887Y2170311D01*
X7419765Y2171312D01*
X7419765Y2171312D01*
X7419765Y2171312D01*
X7427181Y2178727D01*
X7428183Y2179605D01*
X7436503Y2185989D01*
X7437610Y2186729D01*
D01*
X7437611Y2186729D01*
X7446694Y2191971D01*
X7447888Y2192561D01*
X7457578Y2196572D01*
X7458434Y2196863D01*
X7458839Y2197000D01*
X7468970Y2199713D01*
X7470276Y2199972D01*
X7470277D01*
X7480674Y2201339D01*
X7482003Y2201426D01*
D01*
X7482003D01*
X7487246Y2201425D01*
D02*
G37*
G36*
X11036001Y804000D02*
X11050001Y790000D01*
Y776000D01*
X10965001D01*
X10965001Y804000D01*
X11036001Y804000D01*
D02*
G37*
D28*
X9325000Y700000D02*
D03*
Y900000D02*
D03*
D29*
X9650000Y800000D02*
D03*
D30*
X10323013Y1430000D02*
D03*
X10116987Y1335000D02*
D03*
D31*
Y1525000D02*
D03*
D32*
X11307501Y245000D02*
D03*
X11497501D02*
D03*
X11402501Y485000D02*
D03*
X10679018Y244083D02*
D03*
X10869018D02*
D03*
X10774018Y484083D02*
D03*
D35*
X11117501Y690000D02*
D03*
Y740000D02*
D03*
X11002501D02*
D03*
Y690000D02*
D03*
X11117501Y790000D02*
D03*
D36*
X11007501D02*
D03*
D37*
X11010002Y1170001D02*
D03*
X11105002D02*
D03*
Y1450000D02*
D03*
X10915003Y1450001D02*
D03*
Y1170001D02*
D03*
D91*
X4800000Y800000D02*
D03*
X700000Y5300000D02*
D03*
X9600000Y4900000D02*
D03*
X6300000Y4700000D02*
D03*
X11700000Y300000D02*
D03*
D92*
X3870000Y1580000D02*
D03*
X4410000Y1530000D02*
D03*
X11940001Y1580000D02*
D03*
X11300000Y1760000D02*
D03*
X11940001Y1730000D02*
D03*
X10280000Y1700000D02*
D03*
X6940000Y2544341D02*
D03*
X7080000Y2715622D02*
D03*
X7220000Y2903628D02*
D03*
X3478292Y5660000D02*
D03*
X3629354Y5760000D02*
D03*
X3939957Y5940000D02*
D03*
X3777846Y5850000D02*
D03*
X3740000Y3440000D02*
D03*
X3899944Y3300000D02*
D03*
X8412378Y1230000D02*
D03*
X8480000Y1070000D02*
D03*
X11393390Y5566610D02*
D03*
X11551240Y4774325D02*
D03*
X3566449Y3580000D02*
D03*
X7339799Y4587500D02*
D03*
X7954116Y4778384D02*
D03*
X8930000Y4780000D02*
D03*
X10354293Y5180000D02*
D03*
X9810000Y640000D02*
D03*
X3580000Y140000D02*
D03*
X4790000D02*
D03*
X6010000D02*
D03*
X11640000Y740000D02*
D03*
Y1240000D02*
D03*
X10830001Y640000D02*
D03*
Y780000D02*
D03*
D93*
X12285000Y1730000D02*
D03*
X12095000D02*
D03*
X12190000Y1530000D02*
D03*
D94*
X6140002Y580003D02*
D03*
X7050002D02*
D03*
X6140002Y1030003D02*
D03*
X7050002D02*
D03*
X4940002Y580003D02*
D03*
X5850002D02*
D03*
X4940002Y1030003D02*
D03*
X5850002D02*
D03*
X3739999Y580000D02*
D03*
X4649999D02*
D03*
X3739999Y1030000D02*
D03*
X4649999D02*
D03*
D95*
X10225705Y5105000D02*
D03*
Y5155000D02*
D03*
Y5205000D02*
D03*
Y5255000D02*
D03*
X10053705Y5105000D02*
D03*
Y5155000D02*
D03*
Y5205000D02*
D03*
Y5255000D02*
D03*
D96*
X11152500Y382500D02*
D03*
Y242500D02*
D03*
X4840358Y3370353D02*
D03*
Y3510358D02*
D03*
X5290355Y3370353D02*
D03*
Y3510358D02*
D03*
X5740357Y3370353D02*
D03*
Y3510358D02*
D03*
X4990357Y3510356D02*
D03*
Y3370356D02*
D03*
X5440357Y3510356D02*
D03*
Y3370356D02*
D03*
X5890357Y3510356D02*
D03*
Y3370356D02*
D03*
X5140357Y3510356D02*
D03*
Y3370356D02*
D03*
X5590357Y3510356D02*
D03*
Y3370356D02*
D03*
X6040357Y3510356D02*
D03*
Y3370356D02*
D03*
X9350000Y5109998D02*
D03*
Y5250003D02*
D03*
X8317500Y5247500D02*
D03*
Y5107500D02*
D03*
X9899709Y5109998D02*
D03*
Y5250003D02*
D03*
X7787499Y4957499D02*
D03*
X7787500Y5097498D02*
D03*
X5077109Y4350002D02*
D03*
Y4210003D02*
D03*
X5890359Y4350354D02*
D03*
Y4210354D02*
D03*
X5560357Y3970357D02*
D03*
Y3830358D02*
D03*
X11280001Y1580000D02*
D03*
Y1440000D02*
D03*
X11280058Y1169999D02*
D03*
X11280057Y1310000D02*
D03*
X10730002Y1320000D02*
D03*
Y1460001D02*
D03*
X10525400Y380992D02*
D03*
Y240992D02*
D03*
D97*
X11100000Y5250000D02*
D03*
X11020000D02*
D03*
Y5110000D02*
D03*
X11100000D02*
D03*
D98*
X7987500Y5287500D02*
D03*
X8037500D02*
D03*
X8087500D02*
D03*
Y5067500D02*
D03*
X8037500D02*
D03*
X7987500D02*
D03*
D99*
X8172500Y5252500D02*
D03*
Y5202500D02*
D03*
Y5152500D02*
D03*
Y5102500D02*
D03*
X7902500D02*
D03*
Y5152500D02*
D03*
Y5202500D02*
D03*
Y5252500D02*
D03*
D100*
X5257502Y4475000D02*
D03*
Y4435000D02*
D03*
Y4395000D02*
D03*
Y4355000D02*
D03*
Y4315000D02*
D03*
Y4275000D02*
D03*
Y4235000D02*
D03*
X5652502D02*
D03*
Y4275000D02*
D03*
Y4315000D02*
D03*
Y4355000D02*
D03*
Y4395000D02*
D03*
Y4435000D02*
D03*
Y4475000D02*
D03*
D101*
X5335002Y4157500D02*
D03*
X5375001D02*
D03*
X5415002D02*
D03*
X5455002D02*
D03*
X5495001D02*
D03*
X5535002D02*
D03*
X5575002D02*
D03*
Y4552500D02*
D03*
X5535002D02*
D03*
X5495001D02*
D03*
X5455002D02*
D03*
X5415002D02*
D03*
X5375001D02*
D03*
X5335002D02*
D03*
D102*
X5455002Y4355000D02*
D03*
D103*
X9330006Y2433591D02*
D03*
Y2687591D02*
D03*
D104*
Y2941591D02*
D03*
D105*
X11997006Y2757501D02*
D03*
Y3242501D02*
D03*
D106*
X12300006Y2727501D02*
D03*
Y3272501D02*
D03*
D107*
X11000006Y3250001D02*
D03*
X11250006D02*
D03*
X11500006D02*
D03*
X12000006Y3000001D02*
D03*
X12330006Y2900001D02*
D03*
Y3100001D02*
D03*
D108*
X4057501Y2145000D02*
D03*
Y2055000D02*
D03*
Y1965000D02*
D03*
X4352502D02*
D03*
Y2055000D02*
D03*
Y2145000D02*
D03*
X6457501D02*
D03*
Y2055000D02*
D03*
Y1965000D02*
D03*
X6752502D02*
D03*
Y2055000D02*
D03*
Y2145000D02*
D03*
X5257502D02*
D03*
Y2055000D02*
D03*
Y1965000D02*
D03*
X5552502D02*
D03*
Y2055000D02*
D03*
Y2145000D02*
D03*
D109*
X9000001Y5080001D02*
D03*
Y5280001D02*
D03*
X9200001Y5080001D02*
D03*
Y5280001D02*
D03*
D110*
X10580002Y1535000D02*
D03*
X10580001Y1385000D02*
D03*
D111*
X5210001Y140002D02*
D03*
X5070002D02*
D03*
X6409999D02*
D03*
X6270000D02*
D03*
X4009999Y140003D02*
D03*
X3869999Y140002D02*
D03*
X6909998D02*
D03*
X6769999D02*
D03*
X6520002Y139997D02*
D03*
X6660001D02*
D03*
X4509998Y140002D02*
D03*
X4369998D02*
D03*
X4120001Y139997D02*
D03*
X4260001D02*
D03*
X11130002Y4959999D02*
D03*
X10989997Y4959999D02*
D03*
X8107500Y4927501D02*
D03*
X7967500D02*
D03*
X5080002Y5040001D02*
D03*
X5220002Y5040000D02*
D03*
X5079999Y5160000D02*
D03*
X5220004Y5160000D02*
D03*
X5565000Y4914999D02*
D03*
X5705000D02*
D03*
Y4765001D02*
D03*
X5565000D02*
D03*
X5710000Y140002D02*
D03*
X5570001D02*
D03*
X5459998Y139997D02*
D03*
X5319999D02*
D03*
X11425002Y747500D02*
D03*
X11285001Y747500D02*
D03*
X10580001Y1180000D02*
D03*
X10720002D02*
D03*
X11285001Y877500D02*
D03*
X11425002D02*
D03*
X10990001Y940000D02*
D03*
X11130001D02*
D03*
X11770000Y1420000D02*
D03*
X11630000D02*
D03*
X9930000Y1470000D02*
D03*
X9790000D02*
D03*
X9790000Y1350000D02*
D03*
X9930000D02*
D03*
D112*
X6460502Y4369497D02*
D03*
X6559497Y4270502D02*
D03*
D113*
X7262500Y240000D02*
D03*
X7110000Y5520000D02*
D03*
D114*
X12190001Y873000D02*
D03*
D115*
Y1127000D02*
D03*
D116*
X5278000Y5445000D02*
D03*
X5532000D02*
D03*
X5024000D02*
D03*
X5786000D02*
D03*
D117*
X2739002Y2603000D02*
D03*
X2231002D02*
D03*
X1977002D02*
D03*
X1723002D02*
D03*
X1469002D02*
D03*
X1215002D02*
D03*
X2485002D02*
D03*
Y317000D02*
D03*
X1215002D02*
D03*
X1469002D02*
D03*
X1977002D02*
D03*
X2231002D02*
D03*
X2739002D02*
D03*
X1723002D02*
D03*
X2739002Y5683000D02*
D03*
X2231002D02*
D03*
X1977002D02*
D03*
X1723002D02*
D03*
X1469002D02*
D03*
X1215002D02*
D03*
X2485002D02*
D03*
Y3397000D02*
D03*
X1215002D02*
D03*
X1469002D02*
D03*
X1977002D02*
D03*
X2231002D02*
D03*
X2739002D02*
D03*
X1723002D02*
D03*
D118*
X961002Y2603000D02*
D03*
Y317000D02*
D03*
Y5683000D02*
D03*
Y3397000D02*
D03*
D119*
X9567500Y1347500D02*
D03*
D120*
X9313500D02*
D03*
X9059500D02*
D03*
D121*
X10030000Y880000D02*
D03*
Y740000D02*
D03*
D122*
X6579999Y5445000D02*
D03*
X4230001Y3065005D02*
D03*
X6579999D02*
D03*
X4230001Y5445000D02*
D03*
D123*
X12100002Y5600000D02*
D03*
X400000Y400000D02*
D03*
Y5600000D02*
D03*
X12100002Y400000D02*
D03*
%TF.MD5,45e8e996e250b1acc694534aa34bd565*%
M02*
