%TF.GenerationSoftware,Altium Limited,Altium Designer,25.5.2 (35)*%
G04 Layer_Color=0*
%FSLAX45Y45*%
%MOMM*%
%TF.SameCoordinates,71E00EFA-37BE-4E02-AFE8-A08B7019828F*%
%TF.FilePolarity,Positive*%
%TF.FileFunction,Plated,1,4,PTH,Drill*%
%TF.Part,Single*%
G01*
G75*
%TA.AperFunction,ComponentDrill*%
%ADD136C,1.00000*%
%ADD137C,1.30000*%
%ADD138C,1.10000*%
%ADD139C,0.88900*%
%ADD140C,1.02000*%
%ADD141C,1.10000*%
%ADD142C,0.55000*%
%TA.AperFunction,ViaDrill,NotFilled*%
%ADD143C,0.20000*%
%ADD144C,2.50000*%
%ADD145C,3.30000*%
D136*
X7262500Y240000D02*
D03*
X7110000Y5520000D02*
D03*
D137*
X12190001Y873000D02*
D03*
Y1127000D02*
D03*
D138*
X5278000Y5445000D02*
D03*
X5532000D02*
D03*
X5024000D02*
D03*
X5786000D02*
D03*
D139*
X2739002Y2603000D02*
D03*
X2231002D02*
D03*
X1977002D02*
D03*
X1723002D02*
D03*
X1469002D02*
D03*
X1215002D02*
D03*
X961002D02*
D03*
X2485002D02*
D03*
Y317000D02*
D03*
X961002D02*
D03*
X1215002D02*
D03*
X1469002D02*
D03*
X1977002D02*
D03*
X2231002D02*
D03*
X2739002D02*
D03*
X1723002D02*
D03*
X2739002Y5683000D02*
D03*
X2231002D02*
D03*
X1977002D02*
D03*
X1723002D02*
D03*
X1469002D02*
D03*
X1215002D02*
D03*
X961002D02*
D03*
X2485002D02*
D03*
Y3397000D02*
D03*
X961002D02*
D03*
X1215002D02*
D03*
X1469002D02*
D03*
X1977002D02*
D03*
X2231002D02*
D03*
X2739002D02*
D03*
X1723002D02*
D03*
D140*
X9567500Y1347500D02*
D03*
X9313500D02*
D03*
X9059500D02*
D03*
D141*
X12313240Y3889253D02*
D03*
X7487240Y2111253D02*
D03*
X12313240D02*
D03*
X12059240D02*
D03*
X11805240D02*
D03*
X11551240D02*
D03*
X11297240D02*
D03*
X11043240D02*
D03*
X10789240D02*
D03*
X10535240D02*
D03*
X10281240D02*
D03*
X10027240D02*
D03*
X9773240D02*
D03*
X9519240D02*
D03*
X9265240D02*
D03*
X9011240D02*
D03*
X12059240Y3889253D02*
D03*
X11805240D02*
D03*
X11551240D02*
D03*
X11297240D02*
D03*
X11043240D02*
D03*
X10789240D02*
D03*
X10535240D02*
D03*
X10281240D02*
D03*
X10027240D02*
D03*
X9773240D02*
D03*
X9519240D02*
D03*
X9265240D02*
D03*
X9011240D02*
D03*
X8757240D02*
D03*
X8503240D02*
D03*
X8249240D02*
D03*
X7995240D02*
D03*
X7741240D02*
D03*
X7487240D02*
D03*
X7741240Y2111253D02*
D03*
X7995240D02*
D03*
X8249240D02*
D03*
X8503240D02*
D03*
X8757240D02*
D03*
D142*
X10030000Y880000D02*
D03*
Y740000D02*
D03*
D143*
X10405535Y1849633D02*
D03*
X12100000Y5249999D02*
D03*
X11700000D02*
D03*
X11900000Y4849999D02*
D03*
X11700000Y450000D02*
D03*
X10900000D02*
D03*
X10100000Y2850000D02*
D03*
X9700000Y4449999D02*
D03*
Y3650000D02*
D03*
Y2850000D02*
D03*
X9300000Y4449999D02*
D03*
Y3650000D02*
D03*
X8900000Y4449999D02*
D03*
Y3650000D02*
D03*
Y2850000D02*
D03*
Y1250000D02*
D03*
X8500000Y3650000D02*
D03*
X8700000Y3250000D02*
D03*
X8500000Y2850000D02*
D03*
X8700000Y2450000D02*
D03*
X8300000Y850000D02*
D03*
X7900000D02*
D03*
X7300000Y2050000D02*
D03*
X7500000Y850000D02*
D03*
X7100000D02*
D03*
X6500000Y3650000D02*
D03*
X6700000Y3250000D02*
D03*
X6500000Y2850000D02*
D03*
X6700000Y2450000D02*
D03*
Y850000D02*
D03*
X6300000D02*
D03*
X5700001Y2850000D02*
D03*
X5900000Y2450000D02*
D03*
Y850000D02*
D03*
X5300001Y2850000D02*
D03*
X5500000Y850000D02*
D03*
X5100000Y2450000D02*
D03*
X4500001Y3650000D02*
D03*
X4700001Y2450000D02*
D03*
X4100001Y2850000D02*
D03*
X4300001Y850000D02*
D03*
X3700001Y2850000D02*
D03*
X3900001Y850000D02*
D03*
X3300001Y2850000D02*
D03*
X3500001Y2450000D02*
D03*
X2900001Y5249999D02*
D03*
Y2850000D02*
D03*
X3100001Y2450000D02*
D03*
Y850000D02*
D03*
X2500001Y5249999D02*
D03*
X2700001Y2450000D02*
D03*
Y850000D02*
D03*
X2300001Y4849999D02*
D03*
X2100001Y450000D02*
D03*
X1700001Y5249999D02*
D03*
Y4449999D02*
D03*
X1900001Y2450000D02*
D03*
Y850000D02*
D03*
X1300001Y5249999D02*
D03*
X1500001Y4849999D02*
D03*
X1300001Y4449999D02*
D03*
X1500001Y4050000D02*
D03*
X1300001Y3650000D02*
D03*
X1500001Y3250000D02*
D03*
Y2450000D02*
D03*
Y1650000D02*
D03*
X1300001Y450000D02*
D03*
X900001Y5249999D02*
D03*
X1100001Y4849999D02*
D03*
X900001Y4449999D02*
D03*
X1100001Y4050000D02*
D03*
X900001Y3650000D02*
D03*
X1100001Y3250000D02*
D03*
X900001Y2850000D02*
D03*
X1100001Y2450000D02*
D03*
X900001Y2050000D02*
D03*
X1100001Y1650000D02*
D03*
X900001Y1250000D02*
D03*
X700001Y5649999D02*
D03*
X500001Y5249999D02*
D03*
X700001Y4849999D02*
D03*
X500001Y4449999D02*
D03*
X700001Y4050000D02*
D03*
X500001Y3650000D02*
D03*
X700001Y3250000D02*
D03*
X500001Y2850000D02*
D03*
Y2050000D02*
D03*
X700001Y1650000D02*
D03*
X500001Y1250000D02*
D03*
X700001Y850000D02*
D03*
X100001Y5249999D02*
D03*
X300001Y4849999D02*
D03*
X100001Y4449999D02*
D03*
X300001Y4050000D02*
D03*
X100001Y3650000D02*
D03*
X300001Y3250000D02*
D03*
X100001Y2850000D02*
D03*
X300001Y2450000D02*
D03*
X100001Y2050000D02*
D03*
X300001Y1650000D02*
D03*
X100001Y1250000D02*
D03*
X300001Y850000D02*
D03*
X100001Y450000D02*
D03*
X5400002Y4410000D02*
D03*
X5510001D02*
D03*
X5400002Y4300000D02*
D03*
X5510001D02*
D03*
X8515000Y1255000D02*
D03*
X6865000Y4070000D02*
D03*
X4460002Y1965000D02*
D03*
Y2055000D02*
D03*
Y2145000D02*
D03*
X5660002Y1965000D02*
D03*
Y2055000D02*
D03*
Y2145000D02*
D03*
X6645001Y1965001D02*
D03*
Y2055001D02*
D03*
Y2145001D02*
D03*
X4202500Y1852500D02*
D03*
X6587500Y1920000D02*
D03*
X6560000Y1700000D02*
D03*
X6300000D02*
D03*
X5040000D02*
D03*
X4780000D02*
D03*
X6977500Y1710000D02*
D03*
X5540000Y1700000D02*
D03*
X5800000D02*
D03*
X6940000Y1770000D02*
D03*
X5290000Y1700000D02*
D03*
X6050000D02*
D03*
X4530000D02*
D03*
X11550000Y5250000D02*
D03*
X11630000Y5247500D02*
D03*
X11260000Y5607500D02*
D03*
X11287500Y5672500D02*
D03*
X5030000Y4077500D02*
D03*
X4986926Y4278924D02*
D03*
X5432500Y3920000D02*
D03*
X5502057Y3970356D02*
D03*
X5155001Y4427500D02*
D03*
X5077109Y4410001D02*
D03*
X5588371Y5043842D02*
D03*
X10890000Y740000D02*
D03*
X10679018Y329018D02*
D03*
X10670001Y430000D02*
D03*
Y520000D02*
D03*
X5067500Y4580000D02*
D03*
X5330001Y3920000D02*
D03*
X5890001Y4450000D02*
D03*
Y4100000D02*
D03*
X11660001Y2202500D02*
D03*
X10940001D02*
D03*
X11170001D02*
D03*
X11430001D02*
D03*
X10873740Y3634074D02*
D03*
X12154750Y3300000D02*
D03*
X12227500Y2442500D02*
D03*
X10645000Y2870000D02*
D03*
X10512500D02*
D03*
X10657500Y3755000D02*
D03*
X10915000D02*
D03*
X11167500D02*
D03*
X11420000Y3757500D02*
D03*
X12379874Y3626124D02*
D03*
X11302500Y2337500D02*
D03*
X10882500Y2570000D02*
D03*
X12135000Y3112500D02*
D03*
Y3047500D02*
D03*
X8575000Y1005000D02*
D03*
X8482378Y1190000D02*
D03*
X1902500Y1480000D02*
D03*
X2107500Y922500D02*
D03*
X2305000Y1355000D02*
D03*
X2125000Y1437500D02*
D03*
X3570000Y1132500D02*
D03*
X3902500Y1130000D02*
D03*
X10522500Y5170000D02*
D03*
Y5330000D02*
D03*
X9835000Y5110000D02*
D03*
X6212500Y3130000D02*
D03*
X4432500Y3225000D02*
D03*
X3672500Y1862500D02*
D03*
X3490000Y990000D02*
D03*
X6070000Y3280000D02*
D03*
X4432500Y3510000D02*
D03*
Y3370000D02*
D03*
X2530000Y2890000D02*
D03*
Y3040000D02*
D03*
X6216543Y5494114D02*
D03*
X6082500Y5417500D02*
D03*
X6107500Y3447500D02*
D03*
X6100000Y3600000D02*
D03*
X6295000Y3140000D02*
D03*
X5230000Y3670000D02*
D03*
X7810000Y4510000D02*
D03*
X7142500Y1690000D02*
D03*
X7150000Y1940000D02*
D03*
X6877500Y1972500D02*
D03*
X7010000Y1940000D02*
D03*
X7290000Y4070000D02*
D03*
X10409705Y5032500D02*
D03*
X10517500Y5072500D02*
D03*
X11377500Y5272500D02*
D03*
X11750000Y4840000D02*
D03*
X9860000Y4660000D02*
D03*
X11170000Y5110000D02*
D03*
X10935005Y4960003D02*
D03*
X2280000Y4100000D02*
D03*
X3617500Y1810000D02*
D03*
X4382500Y2227500D02*
D03*
X5400000Y1925000D02*
D03*
X6397500Y3625000D02*
D03*
X7967499Y4867502D02*
D03*
X8107499Y4867502D02*
D03*
X8072500Y5422500D02*
D03*
X7480000Y5177500D02*
D03*
X7832500Y5610000D02*
D03*
X7807500Y5177500D02*
D03*
X8920000Y5402500D02*
D03*
X10299705Y5330000D02*
D03*
X2437500Y3172500D02*
D03*
X2435000Y2747500D02*
D03*
X1772500Y2792500D02*
D03*
X1622500Y1915000D02*
D03*
X2110000Y1922500D02*
D03*
X1850000Y1920000D02*
D03*
X1230000Y1050000D02*
D03*
X1087500Y847500D02*
D03*
X1605000Y1432500D02*
D03*
X7610000Y4982500D02*
D03*
X8362500Y4732500D02*
D03*
X9415000Y5110000D02*
D03*
X9002500Y4832500D02*
D03*
X8855845Y5111655D02*
D03*
X8692500Y4925000D02*
D03*
X10160000Y4660000D02*
D03*
X9092500D02*
D03*
X7345000Y1927500D02*
D03*
X7012500Y3637500D02*
D03*
Y2205000D02*
D03*
X7010000Y2627500D02*
D03*
X7012500Y3167500D02*
D03*
X7150000D02*
D03*
X7147500Y2627500D02*
D03*
X7150000Y2205000D02*
D03*
Y3637500D02*
D03*
X10270000Y5622500D02*
D03*
X6425000Y4482500D02*
D03*
X4705000Y5017500D02*
D03*
X4244277Y4619277D02*
D03*
X3915000Y4275000D02*
D03*
X3902500Y4925000D02*
D03*
X3591777Y4616777D02*
D03*
X4530874Y5546345D02*
D03*
X3262500Y4272500D02*
D03*
X2585000Y4277500D02*
D03*
X5112500Y3047500D02*
D03*
X4432500Y3300000D02*
D03*
Y3440000D02*
D03*
Y3580000D02*
D03*
Y3670000D02*
D03*
X3857500Y897500D02*
D03*
X6577500Y242500D02*
D03*
X5377500Y252500D02*
D03*
X4177500Y342500D02*
D03*
X11885000Y630000D02*
D03*
X12372500Y247500D02*
D03*
X12215000Y105000D02*
D03*
X11997500Y72500D02*
D03*
X11747500D02*
D03*
X8880000Y810000D02*
D03*
X10690000Y755000D02*
D03*
X10205054Y617500D02*
D03*
X10215000Y1037500D02*
D03*
X8382500Y120000D02*
D03*
X7762500Y122500D02*
D03*
X10195000Y120000D02*
D03*
X10600820Y117093D02*
D03*
X9575000Y122500D02*
D03*
X8948652Y123652D02*
D03*
X3212500Y382500D02*
D03*
X9202500Y4962500D02*
D03*
X3853374Y5551345D02*
D03*
X2440940Y3885000D02*
D03*
X2842500Y3657500D02*
D03*
X3357500Y3835000D02*
D03*
X3977500Y3832500D02*
D03*
X2914277Y4621777D02*
D03*
X3536777Y5229277D02*
D03*
X3225000Y4930000D02*
D03*
X2357500Y5645000D02*
D03*
X2495000Y5515000D02*
D03*
X2827500Y5517500D02*
D03*
X3080000Y5782500D02*
D03*
X2357500Y5785000D02*
D03*
X2107500D02*
D03*
X1125000Y5942500D02*
D03*
X1272500Y5867500D02*
D03*
X1597500Y5787500D02*
D03*
X1742500Y5532500D02*
D03*
X1570000Y5535000D02*
D03*
X2282500Y3857500D02*
D03*
Y3585000D02*
D03*
X3250000Y5582500D02*
D03*
X3530000Y5585000D02*
D03*
X6824516Y4773769D02*
D03*
X4407500Y2665000D02*
D03*
X4762500Y3027500D02*
D03*
X4735000Y3235000D02*
D03*
X4862500D02*
D03*
X5112500Y3237500D02*
D03*
X5300000Y3240000D02*
D03*
X5732500Y3225000D02*
D03*
X5570000Y3240000D02*
D03*
X4962500Y4025000D02*
D03*
X4735000Y3667500D02*
D03*
Y3850000D02*
D03*
X4750000Y4387500D02*
D03*
X11532500Y1377500D02*
D03*
X12400000Y1812500D02*
D03*
X12187500Y1810000D02*
D03*
X11937500D02*
D03*
X11742500D02*
D03*
X9397500Y1847500D02*
D03*
X9647500D02*
D03*
X10152500Y1852500D02*
D03*
X10663457Y1849201D02*
D03*
X7010000Y4690000D02*
D03*
X7150000D02*
D03*
X5380000Y4840000D02*
D03*
Y5232500D02*
D03*
X4482500Y4360000D02*
D03*
Y3850000D02*
D03*
X3602500Y65000D02*
D03*
X3085000Y107500D02*
D03*
X2835000D02*
D03*
X2585000D02*
D03*
X2285000Y105000D02*
D03*
X2075000Y107500D02*
D03*
X4637500Y200000D02*
D03*
X5865000Y202500D02*
D03*
X6867500Y5187500D02*
D03*
X6375000D02*
D03*
X5880000Y4702500D02*
D03*
X6242500Y4030000D02*
D03*
X6042500Y3845000D02*
D03*
X5877500Y5232500D02*
D03*
X6220000Y4977500D02*
D03*
X5635000Y4692500D02*
D03*
X6705000Y4500000D02*
D03*
X10582500Y4220000D02*
D03*
X10132500Y4522500D02*
D03*
X10360000Y4660000D02*
D03*
X10982500Y4477500D02*
D03*
X10940000Y5170000D02*
D03*
X11207500Y4735000D02*
D03*
X9207500Y5377500D02*
D03*
X10055000Y5325000D02*
D03*
X8940000Y4660000D02*
D03*
X7300000Y4982500D02*
D03*
X7290000Y4690000D02*
D03*
X7775000Y4657500D02*
D03*
X8363345Y5606655D02*
D03*
X8600000Y5380000D02*
D03*
X9535000Y5620000D02*
D03*
X10950000Y5622500D02*
D03*
X9540000Y4660000D02*
D03*
X10322500Y4345000D02*
D03*
X10585000Y4347500D02*
D03*
X10747500Y4270000D02*
D03*
X8777500Y5622500D02*
D03*
X2335000Y2120000D02*
D03*
X2647500Y2117500D02*
D03*
X3440000Y2120000D02*
D03*
X3040000D02*
D03*
X2457500Y1922500D02*
D03*
X2720000Y1925000D02*
D03*
X3180000D02*
D03*
X2970000D02*
D03*
Y1700000D02*
D03*
X3180000D02*
D03*
X2720000D02*
D03*
X2457500Y1697500D02*
D03*
X2997500Y3345000D02*
D03*
X3000000Y3147500D02*
D03*
X3510000Y3510000D02*
D03*
Y3367500D02*
D03*
X4020000Y3370000D02*
D03*
Y3510000D02*
D03*
X10929945Y940001D02*
D03*
X10470000Y5217500D02*
D03*
X10059705Y5050000D02*
D03*
X9969705Y5180000D02*
D03*
X10329705Y5032500D02*
D03*
X10409705Y5180000D02*
D03*
X3490000Y860000D02*
D03*
X3212500Y847500D02*
D03*
Y1117500D02*
D03*
X1640000Y3040000D02*
D03*
X1360000Y2120000D02*
D03*
X1610000D02*
D03*
X1850000D02*
D03*
X2110000D02*
D03*
Y2380000D02*
D03*
Y1700000D02*
D03*
X1857500Y1695000D02*
D03*
X1640000Y1200000D02*
D03*
X1860000D02*
D03*
X2802500D02*
D03*
X2385000Y1175000D02*
D03*
X2120000Y1200000D02*
D03*
X9410000Y5250000D02*
D03*
X11829997Y1420000D02*
D03*
X11340000Y1310000D02*
D03*
X11430000Y1740000D02*
D03*
X10940000D02*
D03*
X10880000Y1670000D02*
D03*
X10000000Y1430000D02*
D03*
X8542378Y1070000D02*
D03*
X3770000Y2030000D02*
D03*
X3490000Y1070000D02*
D03*
Y1700000D02*
D03*
X4060000Y1270000D02*
D03*
Y1190000D02*
D03*
X10040503Y1334001D02*
D03*
X9480000Y750000D02*
D03*
X9370000Y460000D02*
D03*
X3770000Y140000D02*
D03*
X3420000Y270000D02*
D03*
X4010000Y210000D02*
D03*
X6410000Y200000D02*
D03*
X6270000D02*
D03*
X5710000D02*
D03*
X5070000D02*
D03*
X4510000D02*
D03*
X3870000D02*
D03*
X6969999Y140001D02*
D03*
X580000Y107500D02*
D03*
X830000D02*
D03*
X1090000D02*
D03*
X1340000D02*
D03*
X1590000D02*
D03*
X1850000D02*
D03*
X2347500Y847500D02*
D03*
X3002500D02*
D03*
X6430000Y850000D02*
D03*
X3992500Y847500D02*
D03*
X5070000Y892500D02*
D03*
X5332500Y850000D02*
D03*
X3890000Y1320000D02*
D03*
X8180000Y4590000D02*
D03*
X11770000Y5740000D02*
D03*
X12000000Y5930000D02*
D03*
X11580000D02*
D03*
X3387500Y3670000D02*
D03*
X3730000D02*
D03*
X4117500D02*
D03*
X4735000Y3370000D02*
D03*
Y3510000D02*
D03*
X7830000Y1700000D02*
D03*
X8130000D02*
D03*
X2090000Y5590000D02*
D03*
X5320000Y3670000D02*
D03*
X4120000Y1770000D02*
D03*
X7080000Y1630000D02*
D03*
X4304751Y1617067D02*
D03*
X8570000Y4660000D02*
D03*
X8830000Y4430000D02*
D03*
X6291076Y5536707D02*
D03*
X5620000Y5180000D02*
D03*
X2250000Y5520000D02*
D03*
X6940000Y4690000D02*
D03*
X7220000D02*
D03*
X7080000D02*
D03*
X6940000Y1940000D02*
D03*
Y4070000D02*
D03*
X7080000D02*
D03*
X7010000D02*
D03*
X7150000D02*
D03*
X7220000D02*
D03*
X7080000Y1940000D02*
D03*
X3750000Y1580000D02*
D03*
X3965000Y1725000D02*
D03*
X3910000Y1680000D02*
D03*
X3750000Y1510000D02*
D03*
X4247500Y1657500D02*
D03*
X4125000Y1852500D02*
D03*
X2530000Y2820000D02*
D03*
Y3110000D02*
D03*
Y2970000D02*
D03*
X3545000Y1747500D02*
D03*
X3705000Y2000000D02*
D03*
X11010002Y1249999D02*
D03*
X10790001Y1320000D02*
D03*
X11340001Y1439999D02*
D03*
X4470001Y4817499D02*
D03*
X6150001Y5450000D02*
D03*
X10200001Y4220000D02*
D03*
X10430001D02*
D03*
X11420001Y4200000D02*
D03*
X11650001D02*
D03*
X4820001Y4450000D02*
D03*
X9010002Y4660000D02*
D03*
X8250001Y4590000D02*
D03*
X6320001Y3210000D02*
D03*
X6170001Y3300000D02*
D03*
X11192499Y4962500D02*
D03*
X6502926Y4411923D02*
D03*
X5020002Y5040002D02*
D03*
X5019999Y5160001D02*
D03*
X5280001Y5039999D02*
D03*
X5280002Y5159999D02*
D03*
X2250002Y5430000D02*
D03*
X5580002Y5240000D02*
D03*
X7787498Y4897499D02*
D03*
X7740002Y4510000D02*
D03*
X8500002Y4660000D02*
D03*
X8760002Y4430000D02*
D03*
X9839711Y5250003D02*
D03*
X5355001Y4742500D02*
D03*
X5497681Y3827680D02*
D03*
X6042502Y3672500D02*
D03*
X5765001Y4914999D02*
D03*
X5950358Y4210354D02*
D03*
X5950356Y4350356D02*
D03*
X5765001Y4765000D02*
D03*
X5017110Y4210004D02*
D03*
X4655001Y475001D02*
D03*
X4955001D02*
D03*
X7065001D02*
D03*
X5855001D02*
D03*
X6155001D02*
D03*
X3745001D02*
D03*
X8387500Y5247500D02*
D03*
X8387501Y5107499D02*
D03*
X11170000Y1740000D02*
D03*
D144*
X6579999Y5445000D02*
D03*
X4230001Y3065005D02*
D03*
X6579999D02*
D03*
X4230001Y5445000D02*
D03*
D145*
X12100002Y5600000D02*
D03*
X400000Y400000D02*
D03*
Y5600000D02*
D03*
X12100002Y400000D02*
D03*
%TF.MD5,43a65841b1893d6e3d6b9bdf9d167186*%
M02*
