%TF.GenerationSoftware,Altium Limited,Altium Designer,25.5.2 (35)*%
G04 Layer_Color=8421504*
%FSLAX45Y45*%
%MOMM*%
%TF.SameCoordinates,71E00EFA-37BE-4E02-AFE8-A08B7019828F*%
%TF.FilePolarity,Positive*%
%TF.FileFunction,Paste,Top*%
%TF.Part,Single*%
G01*
G75*
%TA.AperFunction,SMDPad,CuDef*%
%ADD13R,0.80000X0.90000*%
%ADD14R,2.10000X1.40000*%
%ADD15R,0.72000X0.30000*%
G04:AMPARAMS|DCode=16|XSize=0.76mm|YSize=0.6604mm|CornerRadius=0.08255mm|HoleSize=0mm|Usage=FLASHONLY|Rotation=0.000|XOffset=0mm|YOffset=0mm|HoleType=Round|Shape=RoundedRectangle|*
%AMROUNDEDRECTD16*
21,1,0.76000,0.49530,0,0,0.0*
21,1,0.59490,0.66040,0,0,0.0*
1,1,0.16510,0.29745,-0.24765*
1,1,0.16510,-0.29745,-0.24765*
1,1,0.16510,-0.29745,0.24765*
1,1,0.16510,0.29745,0.24765*
%
%ADD16ROUNDEDRECTD16*%
%ADD17R,0.30000X0.60000*%
%ADD18O,0.25000X0.95000*%
%ADD19O,0.95000X0.25000*%
%ADD20O,0.85000X0.20000*%
%ADD21O,0.20000X0.85000*%
%ADD22R,2.65000X2.65000*%
%ADD23C,1.57480*%
%ADD24R,1.57480X1.57480*%
%ADD25O,1.45000X1.05000*%
%ADD26O,1.80000X1.10000*%
G04:AMPARAMS|DCode=27|XSize=1.5mm|YSize=1.5mm|CornerRadius=0.3mm|HoleSize=0mm|Usage=FLASHONLY|Rotation=270.000|XOffset=0mm|YOffset=0mm|HoleType=Round|Shape=RoundedRectangle|*
%AMROUNDEDRECTD27*
21,1,1.50000,0.90000,0,0,270.0*
21,1,0.90000,1.50000,0,0,270.0*
1,1,0.60000,-0.45000,-0.45000*
1,1,0.60000,-0.45000,0.45000*
1,1,0.60000,0.45000,0.45000*
1,1,0.60000,0.45000,-0.45000*
%
%ADD27ROUNDEDRECTD27*%
%ADD28R,1.20000X1.20000*%
%ADD29R,1.50000X1.60000*%
G04:AMPARAMS|DCode=30|XSize=1.68435mm|YSize=0.62684mm|CornerRadius=0.31342mm|HoleSize=0mm|Usage=FLASHONLY|Rotation=0.000|XOffset=0mm|YOffset=0mm|HoleType=Round|Shape=RoundedRectangle|*
%AMROUNDEDRECTD30*
21,1,1.68435,0.00000,0,0,0.0*
21,1,1.05751,0.62684,0,0,0.0*
1,1,0.62684,0.52875,0.00000*
1,1,0.62684,-0.52875,0.00000*
1,1,0.62684,-0.52875,0.00000*
1,1,0.62684,0.52875,0.00000*
%
%ADD30ROUNDEDRECTD30*%
%ADD31R,1.68435X0.62684*%
%ADD32R,0.80000X1.00000*%
%ADD33R,1.60000X0.50000*%
%ADD34R,1.00000X1.00000*%
%ADD37R,0.60000X1.10000*%
%ADD38R,0.80000X0.80000*%
G04:AMPARAMS|DCode=39|XSize=0.76mm|YSize=0.6604mm|CornerRadius=0.08255mm|HoleSize=0mm|Usage=FLASHONLY|Rotation=90.000|XOffset=0mm|YOffset=0mm|HoleType=Round|Shape=RoundedRectangle|*
%AMROUNDEDRECTD39*
21,1,0.76000,0.49530,0,0,90.0*
21,1,0.59490,0.66040,0,0,90.0*
1,1,0.16510,0.24765,0.29745*
1,1,0.16510,0.24765,-0.29745*
1,1,0.16510,-0.24765,-0.29745*
1,1,0.16510,-0.24765,0.29745*
%
%ADD39ROUNDEDRECTD39*%
G04:AMPARAMS|DCode=40|XSize=0.76mm|YSize=0.6604mm|CornerRadius=0.08255mm|HoleSize=0mm|Usage=FLASHONLY|Rotation=225.000|XOffset=0mm|YOffset=0mm|HoleType=Round|Shape=RoundedRectangle|*
%AMROUNDEDRECTD40*
21,1,0.76000,0.49530,0,0,225.0*
21,1,0.59490,0.66040,0,0,225.0*
1,1,0.16510,-0.38544,-0.03521*
1,1,0.16510,0.03521,0.38544*
1,1,0.16510,0.38544,0.03521*
1,1,0.16510,-0.03521,-0.38544*
%
%ADD40ROUNDEDRECTD40*%
%TA.AperFunction,NonConductor*%
%ADD133R,0.70000X0.23000*%
%ADD134R,0.70000X0.23000*%
G36*
X12393005Y4129001D02*
X12393236Y3889256D01*
X12393236Y3884013D01*
X12391869Y3873616D01*
X12389155Y3863486D01*
X12385142Y3853796D01*
X12379899Y3844714D01*
X12373515Y3836394D01*
X12366099Y3828979D01*
X12357778Y3822596D01*
X12348696Y3817354D01*
X12339006Y3813342D01*
X12328876Y3810629D01*
X12318478Y3809263D01*
X12313235Y3809264D01*
X12307992Y3809263D01*
X12297595Y3810631D01*
X12287466Y3813345D01*
X12277777Y3817357D01*
X12268696Y3822600D01*
X12260376Y3828983D01*
X12252961Y3836398D01*
X12246577Y3844717D01*
X12241334Y3853799D01*
X12237321Y3863487D01*
X12234607Y3873616D01*
X12233239Y3884013D01*
X12233240Y3889256D01*
X12233239Y3889256D01*
X12233004Y4129002D01*
X12393005Y4129001D01*
D02*
G37*
G36*
X12139005D02*
X12139236Y3889256D01*
X12139236Y3884013D01*
X12137869Y3873616D01*
X12135155Y3863486D01*
X12131142Y3853796D01*
X12125899Y3844714D01*
X12119515Y3836394D01*
X12112099Y3828979D01*
X12103778Y3822596D01*
X12094696Y3817354D01*
X12085006Y3813342D01*
X12074876Y3810629D01*
X12064478Y3809263D01*
X12059235Y3809264D01*
X12053992Y3809263D01*
X12043595Y3810631D01*
X12033466Y3813345D01*
X12023777Y3817357D01*
X12014696Y3822600D01*
X12006376Y3828983D01*
X11998961Y3836398D01*
X11992577Y3844717D01*
X11987334Y3853799D01*
X11983321Y3863487D01*
X11980607Y3873616D01*
X11979239Y3884013D01*
X11979240Y3889256D01*
X11979239Y3889256D01*
X11979004Y4129002D01*
X12139005Y4129001D01*
D02*
G37*
G36*
X11885005D02*
X11885236Y3889256D01*
X11885236Y3884013D01*
X11883869Y3873616D01*
X11881155Y3863486D01*
X11877142Y3853796D01*
X11871899Y3844714D01*
X11865515Y3836394D01*
X11858099Y3828979D01*
X11849778Y3822596D01*
X11840696Y3817354D01*
X11831006Y3813342D01*
X11820876Y3810629D01*
X11810478Y3809263D01*
X11805235Y3809264D01*
X11799992Y3809263D01*
X11789595Y3810631D01*
X11779466Y3813345D01*
X11769777Y3817357D01*
X11760696Y3822600D01*
X11752376Y3828983D01*
X11744961Y3836398D01*
X11738577Y3844717D01*
X11733334Y3853799D01*
X11729321Y3863487D01*
X11726607Y3873616D01*
X11725239Y3884013D01*
X11725240Y3889256D01*
X11725239Y3889256D01*
X11725004Y4129002D01*
X11885005Y4129001D01*
D02*
G37*
G36*
X11631005D02*
X11631236Y3889256D01*
X11631236Y3884013D01*
X11629869Y3873616D01*
X11627155Y3863486D01*
X11623142Y3853796D01*
X11617899Y3844714D01*
X11611515Y3836394D01*
X11604099Y3828979D01*
X11595778Y3822596D01*
X11586696Y3817354D01*
X11577006Y3813342D01*
X11566876Y3810629D01*
X11556478Y3809263D01*
X11551235Y3809264D01*
X11545992Y3809263D01*
X11535595Y3810631D01*
X11525466Y3813345D01*
X11515777Y3817357D01*
X11506696Y3822600D01*
X11498376Y3828983D01*
X11490961Y3836398D01*
X11484577Y3844717D01*
X11479334Y3853799D01*
X11475321Y3863487D01*
X11472607Y3873616D01*
X11471239Y3884013D01*
X11471240Y3889256D01*
X11471239Y3889256D01*
X11471004Y4129002D01*
X11631005Y4129001D01*
D02*
G37*
G36*
X11377005D02*
X11377236Y3889256D01*
X11377236Y3884013D01*
X11375869Y3873616D01*
X11373155Y3863486D01*
X11369142Y3853796D01*
X11363899Y3844714D01*
X11357515Y3836394D01*
X11350099Y3828979D01*
X11341778Y3822596D01*
X11332696Y3817354D01*
X11323006Y3813342D01*
X11312876Y3810629D01*
X11302478Y3809263D01*
X11297235Y3809264D01*
X11291992Y3809263D01*
X11281595Y3810631D01*
X11271466Y3813345D01*
X11261777Y3817357D01*
X11252696Y3822600D01*
X11244376Y3828983D01*
X11236961Y3836398D01*
X11230577Y3844717D01*
X11225334Y3853799D01*
X11221321Y3863487D01*
X11218607Y3873616D01*
X11217239Y3884013D01*
X11217240Y3889256D01*
X11217239Y3889256D01*
X11217004Y4129002D01*
X11377005Y4129001D01*
D02*
G37*
G36*
X11123005D02*
X11123236Y3889256D01*
X11123236Y3884013D01*
X11121869Y3873616D01*
X11119155Y3863486D01*
X11115142Y3853796D01*
X11109899Y3844714D01*
X11103515Y3836394D01*
X11096099Y3828979D01*
X11087778Y3822596D01*
X11078696Y3817354D01*
X11069006Y3813342D01*
X11058876Y3810629D01*
X11048478Y3809263D01*
X11043235Y3809264D01*
X11037992Y3809263D01*
X11027595Y3810631D01*
X11017466Y3813345D01*
X11007777Y3817357D01*
X10998696Y3822600D01*
X10990376Y3828983D01*
X10982961Y3836398D01*
X10976577Y3844717D01*
X10971334Y3853799D01*
X10967321Y3863487D01*
X10964607Y3873616D01*
X10963239Y3884013D01*
X10963240Y3889256D01*
X10963239Y3889256D01*
X10963004Y4129002D01*
X11123005Y4129001D01*
D02*
G37*
G36*
X10869005D02*
X10869236Y3889256D01*
X10869236Y3884013D01*
X10867869Y3873616D01*
X10865155Y3863486D01*
X10861142Y3853796D01*
X10855899Y3844714D01*
X10849515Y3836394D01*
X10842099Y3828979D01*
X10833778Y3822596D01*
X10824696Y3817354D01*
X10815006Y3813342D01*
X10804876Y3810629D01*
X10794478Y3809263D01*
X10789235Y3809264D01*
X10783992Y3809263D01*
X10773595Y3810631D01*
X10763466Y3813345D01*
X10753777Y3817357D01*
X10744696Y3822600D01*
X10736376Y3828983D01*
X10728961Y3836398D01*
X10722577Y3844717D01*
X10717334Y3853799D01*
X10713321Y3863487D01*
X10710607Y3873616D01*
X10709239Y3884013D01*
X10709240Y3889256D01*
X10709239Y3889256D01*
X10709004Y4129002D01*
X10869005Y4129001D01*
D02*
G37*
G36*
X10615005D02*
X10615236Y3889256D01*
X10615236Y3884013D01*
X10613869Y3873616D01*
X10611155Y3863486D01*
X10607142Y3853796D01*
X10601899Y3844714D01*
X10595515Y3836394D01*
X10588099Y3828979D01*
X10579778Y3822596D01*
X10570696Y3817354D01*
X10561006Y3813342D01*
X10550876Y3810629D01*
X10540478Y3809263D01*
X10535235Y3809264D01*
X10529992Y3809263D01*
X10519595Y3810631D01*
X10509466Y3813345D01*
X10499777Y3817357D01*
X10490696Y3822600D01*
X10482376Y3828983D01*
X10474961Y3836398D01*
X10468577Y3844717D01*
X10463334Y3853799D01*
X10459321Y3863487D01*
X10456607Y3873616D01*
X10455239Y3884013D01*
X10455240Y3889256D01*
X10455239Y3889256D01*
X10455004Y4129002D01*
X10615005Y4129001D01*
D02*
G37*
G36*
X10361005D02*
X10361236Y3889256D01*
X10361236Y3884013D01*
X10359869Y3873616D01*
X10357155Y3863486D01*
X10353142Y3853796D01*
X10347899Y3844714D01*
X10341515Y3836394D01*
X10334099Y3828979D01*
X10325778Y3822596D01*
X10316696Y3817354D01*
X10307006Y3813342D01*
X10296876Y3810629D01*
X10286478Y3809263D01*
X10281235Y3809264D01*
X10275992Y3809263D01*
X10265595Y3810631D01*
X10255466Y3813345D01*
X10245777Y3817357D01*
X10236696Y3822600D01*
X10228376Y3828983D01*
X10220961Y3836398D01*
X10214577Y3844717D01*
X10209334Y3853799D01*
X10205321Y3863487D01*
X10202607Y3873616D01*
X10201239Y3884013D01*
X10201240Y3889256D01*
X10201239Y3889256D01*
X10201004Y4129002D01*
X10361005Y4129001D01*
D02*
G37*
G36*
X10107005D02*
X10107236Y3889256D01*
X10107236Y3884013D01*
X10105869Y3873616D01*
X10103155Y3863486D01*
X10099142Y3853796D01*
X10093899Y3844714D01*
X10087515Y3836394D01*
X10080099Y3828979D01*
X10071778Y3822596D01*
X10062696Y3817354D01*
X10053006Y3813342D01*
X10042876Y3810629D01*
X10032478Y3809263D01*
X10027235Y3809264D01*
X10021992Y3809263D01*
X10011595Y3810631D01*
X10001466Y3813345D01*
X9991777Y3817357D01*
X9982696Y3822600D01*
X9974376Y3828983D01*
X9966961Y3836398D01*
X9960577Y3844717D01*
X9955334Y3853799D01*
X9951321Y3863487D01*
X9948607Y3873616D01*
X9947239Y3884013D01*
X9947240Y3889256D01*
X9947239Y3889256D01*
X9947004Y4129002D01*
X10107005Y4129001D01*
D02*
G37*
G36*
X9853005D02*
X9853236Y3889256D01*
X9853236Y3884013D01*
X9851869Y3873616D01*
X9849155Y3863486D01*
X9845142Y3853796D01*
X9839899Y3844714D01*
X9833515Y3836394D01*
X9826099Y3828979D01*
X9817778Y3822596D01*
X9808696Y3817354D01*
X9799006Y3813342D01*
X9788876Y3810629D01*
X9778478Y3809263D01*
X9773235Y3809264D01*
X9767992Y3809263D01*
X9757595Y3810631D01*
X9747466Y3813345D01*
X9737777Y3817357D01*
X9728696Y3822600D01*
X9720376Y3828983D01*
X9712961Y3836398D01*
X9706577Y3844717D01*
X9701334Y3853799D01*
X9697321Y3863487D01*
X9694607Y3873616D01*
X9693239Y3884013D01*
X9693240Y3889256D01*
X9693239Y3889256D01*
X9693004Y4129002D01*
X9853005Y4129001D01*
D02*
G37*
G36*
X9599005D02*
X9599236Y3889256D01*
X9599236Y3884013D01*
X9597869Y3873616D01*
X9595155Y3863486D01*
X9591142Y3853796D01*
X9585899Y3844714D01*
X9579515Y3836394D01*
X9572099Y3828979D01*
X9563778Y3822596D01*
X9554696Y3817354D01*
X9545006Y3813342D01*
X9534876Y3810629D01*
X9524478Y3809263D01*
X9519235Y3809264D01*
X9513992Y3809263D01*
X9503595Y3810631D01*
X9493466Y3813345D01*
X9483777Y3817357D01*
X9474696Y3822600D01*
X9466376Y3828983D01*
X9458961Y3836398D01*
X9452577Y3844717D01*
X9447334Y3853799D01*
X9443321Y3863487D01*
X9440607Y3873616D01*
X9439239Y3884013D01*
X9439240Y3889256D01*
X9439239Y3889256D01*
X9439004Y4129002D01*
X9599005Y4129001D01*
D02*
G37*
G36*
X9345005D02*
X9345236Y3889256D01*
X9345236Y3884013D01*
X9343869Y3873616D01*
X9341155Y3863486D01*
X9337142Y3853796D01*
X9331899Y3844714D01*
X9325515Y3836394D01*
X9318099Y3828979D01*
X9309778Y3822596D01*
X9300696Y3817354D01*
X9291006Y3813342D01*
X9280876Y3810629D01*
X9270478Y3809263D01*
X9265235Y3809264D01*
X9259992Y3809263D01*
X9249595Y3810631D01*
X9239466Y3813345D01*
X9229777Y3817357D01*
X9220696Y3822600D01*
X9212376Y3828983D01*
X9204961Y3836398D01*
X9198577Y3844717D01*
X9193334Y3853799D01*
X9189321Y3863487D01*
X9186607Y3873616D01*
X9185239Y3884013D01*
X9185240Y3889256D01*
X9185239Y3889256D01*
X9185004Y4129002D01*
X9345005Y4129001D01*
D02*
G37*
G36*
X9091005D02*
X9091236Y3889256D01*
X9091236Y3884013D01*
X9089869Y3873616D01*
X9087155Y3863486D01*
X9083142Y3853796D01*
X9077899Y3844714D01*
X9071515Y3836394D01*
X9064099Y3828979D01*
X9055778Y3822596D01*
X9046696Y3817354D01*
X9037006Y3813342D01*
X9026876Y3810629D01*
X9016478Y3809263D01*
X9011235Y3809264D01*
X9005992Y3809263D01*
X8995595Y3810631D01*
X8985466Y3813345D01*
X8975777Y3817357D01*
X8966696Y3822600D01*
X8958376Y3828983D01*
X8950961Y3836398D01*
X8944577Y3844717D01*
X8939334Y3853799D01*
X8935321Y3863487D01*
X8932607Y3873616D01*
X8931239Y3884013D01*
X8931240Y3889256D01*
X8931239Y3889256D01*
X8931004Y4129002D01*
X9091005Y4129001D01*
D02*
G37*
G36*
X8837005D02*
X8837236Y3889256D01*
X8837236Y3884013D01*
X8835869Y3873616D01*
X8833155Y3863486D01*
X8829142Y3853796D01*
X8823899Y3844714D01*
X8817515Y3836394D01*
X8810099Y3828979D01*
X8801778Y3822596D01*
X8792696Y3817354D01*
X8783006Y3813342D01*
X8772876Y3810629D01*
X8762478Y3809263D01*
X8757235Y3809264D01*
X8751992Y3809263D01*
X8741595Y3810631D01*
X8731466Y3813345D01*
X8721777Y3817357D01*
X8712696Y3822600D01*
X8704376Y3828983D01*
X8696961Y3836398D01*
X8690577Y3844717D01*
X8685334Y3853799D01*
X8681321Y3863487D01*
X8678607Y3873616D01*
X8677239Y3884013D01*
X8677240Y3889256D01*
X8677239Y3889256D01*
X8677004Y4129002D01*
X8837005Y4129001D01*
D02*
G37*
G36*
X8583005D02*
X8583236Y3889256D01*
X8583236Y3884013D01*
X8581869Y3873616D01*
X8579155Y3863486D01*
X8575142Y3853796D01*
X8569899Y3844714D01*
X8563515Y3836394D01*
X8556099Y3828979D01*
X8547778Y3822596D01*
X8538696Y3817354D01*
X8529006Y3813342D01*
X8518876Y3810629D01*
X8508478Y3809263D01*
X8503235Y3809264D01*
X8497992Y3809263D01*
X8487595Y3810631D01*
X8477466Y3813345D01*
X8467777Y3817357D01*
X8458696Y3822600D01*
X8450376Y3828983D01*
X8442961Y3836398D01*
X8436577Y3844717D01*
X8431334Y3853799D01*
X8427321Y3863487D01*
X8424607Y3873616D01*
X8423239Y3884013D01*
X8423240Y3889256D01*
X8423239Y3889256D01*
X8423004Y4129002D01*
X8583005Y4129001D01*
D02*
G37*
G36*
X8329005D02*
X8329236Y3889256D01*
X8329236Y3884013D01*
X8327869Y3873616D01*
X8325155Y3863486D01*
X8321142Y3853796D01*
X8315899Y3844714D01*
X8309515Y3836394D01*
X8302099Y3828979D01*
X8293778Y3822596D01*
X8284696Y3817354D01*
X8275006Y3813342D01*
X8264876Y3810629D01*
X8254478Y3809263D01*
X8249235Y3809264D01*
X8243992Y3809263D01*
X8233595Y3810631D01*
X8223466Y3813345D01*
X8213777Y3817357D01*
X8204696Y3822600D01*
X8196376Y3828983D01*
X8188961Y3836398D01*
X8182577Y3844717D01*
X8177334Y3853799D01*
X8173321Y3863487D01*
X8170607Y3873616D01*
X8169239Y3884013D01*
X8169240Y3889256D01*
X8169239Y3889256D01*
X8169004Y4129002D01*
X8329005Y4129001D01*
D02*
G37*
G36*
X8075005D02*
X8075236Y3889256D01*
X8075236Y3884013D01*
X8073869Y3873616D01*
X8071155Y3863486D01*
X8067142Y3853796D01*
X8061899Y3844714D01*
X8055515Y3836394D01*
X8048099Y3828979D01*
X8039778Y3822596D01*
X8030696Y3817354D01*
X8021006Y3813342D01*
X8010876Y3810629D01*
X8000478Y3809263D01*
X7995235Y3809264D01*
X7989992Y3809263D01*
X7979595Y3810631D01*
X7969466Y3813345D01*
X7959777Y3817357D01*
X7950696Y3822600D01*
X7942376Y3828983D01*
X7934961Y3836398D01*
X7928577Y3844717D01*
X7923334Y3853799D01*
X7919321Y3863487D01*
X7916607Y3873616D01*
X7915239Y3884013D01*
X7915240Y3889256D01*
X7915239Y3889256D01*
X7915004Y4129002D01*
X8075005Y4129001D01*
D02*
G37*
G36*
X7821005D02*
X7821236Y3889256D01*
X7821236Y3884013D01*
X7819869Y3873616D01*
X7817155Y3863486D01*
X7813142Y3853796D01*
X7807899Y3844714D01*
X7801515Y3836394D01*
X7794099Y3828979D01*
X7785778Y3822596D01*
X7776696Y3817354D01*
X7767006Y3813342D01*
X7756876Y3810629D01*
X7746478Y3809263D01*
X7741235Y3809264D01*
X7735992Y3809263D01*
X7725595Y3810631D01*
X7715466Y3813345D01*
X7705777Y3817357D01*
X7696696Y3822600D01*
X7688376Y3828983D01*
X7680961Y3836398D01*
X7674577Y3844717D01*
X7669334Y3853799D01*
X7665321Y3863487D01*
X7662607Y3873616D01*
X7661239Y3884013D01*
X7661240Y3889256D01*
X7661239Y3889256D01*
X7661004Y4129002D01*
X7821005Y4129001D01*
D02*
G37*
G36*
X7567005D02*
X7567236Y3889256D01*
X7567236Y3884013D01*
X7565869Y3873616D01*
X7563155Y3863486D01*
X7559142Y3853796D01*
X7553899Y3844714D01*
X7547515Y3836394D01*
X7540099Y3828979D01*
X7531778Y3822596D01*
X7522696Y3817354D01*
X7513006Y3813342D01*
X7502876Y3810629D01*
X7492478Y3809263D01*
X7487235Y3809264D01*
X7481992Y3809263D01*
X7471595Y3810631D01*
X7461466Y3813345D01*
X7451777Y3817357D01*
X7442696Y3822600D01*
X7434376Y3828983D01*
X7426961Y3836398D01*
X7420577Y3844717D01*
X7415334Y3853799D01*
X7411321Y3863487D01*
X7408607Y3873616D01*
X7407239Y3884013D01*
X7407240Y3889256D01*
X7407239Y3889256D01*
X7407004Y4129002D01*
X7567005Y4129001D01*
D02*
G37*
G36*
X12313244Y2191243D02*
X12318487Y2191243D01*
X12328884Y2189875D01*
X12339013Y2187162D01*
X12348702Y2183150D01*
X12357784Y2177907D01*
X12366103Y2171523D01*
X12373518Y2164108D01*
X12379902Y2155789D01*
X12385145Y2146708D01*
X12389158Y2137019D01*
X12391872Y2126890D01*
X12393240Y2116494D01*
X12393239Y2111251D01*
X12393240Y2111250D01*
X12393475Y1871505D01*
X12233474Y1871506D01*
X12233244Y2111250D01*
X12233243Y2116494D01*
X12234610Y2126891D01*
X12237324Y2137021D01*
X12241337Y2146710D01*
X12246580Y2155792D01*
X12252964Y2164112D01*
X12260380Y2171527D01*
X12268701Y2177911D01*
X12277783Y2183153D01*
X12287473Y2187165D01*
X12297603Y2189878D01*
X12308001Y2191244D01*
X12313244Y2191243D01*
D02*
G37*
G36*
X12059244D02*
X12064487Y2191243D01*
X12074884Y2189875D01*
X12085013Y2187162D01*
X12094702Y2183150D01*
X12103784Y2177907D01*
X12112103Y2171523D01*
X12119518Y2164108D01*
X12125902Y2155789D01*
X12131145Y2146708D01*
X12135158Y2137019D01*
X12137872Y2126890D01*
X12139240Y2116494D01*
X12139239Y2111251D01*
X12139240Y2111250D01*
X12139475Y1871505D01*
X11979474Y1871506D01*
X11979244Y2111250D01*
X11979243Y2116494D01*
X11980610Y2126891D01*
X11983324Y2137021D01*
X11987337Y2146710D01*
X11992580Y2155792D01*
X11998964Y2164112D01*
X12006380Y2171527D01*
X12014701Y2177911D01*
X12023783Y2183153D01*
X12033473Y2187165D01*
X12043603Y2189878D01*
X12054001Y2191244D01*
X12059244Y2191243D01*
D02*
G37*
G36*
X11805244D02*
X11810487Y2191243D01*
X11820884Y2189875D01*
X11831013Y2187162D01*
X11840702Y2183150D01*
X11849784Y2177907D01*
X11858103Y2171523D01*
X11865518Y2164108D01*
X11871902Y2155789D01*
X11877145Y2146708D01*
X11881158Y2137019D01*
X11883872Y2126890D01*
X11885240Y2116494D01*
X11885239Y2111251D01*
X11885240Y2111250D01*
X11885475Y1871505D01*
X11725474Y1871506D01*
X11725244Y2111250D01*
X11725243Y2116494D01*
X11726610Y2126891D01*
X11729324Y2137021D01*
X11733337Y2146710D01*
X11738580Y2155792D01*
X11744964Y2164112D01*
X11752380Y2171527D01*
X11760701Y2177911D01*
X11769783Y2183153D01*
X11779473Y2187165D01*
X11789603Y2189878D01*
X11800001Y2191244D01*
X11805244Y2191243D01*
D02*
G37*
G36*
X11551244D02*
X11556487Y2191243D01*
X11566884Y2189875D01*
X11577013Y2187162D01*
X11586702Y2183150D01*
X11595784Y2177907D01*
X11604103Y2171523D01*
X11611518Y2164108D01*
X11617902Y2155789D01*
X11623145Y2146708D01*
X11627158Y2137019D01*
X11629872Y2126890D01*
X11631240Y2116494D01*
X11631239Y2111251D01*
X11631240Y2111250D01*
X11631475Y1871505D01*
X11471474Y1871506D01*
X11471244Y2111250D01*
X11471243Y2116494D01*
X11472610Y2126891D01*
X11475324Y2137021D01*
X11479337Y2146710D01*
X11484580Y2155792D01*
X11490964Y2164112D01*
X11498380Y2171527D01*
X11506701Y2177911D01*
X11515783Y2183153D01*
X11525473Y2187165D01*
X11535603Y2189878D01*
X11546001Y2191244D01*
X11551244Y2191243D01*
D02*
G37*
G36*
X11297244D02*
X11302487Y2191243D01*
X11312884Y2189875D01*
X11323013Y2187162D01*
X11332702Y2183150D01*
X11341784Y2177907D01*
X11350103Y2171523D01*
X11357518Y2164108D01*
X11363902Y2155789D01*
X11369145Y2146708D01*
X11373158Y2137019D01*
X11375872Y2126890D01*
X11377240Y2116494D01*
X11377239Y2111251D01*
X11377240Y2111250D01*
X11377475Y1871505D01*
X11217474Y1871506D01*
X11217244Y2111250D01*
X11217243Y2116494D01*
X11218610Y2126891D01*
X11221324Y2137021D01*
X11225337Y2146710D01*
X11230580Y2155792D01*
X11236964Y2164112D01*
X11244380Y2171527D01*
X11252701Y2177911D01*
X11261783Y2183153D01*
X11271473Y2187165D01*
X11281603Y2189878D01*
X11292001Y2191244D01*
X11297244Y2191243D01*
D02*
G37*
G36*
X11043244D02*
X11048487Y2191243D01*
X11058884Y2189875D01*
X11069013Y2187162D01*
X11078702Y2183150D01*
X11087784Y2177907D01*
X11096103Y2171523D01*
X11103518Y2164108D01*
X11109902Y2155789D01*
X11115145Y2146708D01*
X11119158Y2137019D01*
X11121872Y2126890D01*
X11123240Y2116494D01*
X11123239Y2111251D01*
X11123240Y2111250D01*
X11123475Y1871505D01*
X10963474Y1871506D01*
X10963244Y2111250D01*
X10963243Y2116494D01*
X10964610Y2126891D01*
X10967324Y2137021D01*
X10971337Y2146710D01*
X10976580Y2155792D01*
X10982964Y2164112D01*
X10990380Y2171527D01*
X10998701Y2177911D01*
X11007783Y2183153D01*
X11017473Y2187165D01*
X11027603Y2189878D01*
X11038001Y2191244D01*
X11043244Y2191243D01*
D02*
G37*
G36*
X10789244D02*
X10794487Y2191243D01*
X10804884Y2189875D01*
X10815013Y2187162D01*
X10824702Y2183150D01*
X10833784Y2177907D01*
X10842103Y2171523D01*
X10849518Y2164108D01*
X10855902Y2155789D01*
X10861145Y2146708D01*
X10865158Y2137019D01*
X10867872Y2126890D01*
X10869240Y2116494D01*
X10869239Y2111251D01*
X10869240Y2111250D01*
X10869475Y1871505D01*
X10709474Y1871506D01*
X10709244Y2111250D01*
X10709243Y2116494D01*
X10710610Y2126891D01*
X10713324Y2137021D01*
X10717337Y2146710D01*
X10722580Y2155792D01*
X10728964Y2164112D01*
X10736380Y2171527D01*
X10744701Y2177911D01*
X10753783Y2183153D01*
X10763473Y2187165D01*
X10773603Y2189878D01*
X10784001Y2191244D01*
X10789244Y2191243D01*
D02*
G37*
G36*
X10535244D02*
X10540487Y2191243D01*
X10550884Y2189875D01*
X10561013Y2187162D01*
X10570702Y2183150D01*
X10579784Y2177907D01*
X10588103Y2171523D01*
X10595518Y2164108D01*
X10601902Y2155789D01*
X10607145Y2146708D01*
X10611158Y2137019D01*
X10613872Y2126890D01*
X10615240Y2116494D01*
X10615239Y2111251D01*
X10615240Y2111250D01*
X10615475Y1871505D01*
X10455474Y1871506D01*
X10455244Y2111250D01*
X10455243Y2116494D01*
X10456610Y2126891D01*
X10459324Y2137021D01*
X10463337Y2146710D01*
X10468580Y2155792D01*
X10474964Y2164112D01*
X10482380Y2171527D01*
X10490701Y2177911D01*
X10499783Y2183153D01*
X10509473Y2187165D01*
X10519603Y2189878D01*
X10530001Y2191244D01*
X10535244Y2191243D01*
D02*
G37*
G36*
X10281244D02*
X10286487Y2191243D01*
X10296884Y2189875D01*
X10307013Y2187162D01*
X10316702Y2183150D01*
X10325784Y2177907D01*
X10334103Y2171523D01*
X10341518Y2164108D01*
X10347902Y2155789D01*
X10353145Y2146708D01*
X10357158Y2137019D01*
X10359872Y2126890D01*
X10361240Y2116494D01*
X10361239Y2111251D01*
X10361240Y2111250D01*
X10361475Y1871505D01*
X10201474Y1871506D01*
X10201244Y2111250D01*
X10201243Y2116494D01*
X10202610Y2126891D01*
X10205324Y2137021D01*
X10209337Y2146710D01*
X10214580Y2155792D01*
X10220964Y2164112D01*
X10228380Y2171527D01*
X10236701Y2177911D01*
X10245783Y2183153D01*
X10255473Y2187165D01*
X10265603Y2189878D01*
X10276001Y2191244D01*
X10281244Y2191243D01*
D02*
G37*
G36*
X10027244D02*
X10032487Y2191243D01*
X10042884Y2189875D01*
X10053013Y2187162D01*
X10062702Y2183150D01*
X10071784Y2177907D01*
X10080103Y2171523D01*
X10087518Y2164108D01*
X10093902Y2155789D01*
X10099145Y2146708D01*
X10103158Y2137019D01*
X10105872Y2126890D01*
X10107240Y2116494D01*
X10107239Y2111251D01*
X10107240Y2111250D01*
X10107475Y1871505D01*
X9947474Y1871506D01*
X9947244Y2111250D01*
X9947243Y2116494D01*
X9948610Y2126891D01*
X9951324Y2137021D01*
X9955337Y2146710D01*
X9960580Y2155792D01*
X9966964Y2164112D01*
X9974380Y2171527D01*
X9982701Y2177911D01*
X9991783Y2183153D01*
X10001473Y2187165D01*
X10011603Y2189878D01*
X10022001Y2191244D01*
X10027244Y2191243D01*
D02*
G37*
G36*
X9773244D02*
X9778487Y2191243D01*
X9788884Y2189875D01*
X9799013Y2187162D01*
X9808702Y2183150D01*
X9817784Y2177907D01*
X9826103Y2171523D01*
X9833518Y2164108D01*
X9839902Y2155789D01*
X9845145Y2146708D01*
X9849158Y2137019D01*
X9851872Y2126890D01*
X9853240Y2116494D01*
X9853239Y2111251D01*
X9853240Y2111250D01*
X9853475Y1871505D01*
X9693474Y1871506D01*
X9693244Y2111250D01*
X9693243Y2116494D01*
X9694610Y2126891D01*
X9697324Y2137021D01*
X9701337Y2146710D01*
X9706580Y2155792D01*
X9712964Y2164112D01*
X9720380Y2171527D01*
X9728701Y2177911D01*
X9737783Y2183153D01*
X9747473Y2187165D01*
X9757603Y2189878D01*
X9768001Y2191244D01*
X9773244Y2191243D01*
D02*
G37*
G36*
X9519244D02*
X9524487Y2191243D01*
X9534884Y2189875D01*
X9545013Y2187162D01*
X9554702Y2183150D01*
X9563784Y2177907D01*
X9572103Y2171523D01*
X9579518Y2164108D01*
X9585902Y2155789D01*
X9591145Y2146708D01*
X9595158Y2137019D01*
X9597872Y2126890D01*
X9599240Y2116494D01*
X9599239Y2111251D01*
X9599240Y2111250D01*
X9599475Y1871505D01*
X9439474Y1871506D01*
X9439244Y2111250D01*
X9439243Y2116494D01*
X9440610Y2126891D01*
X9443324Y2137021D01*
X9447337Y2146710D01*
X9452580Y2155792D01*
X9458964Y2164112D01*
X9466380Y2171527D01*
X9474701Y2177911D01*
X9483783Y2183153D01*
X9493473Y2187165D01*
X9503603Y2189878D01*
X9514001Y2191244D01*
X9519244Y2191243D01*
D02*
G37*
G36*
X9265244D02*
X9270487Y2191243D01*
X9280884Y2189875D01*
X9291013Y2187162D01*
X9300702Y2183150D01*
X9309784Y2177907D01*
X9318103Y2171523D01*
X9325518Y2164108D01*
X9331902Y2155789D01*
X9337145Y2146708D01*
X9341158Y2137019D01*
X9343872Y2126890D01*
X9345240Y2116494D01*
X9345239Y2111251D01*
X9345240Y2111250D01*
X9345475Y1871505D01*
X9185474Y1871506D01*
X9185244Y2111250D01*
X9185243Y2116494D01*
X9186610Y2126891D01*
X9189324Y2137021D01*
X9193337Y2146710D01*
X9198580Y2155792D01*
X9204964Y2164112D01*
X9212380Y2171527D01*
X9220701Y2177911D01*
X9229783Y2183153D01*
X9239473Y2187165D01*
X9249603Y2189878D01*
X9260001Y2191244D01*
X9265244Y2191243D01*
D02*
G37*
G36*
X9011244D02*
X9016487Y2191243D01*
X9026884Y2189875D01*
X9037013Y2187162D01*
X9046702Y2183150D01*
X9055784Y2177907D01*
X9064103Y2171523D01*
X9071518Y2164108D01*
X9077902Y2155789D01*
X9083145Y2146708D01*
X9087158Y2137019D01*
X9089872Y2126890D01*
X9091240Y2116494D01*
X9091239Y2111251D01*
X9091240Y2111250D01*
X9091475Y1871505D01*
X8931474Y1871506D01*
X8931244Y2111250D01*
X8931243Y2116494D01*
X8932610Y2126891D01*
X8935324Y2137021D01*
X8939337Y2146710D01*
X8944580Y2155792D01*
X8950964Y2164112D01*
X8958380Y2171527D01*
X8966701Y2177911D01*
X8975783Y2183153D01*
X8985473Y2187165D01*
X8995603Y2189878D01*
X9006001Y2191244D01*
X9011244Y2191243D01*
D02*
G37*
G36*
X8757244D02*
X8762487Y2191243D01*
X8772884Y2189875D01*
X8783013Y2187162D01*
X8792702Y2183150D01*
X8801784Y2177907D01*
X8810103Y2171523D01*
X8817518Y2164108D01*
X8823902Y2155789D01*
X8829145Y2146708D01*
X8833158Y2137019D01*
X8835872Y2126890D01*
X8837240Y2116494D01*
X8837239Y2111251D01*
X8837240Y2111250D01*
X8837475Y1871505D01*
X8677474Y1871506D01*
X8677244Y2111250D01*
X8677243Y2116494D01*
X8678610Y2126891D01*
X8681324Y2137021D01*
X8685337Y2146710D01*
X8690580Y2155792D01*
X8696964Y2164112D01*
X8704380Y2171527D01*
X8712701Y2177911D01*
X8721783Y2183153D01*
X8731473Y2187165D01*
X8741603Y2189878D01*
X8752001Y2191244D01*
X8757244Y2191243D01*
D02*
G37*
G36*
X8503244D02*
X8508487Y2191243D01*
X8518884Y2189875D01*
X8529013Y2187162D01*
X8538702Y2183150D01*
X8547784Y2177907D01*
X8556103Y2171523D01*
X8563518Y2164108D01*
X8569902Y2155789D01*
X8575145Y2146708D01*
X8579158Y2137019D01*
X8581872Y2126890D01*
X8583240Y2116494D01*
X8583239Y2111251D01*
X8583240Y2111250D01*
X8583475Y1871505D01*
X8423474Y1871506D01*
X8423244Y2111250D01*
X8423243Y2116494D01*
X8424610Y2126891D01*
X8427324Y2137021D01*
X8431337Y2146710D01*
X8436580Y2155792D01*
X8442964Y2164112D01*
X8450380Y2171527D01*
X8458701Y2177911D01*
X8467783Y2183153D01*
X8477473Y2187165D01*
X8487603Y2189878D01*
X8498001Y2191244D01*
X8503244Y2191243D01*
D02*
G37*
G36*
X8249244D02*
X8254487Y2191243D01*
X8264884Y2189875D01*
X8275013Y2187162D01*
X8284702Y2183150D01*
X8293784Y2177907D01*
X8302103Y2171523D01*
X8309518Y2164108D01*
X8315902Y2155789D01*
X8321145Y2146708D01*
X8325158Y2137019D01*
X8327872Y2126890D01*
X8329240Y2116494D01*
X8329239Y2111251D01*
X8329240Y2111250D01*
X8329475Y1871505D01*
X8169474Y1871506D01*
X8169244Y2111250D01*
X8169243Y2116494D01*
X8170610Y2126891D01*
X8173324Y2137021D01*
X8177337Y2146710D01*
X8182580Y2155792D01*
X8188964Y2164112D01*
X8196380Y2171527D01*
X8204701Y2177911D01*
X8213783Y2183153D01*
X8223473Y2187165D01*
X8233603Y2189878D01*
X8244001Y2191244D01*
X8249244Y2191243D01*
D02*
G37*
G36*
X7995244D02*
X8000487Y2191243D01*
X8010884Y2189875D01*
X8021013Y2187162D01*
X8030702Y2183150D01*
X8039784Y2177907D01*
X8048103Y2171523D01*
X8055518Y2164108D01*
X8061902Y2155789D01*
X8067145Y2146708D01*
X8071158Y2137019D01*
X8073872Y2126890D01*
X8075240Y2116494D01*
X8075239Y2111251D01*
X8075240Y2111250D01*
X8075475Y1871505D01*
X7915474Y1871506D01*
X7915244Y2111250D01*
X7915243Y2116494D01*
X7916610Y2126891D01*
X7919324Y2137021D01*
X7923337Y2146710D01*
X7928580Y2155792D01*
X7934964Y2164112D01*
X7942380Y2171527D01*
X7950701Y2177911D01*
X7959783Y2183153D01*
X7969473Y2187165D01*
X7979603Y2189878D01*
X7990001Y2191244D01*
X7995244Y2191243D01*
D02*
G37*
G36*
X7741244D02*
X7746487Y2191243D01*
X7756884Y2189875D01*
X7767013Y2187162D01*
X7776702Y2183150D01*
X7785784Y2177907D01*
X7794103Y2171523D01*
X7801518Y2164108D01*
X7807902Y2155789D01*
X7813145Y2146708D01*
X7817158Y2137019D01*
X7819872Y2126890D01*
X7821240Y2116494D01*
X7821239Y2111251D01*
X7821240Y2111250D01*
X7821475Y1871505D01*
X7661474Y1871506D01*
X7661244Y2111250D01*
X7661243Y2116494D01*
X7662610Y2126891D01*
X7665324Y2137021D01*
X7669337Y2146710D01*
X7674580Y2155792D01*
X7680964Y2164112D01*
X7688380Y2171527D01*
X7696701Y2177911D01*
X7705783Y2183153D01*
X7715473Y2187165D01*
X7725603Y2189878D01*
X7736001Y2191244D01*
X7741244Y2191243D01*
D02*
G37*
G36*
X7487244D02*
X7492487Y2191243D01*
X7502884Y2189875D01*
X7513013Y2187162D01*
X7522702Y2183150D01*
X7531784Y2177907D01*
X7540103Y2171523D01*
X7547518Y2164108D01*
X7553902Y2155789D01*
X7559145Y2146708D01*
X7563158Y2137019D01*
X7565872Y2126890D01*
X7567240Y2116494D01*
X7567239Y2111251D01*
X7567240Y2111250D01*
X7567475Y1871505D01*
X7407474Y1871506D01*
X7407244Y2111250D01*
X7407243Y2116494D01*
X7408610Y2126891D01*
X7411324Y2137021D01*
X7415337Y2146710D01*
X7420580Y2155792D01*
X7426964Y2164112D01*
X7434380Y2171527D01*
X7442701Y2177911D01*
X7451783Y2183153D01*
X7461473Y2187165D01*
X7471603Y2189878D01*
X7482001Y2191244D01*
X7487244Y2191243D01*
D02*
G37*
D13*
X12285000Y1730000D02*
D03*
X12095000D02*
D03*
X12190000Y1530000D02*
D03*
D14*
X6140002Y580003D02*
D03*
X7050002D02*
D03*
X6140002Y1030003D02*
D03*
X7050002D02*
D03*
X4940002Y580003D02*
D03*
X5850002D02*
D03*
X4940002Y1030003D02*
D03*
X5850002D02*
D03*
X3739999Y580000D02*
D03*
X4649999D02*
D03*
X3739999Y1030000D02*
D03*
X4649999D02*
D03*
D15*
X10225705Y5105000D02*
D03*
Y5155000D02*
D03*
Y5205000D02*
D03*
Y5255000D02*
D03*
X10053705Y5105000D02*
D03*
Y5155000D02*
D03*
Y5205000D02*
D03*
Y5255000D02*
D03*
D16*
X11152500Y382500D02*
D03*
Y242500D02*
D03*
X4840358Y3370353D02*
D03*
Y3510358D02*
D03*
X5290355Y3370353D02*
D03*
Y3510358D02*
D03*
X5740357Y3370353D02*
D03*
Y3510358D02*
D03*
X4990357Y3510356D02*
D03*
Y3370356D02*
D03*
X5440357Y3510356D02*
D03*
Y3370356D02*
D03*
X5890357Y3510356D02*
D03*
Y3370356D02*
D03*
X5140357Y3510356D02*
D03*
Y3370356D02*
D03*
X5590357Y3510356D02*
D03*
Y3370356D02*
D03*
X6040357Y3510356D02*
D03*
Y3370356D02*
D03*
X9350000Y5109998D02*
D03*
Y5250003D02*
D03*
X8317500Y5247500D02*
D03*
Y5107500D02*
D03*
X9899709Y5109998D02*
D03*
Y5250003D02*
D03*
X7787499Y4957499D02*
D03*
X7787500Y5097498D02*
D03*
X5077109Y4350002D02*
D03*
Y4210003D02*
D03*
X5890359Y4350354D02*
D03*
Y4210354D02*
D03*
X5560357Y3970357D02*
D03*
Y3830358D02*
D03*
X11280001Y1580000D02*
D03*
Y1440000D02*
D03*
X11280058Y1169999D02*
D03*
X11280057Y1310000D02*
D03*
X10730002Y1320000D02*
D03*
Y1460001D02*
D03*
X10525400Y380992D02*
D03*
Y240992D02*
D03*
D17*
X11100000Y5250000D02*
D03*
X11020000D02*
D03*
Y5110000D02*
D03*
X11100000D02*
D03*
D18*
X7987500Y5287500D02*
D03*
X8037500D02*
D03*
X8087500D02*
D03*
Y5067500D02*
D03*
X8037500D02*
D03*
X7987500D02*
D03*
D19*
X8172500Y5252500D02*
D03*
Y5202500D02*
D03*
Y5152500D02*
D03*
Y5102500D02*
D03*
X7902500D02*
D03*
Y5152500D02*
D03*
Y5202500D02*
D03*
Y5252500D02*
D03*
D20*
X5257502Y4475000D02*
D03*
Y4435000D02*
D03*
Y4395000D02*
D03*
Y4355000D02*
D03*
Y4315000D02*
D03*
Y4275000D02*
D03*
Y4235000D02*
D03*
X5652502D02*
D03*
Y4275000D02*
D03*
Y4315000D02*
D03*
Y4355000D02*
D03*
Y4395000D02*
D03*
Y4435000D02*
D03*
Y4475000D02*
D03*
D21*
X5335002Y4157500D02*
D03*
X5375001D02*
D03*
X5415002D02*
D03*
X5455002D02*
D03*
X5495001D02*
D03*
X5535002D02*
D03*
X5575002D02*
D03*
Y4552500D02*
D03*
X5535002D02*
D03*
X5495001D02*
D03*
X5455002D02*
D03*
X5415002D02*
D03*
X5375001D02*
D03*
X5335002D02*
D03*
D22*
X5455002Y4355000D02*
D03*
D23*
X9330006Y2433591D02*
D03*
Y2687591D02*
D03*
D24*
Y2941591D02*
D03*
D25*
X11997006Y2757501D02*
D03*
Y3242501D02*
D03*
D26*
X12300006Y2727501D02*
D03*
Y3272501D02*
D03*
D27*
X11000006Y3250001D02*
D03*
X11250006D02*
D03*
X11500006D02*
D03*
X12000006Y3000001D02*
D03*
X12330006Y2900001D02*
D03*
Y3100001D02*
D03*
D28*
X9325000Y700000D02*
D03*
Y900000D02*
D03*
D29*
X9650000Y800000D02*
D03*
D30*
X10323013Y1430000D02*
D03*
X10116987Y1335000D02*
D03*
D31*
Y1525000D02*
D03*
D32*
X11307501Y245000D02*
D03*
X11497501D02*
D03*
X11402501Y485000D02*
D03*
X10679018Y244083D02*
D03*
X10869018D02*
D03*
X10774018Y484083D02*
D03*
D33*
X4057501Y2145000D02*
D03*
Y2055000D02*
D03*
Y1965000D02*
D03*
X4352502D02*
D03*
Y2055000D02*
D03*
Y2145000D02*
D03*
X6457501D02*
D03*
Y2055000D02*
D03*
Y1965000D02*
D03*
X6752502D02*
D03*
Y2055000D02*
D03*
Y2145000D02*
D03*
X5257502D02*
D03*
Y2055000D02*
D03*
Y1965000D02*
D03*
X5552502D02*
D03*
Y2055000D02*
D03*
Y2145000D02*
D03*
D34*
X9000001Y5080001D02*
D03*
Y5280001D02*
D03*
X9200001Y5080001D02*
D03*
Y5280001D02*
D03*
D37*
X11010002Y1170001D02*
D03*
X11105002D02*
D03*
Y1450000D02*
D03*
X10915003Y1450001D02*
D03*
Y1170001D02*
D03*
D38*
X10580002Y1535000D02*
D03*
X10580001Y1385000D02*
D03*
D39*
X5210001Y140002D02*
D03*
X5070002D02*
D03*
X6409999D02*
D03*
X6270000D02*
D03*
X4009999Y140003D02*
D03*
X3869999Y140002D02*
D03*
X6909998D02*
D03*
X6769999D02*
D03*
X6520002Y139997D02*
D03*
X6660001D02*
D03*
X4509998Y140002D02*
D03*
X4369998D02*
D03*
X4120001Y139997D02*
D03*
X4260001D02*
D03*
X11130002Y4959999D02*
D03*
X10989997Y4959999D02*
D03*
X8107500Y4927501D02*
D03*
X7967500D02*
D03*
X5080002Y5040001D02*
D03*
X5220002Y5040000D02*
D03*
X5079999Y5160000D02*
D03*
X5220004Y5160000D02*
D03*
X5565000Y4914999D02*
D03*
X5705000D02*
D03*
Y4765001D02*
D03*
X5565000D02*
D03*
X5710000Y140002D02*
D03*
X5570001D02*
D03*
X5459998Y139997D02*
D03*
X5319999D02*
D03*
X11425002Y747500D02*
D03*
X11285001Y747500D02*
D03*
X10580001Y1180000D02*
D03*
X10720002D02*
D03*
X11285001Y877500D02*
D03*
X11425002D02*
D03*
X10990001Y940000D02*
D03*
X11130001D02*
D03*
X11770000Y1420000D02*
D03*
X11630000D02*
D03*
X9930000Y1470000D02*
D03*
X9790000D02*
D03*
X9790000Y1350000D02*
D03*
X9930000D02*
D03*
D40*
X6460502Y4369497D02*
D03*
X6559497Y4270502D02*
D03*
D133*
X11117493Y689998D02*
D03*
X11117494Y789996D02*
D03*
X11002497Y689996D02*
D03*
X11002509Y790004D02*
D03*
D134*
X11117469Y739995D02*
D03*
X11002499Y740041D02*
D03*
%TF.MD5,8023e8c69bc992d21940db5f669cf635*%
M02*
