%TF.GenerationSoftware,Altium Limited,Altium Designer,25.5.2 (35)*%
G04 Layer_Color=128*
%FSLAX45Y45*%
%MOMM*%
%TF.SameCoordinates,71E00EFA-37BE-4E02-AFE8-A08B7019828F*%
%TF.FilePolarity,Positive*%
%TF.FileFunction,Paste,Bot*%
%TF.Part,Single*%
G01*
G75*
%TA.AperFunction,SMDPad,CuDef*%
G04:AMPARAMS|DCode=16|XSize=0.76mm|YSize=0.6604mm|CornerRadius=0.08255mm|HoleSize=0mm|Usage=FLASHONLY|Rotation=0.000|XOffset=0mm|YOffset=0mm|HoleType=Round|Shape=RoundedRectangle|*
%AMROUNDEDRECTD16*
21,1,0.76000,0.49530,0,0,0.0*
21,1,0.59490,0.66040,0,0,0.0*
1,1,0.16510,0.29745,-0.24765*
1,1,0.16510,-0.29745,-0.24765*
1,1,0.16510,-0.29745,0.24765*
1,1,0.16510,0.29745,0.24765*
%
%ADD16ROUNDEDRECTD16*%
G04:AMPARAMS|DCode=39|XSize=0.76mm|YSize=0.6604mm|CornerRadius=0.08255mm|HoleSize=0mm|Usage=FLASHONLY|Rotation=90.000|XOffset=0mm|YOffset=0mm|HoleType=Round|Shape=RoundedRectangle|*
%AMROUNDEDRECTD39*
21,1,0.76000,0.49530,0,0,90.0*
21,1,0.59490,0.66040,0,0,90.0*
1,1,0.16510,0.24765,0.29745*
1,1,0.16510,0.24765,-0.29745*
1,1,0.16510,-0.24765,-0.29745*
1,1,0.16510,-0.24765,0.29745*
%
%ADD39ROUNDEDRECTD39*%
%ADD70R,0.80000X0.40000*%
G04:AMPARAMS|DCode=72|XSize=0.7mm|YSize=1.1mm|CornerRadius=0.07mm|HoleSize=0mm|Usage=FLASHONLY|Rotation=270.000|XOffset=0mm|YOffset=0mm|HoleType=Round|Shape=RoundedRectangle|*
%AMROUNDEDRECTD72*
21,1,0.70000,0.96000,0,0,270.0*
21,1,0.56000,1.10000,0,0,270.0*
1,1,0.14000,-0.48000,-0.28000*
1,1,0.14000,-0.48000,0.28000*
1,1,0.14000,0.48000,0.28000*
1,1,0.14000,0.48000,-0.28000*
%
%ADD72ROUNDEDRECTD72*%
G04:AMPARAMS|DCode=73|XSize=0.86mm|YSize=2.8mm|CornerRadius=0.086mm|HoleSize=0mm|Usage=FLASHONLY|Rotation=270.000|XOffset=0mm|YOffset=0mm|HoleType=Round|Shape=RoundedRectangle|*
%AMROUNDEDRECTD73*
21,1,0.86000,2.62800,0,0,270.0*
21,1,0.68800,2.80000,0,0,270.0*
1,1,0.17200,-1.31400,-0.34400*
1,1,0.17200,-1.31400,0.34400*
1,1,0.17200,1.31400,0.34400*
1,1,0.17200,1.31400,-0.34400*
%
%ADD73ROUNDEDRECTD73*%
G04:AMPARAMS|DCode=74|XSize=0.7mm|YSize=3.3mm|CornerRadius=0.07mm|HoleSize=0mm|Usage=FLASHONLY|Rotation=270.000|XOffset=0mm|YOffset=0mm|HoleType=Round|Shape=RoundedRectangle|*
%AMROUNDEDRECTD74*
21,1,0.70000,3.16000,0,0,270.0*
21,1,0.56000,3.30000,0,0,270.0*
1,1,0.14000,-1.58000,-0.28000*
1,1,0.14000,-1.58000,0.28000*
1,1,0.14000,1.58000,0.28000*
1,1,0.14000,1.58000,-0.28000*
%
%ADD74ROUNDEDRECTD74*%
G04:AMPARAMS|DCode=75|XSize=0.7mm|YSize=3.3mm|CornerRadius=0.0875mm|HoleSize=0mm|Usage=FLASHONLY|Rotation=270.000|XOffset=0mm|YOffset=0mm|HoleType=Round|Shape=RoundedRectangle|*
%AMROUNDEDRECTD75*
21,1,0.70000,3.12500,0,0,270.0*
21,1,0.52500,3.30000,0,0,270.0*
1,1,0.17500,-1.56250,-0.26250*
1,1,0.17500,-1.56250,0.26250*
1,1,0.17500,1.56250,0.26250*
1,1,0.17500,1.56250,-0.26250*
%
%ADD75ROUNDEDRECTD75*%
G04:AMPARAMS|DCode=76|XSize=1.04mm|YSize=1.83mm|CornerRadius=0.104mm|HoleSize=0mm|Usage=FLASHONLY|Rotation=270.000|XOffset=0mm|YOffset=0mm|HoleType=Round|Shape=RoundedRectangle|*
%AMROUNDEDRECTD76*
21,1,1.04000,1.62200,0,0,270.0*
21,1,0.83200,1.83000,0,0,270.0*
1,1,0.20800,-0.81100,-0.41600*
1,1,0.20800,-0.81100,0.41600*
1,1,0.20800,0.81100,0.41600*
1,1,0.20800,0.81100,-0.41600*
%
%ADD76ROUNDEDRECTD76*%
G04:AMPARAMS|DCode=77|XSize=1.05mm|YSize=0.78mm|CornerRadius=0.078mm|HoleSize=0mm|Usage=FLASHONLY|Rotation=270.000|XOffset=0mm|YOffset=0mm|HoleType=Round|Shape=RoundedRectangle|*
%AMROUNDEDRECTD77*
21,1,1.05000,0.62400,0,0,270.0*
21,1,0.89400,0.78000,0,0,270.0*
1,1,0.15600,-0.31200,-0.44700*
1,1,0.15600,-0.31200,0.44700*
1,1,0.15600,0.31200,0.44700*
1,1,0.15600,0.31200,-0.44700*
%
%ADD77ROUNDEDRECTD77*%
G04:AMPARAMS|DCode=78|XSize=0.9mm|YSize=0.93mm|CornerRadius=0.09mm|HoleSize=0mm|Usage=FLASHONLY|Rotation=270.000|XOffset=0mm|YOffset=0mm|HoleType=Round|Shape=RoundedRectangle|*
%AMROUNDEDRECTD78*
21,1,0.90000,0.75000,0,0,270.0*
21,1,0.72000,0.93000,0,0,270.0*
1,1,0.18000,-0.37500,-0.36000*
1,1,0.18000,-0.37500,0.36000*
1,1,0.18000,0.37500,0.36000*
1,1,0.18000,0.37500,-0.36000*
%
%ADD78ROUNDEDRECTD78*%
%ADD79R,1.33000X1.57000*%
D16*
X9890000Y600000D02*
D03*
Y459999D02*
D03*
X5210000Y4677500D02*
D03*
Y4817500D02*
D03*
X10422501Y3329999D02*
D03*
X10422501Y3189999D02*
D03*
X9890000Y739999D02*
D03*
Y880000D02*
D03*
X10577499Y3067501D02*
D03*
Y2927501D02*
D03*
X10574998Y3329999D02*
D03*
Y3189999D02*
D03*
X4530002Y4677502D02*
D03*
X4530002Y4817502D02*
D03*
X5070001Y4677502D02*
D03*
Y4817501D02*
D03*
X10577499Y2672502D02*
D03*
Y2812502D02*
D03*
X4670001Y4677500D02*
D03*
Y4817500D02*
D03*
X9750000Y1179999D02*
D03*
Y1039999D02*
D03*
Y880000D02*
D03*
Y740000D02*
D03*
Y600000D02*
D03*
Y460000D02*
D03*
D39*
X9550001Y1039997D02*
D03*
X9410001D02*
D03*
X9905002Y5180002D02*
D03*
X9764997Y5180003D02*
D03*
X10579705Y5170000D02*
D03*
X10719704D02*
D03*
X10579705Y5329998D02*
D03*
X10719705Y5329997D02*
D03*
X11774998Y1710000D02*
D03*
X11634998D02*
D03*
X11774998Y1592498D02*
D03*
X11634998D02*
D03*
X9890002Y1310001D02*
D03*
X9750002D02*
D03*
X3050001Y1310000D02*
D03*
X2910001D02*
D03*
X3050001Y1200000D02*
D03*
X2910001D02*
D03*
X3050002Y980000D02*
D03*
X2910001D02*
D03*
X3050001Y1090000D02*
D03*
X2910001D02*
D03*
X9905000Y5030000D02*
D03*
X9765000D02*
D03*
X10199705Y5180000D02*
D03*
X10339705D02*
D03*
X2540001Y3610000D02*
D03*
X2680001D02*
D03*
X2540001Y3740000D02*
D03*
X2680001D02*
D03*
X2536232Y643940D02*
D03*
X2676232D02*
D03*
X2536231Y500255D02*
D03*
X2676232D02*
D03*
X9890000Y1039999D02*
D03*
X10030000D02*
D03*
X9570000Y600000D02*
D03*
X9430000D02*
D03*
X9890000Y1170000D02*
D03*
X10030000D02*
D03*
X9430000Y460000D02*
D03*
X9570000D02*
D03*
D70*
X9372500Y885000D02*
D03*
Y755000D02*
D03*
X9587500D02*
D03*
Y820000D02*
D03*
Y885000D02*
D03*
D72*
X12227500Y3520000D02*
D03*
Y3410000D02*
D03*
X12227500Y3300000D02*
D03*
X12227500Y3190000D02*
D03*
Y3080000D02*
D03*
Y2970000D02*
D03*
X12227500Y2860000D02*
D03*
X12227500Y2750000D02*
D03*
D73*
X12177500Y3628000D02*
D03*
D74*
X11099500Y3636000D02*
D03*
D75*
X11099500Y2340000D02*
D03*
D76*
X12226000Y2367000D02*
D03*
D77*
X10973500Y2997500D02*
D03*
D78*
X10981000Y2571000D02*
D03*
D79*
X9168500Y810000D02*
D03*
X8971500D02*
D03*
X9168500Y1040000D02*
D03*
X8971500D02*
D03*
%TF.MD5,52952e983475a2a34607b20ad0f9080e*%
M02*
